999
FreeCAD v0.20 
  0
SECTION
  2
HEADER
  9
$ACADVER
  1
AC1014
  9
$ACADMAINTVER
 70
     9
  9
$DWGCODEPAGE
  3
ANSI_1252
  9
$TEXTSTYLE
  7
STANDARD
  9
$DIMSTYLE
  2
STANDARD
  9
$DIMTXSTY
  7
STANDARD
  9
$CMLSTYLE
  2
STANDARD
  9
$LUNITS
 70
2
  9
$INSUNITS
 70
4
  9
$PEXTMAX
 10
50
 20
50
 30
50
  9
$PEXTMIN
 10
0
 20
0
 30
0
  9
$HANDSEED
  5
FFFF
  0
ENDSEC
  0
SECTION
  2
CLASSES
  0
CLASS
  1
ACDBDICTIONARYWDFLT
  2
AcDbDictionaryWithDefault
  3
ObjectDBX Classes
 90
        0
280
     0
281
     0
  0
CLASS
  1
XRECORD
  2
AcDbXrecord
  3
ObjectDBX Classes
 90
        0
280
     0
281
     0
  0
CLASS
  1
LWPOLYLINE
  2
AcDbPolyline
  3
ObjectDBX Classes
 90
        0
280
     0
281
     1
  0
ENDSEC
  0
SECTION
  2
TABLES
  0
TABLE
  2
VPORT
  5
20
330
0
100
AcDbSymbolTable
 70
     1
  0
VPORT
  5
21
330
20
100
AcDbSymbolTableRecord
100
AcDbViewportTableRecord
  2
*ACTIVE
 70
     0
  0
ENDTAB
  0
TABLE
  2
LTYPE
  5
22
330
0
100
AcDbSymbolTable
 70
     1
  0
LTYPE
  5
23
330
21
100
AcDbSymbolTableRecord
100
AcDbLinetypeTableRecord
  2
BYBLOCK
 70
     0
  3

 72
    65
 73
     0
 40
0.0
  0
LTYPE
  5
24
330
21
100
AcDbSymbolTableRecord
100
AcDbLinetypeTableRecord
  2
BYLAYER
 70
     0
  3

 72
    65
 73
     0
 40
0.0
  0
LTYPE
  5
25
330
21
100
AcDbSymbolTableRecord
100
AcDbLinetypeTableRecord
  2
CONTINUOUS
 70
     0
  3
Solid line
 72
    65
 73
     0
 40
0.0
  0
ENDTAB
  0
TABLE
  2
LAYER
  5
DAE
330
0
100
AcDbSymbolTable
 70
3
  0
LAYER
  5
DAF
330
DAE
100
AcDbSymbolTableRecord
100
AcDbLayerTableRecord
  2
0
 70
   0
 62
   7
  6
CONTINUOUS
  0
LAYER
  5
DB0
330
DAE
100
AcDbSymbolTableRecord
100
AcDbLayerTableRecord
  2
none
 70
    0
 62
    7
  6
CONTINUOUS
  0
LAYER
  5
DB1
330
DAE
100
AcDbSymbolTableRecord
100
AcDbLayerTableRecord
  2
Sketch
 70
    0
 62
    7
  6
CONTINUOUS
  0
ENDTAB
  0
TABLE
  2
STYLE
  5
70
330
0
100
AcDbSymbolTable
 70
     2
  0
STYLE
  5
71
330
70
100
AcDbSymbolTableRecord
100
AcDbTextStyleTableRecord
  2
STANDARD
 70
     0
 40
0.0
 41
1.0
 50
0.0
 71
     0
 42
2.5
  3
arial.ttf
  4

  0
STYLE
  5
72
330
70
100
AcDbSymbolTableRecord
100
AcDbTextStyleTableRecord
  2
ANNOTATIVE
 70
     0
 40
0.0
 41
1.0
 50
0.0
 71
     0
 42
2.5
  3
arial.ttf
  4

  0
ENDTAB
  0
TABLE
  2
VIEW
  5
73
330
0
100
AcDbSymbolTable
 70
     0
  0
ENDTAB
  0
TABLE
  2
UCS
  5
74
330
0
100
AcDbSymbolTable
 70
     0
  0
ENDTAB
  0
TABLE
  2
APPID
  5
75
330
0
100
AcDbSymbolTable
 70
     2
  0
APPID
  5
76
330
75
100
AcDbSymbolTableRecord
100
AcDbRegAppTableRecord
  2
ACAD
 70
     0
  0
APPID
  5
77
330
75
100
AcDbSymbolTableRecord
100
AcDbRegAppTableRecord
  2
ACADANNOTATIVE
 70
     0
  0
ENDTAB
  0
TABLE
  2
DIMSTYLE
  5
78
330
0
100
AcDbSymbolTable
 70
     2
  0
DIMSTYLE
105
79
330
78
100
AcDbSymbolTableRecord
100
AcDbDimStyleTableRecord
  2
STANDARD
 70
     0
  3

  4

  5

  6

  7

 40
0.0
 41
2.5
 42
0.625
 43
3.75
 44
1.25
 45
0.0
 46
0.0
 47
0.0
 48
0.0
140
2.5
141
2.5
142
0.0
143
0.03937007874016
144
1.0
145
0.0
146
1.0
147
0.625
 71
     0
 72
     0
 73
     0
 74
     0
 75
     0
 76
     0
 77
     1
 78
     8
170
     0
171
     3
172
     1
173
     0
174
     0
175
     0
176
     0
177
     0
178
     0
270
     2
271
     2
272
     2
273
     2
274
     3
340
71
275
     0
280
     0
281
     0
282
     0
283
     0
284
     8
285
     0
286
     0
287
     3
288
     0
  0
ENDTAB
  0
TABLE
  2
BLOCK_RECORD
  5
A01
330
0
100
AcDbSymbolTable
  70
5
  0
BLOCK_RECORD
  5
A02
330
A01
100
AcDbSymbolTableRecord
100
AcDbBlockTableRecord
  2
*MODEL_SPACE
  0
BLOCK_RECORD
  5
A03
330
A01
100
AcDbSymbolTableRecord
100
AcDbBlockTableRecord
  2
*PAPER_SPACE
  0
ENDTAB
  0
ENDSEC
  0
SECTION
  2
BLOCKS
  0
BLOCK
  5
A04
330
A02
100
AcDbEntity
  8
0
100
AcDbBlockBegin
  2
*MODEL_SPACE
 70
   0
 10
0
 20
0
 30
0
  3
*MODEL_SPACE
  1
 
  0
ENDBLK
  5
A05
330
A02
100
AcDbEntity
  8
0
100
AcDbBlockEnd
  0
BLOCK
  5
A06
330
A03
100
AcDbEntity
 67
1
  8
0
100
AcDbBlockBegin
  2
*PAPER_SPACE
 70
   0
 10
0
 20
0
 30
0
  3
*PAPER_SPACE
  1
 
  0
ENDBLK
  5
A07
330
A03
100
AcDbEntity
 67
    1
  8
0
100
AcDbBlockEnd
  0
ENDSEC
  0
SECTION
  2
ENTITIES
  0
ARC
  5
A08
330
A02
100
AcDbEntity
  8
Sketch
100
AcDbCircle
 10
3.025
 20
-7.7875
 30
0
 40
0.5
100
AcDbArc
 50
90
 51
180
  0
LINE
  5
A09
330
A02
100
AcDbEntity
  8
Sketch
100
AcDbLine
 10
3.025
 20
-7.2875
 30
0
 11
16.025
 21
-7.2875
 31
0
  0
ARC
  5
A0A
330
A02
100
AcDbEntity
  8
Sketch
100
AcDbCircle
 10
16.025
 20
-7.7875
 30
0
 40
0.5
100
AcDbArc
 50
0
 51
90
  0
LINE
  5
A0B
330
A02
100
AcDbEntity
  8
Sketch
100
AcDbLine
 10
16.525
 20
-7.7875
 30
0
 11
16.525
 21
-20.7875
 31
0
  0
ARC
  5
A0C
330
A02
100
AcDbEntity
  8
Sketch
100
AcDbCircle
 10
16.025
 20
-20.7875
 30
0
 40
0.5
100
AcDbArc
 50
-90
 51
0
  0
LINE
  5
A0D
330
A02
100
AcDbEntity
  8
Sketch
100
AcDbLine
 10
3.025
 20
-21.2875
 30
0
 11
16.025
 21
-21.2875
 31
0
  0
ARC
  5
A0E
330
A02
100
AcDbEntity
  8
Sketch
100
AcDbCircle
 10
3.025
 20
-20.7875
 30
0
 40
0.5
100
AcDbArc
 50
180
 51
-90
  0
LINE
  5
A0F
330
A02
100
AcDbEntity
  8
Sketch
100
AcDbLine
 10
2.525
 20
-7.7875
 30
0
 11
2.525
 21
-20.7875
 31
0
  0
ARC
  5
A10
330
A02
100
AcDbEntity
  8
Sketch
100
AcDbCircle
 10
41.125
 20
-7.7875
 30
0
 40
0.5
100
AcDbArc
 50
90
 51
180
  0
LINE
  5
A11
330
A02
100
AcDbEntity
  8
Sketch
100
AcDbLine
 10
41.125
 20
-7.2875
 30
0
 11
54.125
 21
-7.2875
 31
0
  0
ARC
  5
A12
330
A02
100
AcDbEntity
  8
Sketch
100
AcDbCircle
 10
54.125
 20
-7.7875
 30
0
 40
0.5
100
AcDbArc
 50
0
 51
90
  0
LINE
  5
A13
330
A02
100
AcDbEntity
  8
Sketch
100
AcDbLine
 10
54.625
 20
-7.7875
 30
0
 11
54.625
 21
-20.7875
 31
0
  0
ARC
  5
A14
330
A02
100
AcDbEntity
  8
Sketch
100
AcDbCircle
 10
54.125
 20
-20.7875
 30
0
 40
0.5
100
AcDbArc
 50
-90
 51
0
  0
LINE
  5
A15
330
A02
100
AcDbEntity
  8
Sketch
100
AcDbLine
 10
41.125
 20
-21.2875
 30
0
 11
54.125
 21
-21.2875
 31
0
  0
ARC
  5
A16
330
A02
100
AcDbEntity
  8
Sketch
100
AcDbCircle
 10
41.125
 20
-20.7875
 30
0
 40
0.5
100
AcDbArc
 50
180
 51
-90
  0
LINE
  5
A17
330
A02
100
AcDbEntity
  8
Sketch
100
AcDbLine
 10
40.625
 20
-7.7875
 30
0
 11
40.625
 21
-20.7875
 31
0
  0
ARC
  5
A18
330
A02
100
AcDbEntity
  8
Sketch
100
AcDbCircle
 10
60.175
 20
-7.7875
 30
0
 40
0.5
100
AcDbArc
 50
90
 51
180
  0
LINE
  5
A19
330
A02
100
AcDbEntity
  8
Sketch
100
AcDbLine
 10
60.175
 20
-7.2875
 30
0
 11
73.175
 21
-7.2875
 31
0
  0
ARC
  5
A1A
330
A02
100
AcDbEntity
  8
Sketch
100
AcDbCircle
 10
73.175
 20
-7.7875
 30
0
 40
0.5
100
AcDbArc
 50
0
 51
90
  0
LINE
  5
A1B
330
A02
100
AcDbEntity
  8
Sketch
100
AcDbLine
 10
73.675
 20
-7.7875
 30
0
 11
73.675
 21
-20.7875
 31
0
  0
ARC
  5
A1C
330
A02
100
AcDbEntity
  8
Sketch
100
AcDbCircle
 10
73.175
 20
-20.7875
 30
0
 40
0.5
100
AcDbArc
 50
-90
 51
0
  0
LINE
  5
A1D
330
A02
100
AcDbEntity
  8
Sketch
100
AcDbLine
 10
60.175
 20
-21.2875
 30
0
 11
73.175
 21
-21.2875
 31
0
  0
ARC
  5
A1E
330
A02
100
AcDbEntity
  8
Sketch
100
AcDbCircle
 10
60.175
 20
-20.7875
 30
0
 40
0.5
100
AcDbArc
 50
180
 51
-90
  0
LINE
  5
A1F
330
A02
100
AcDbEntity
  8
Sketch
100
AcDbLine
 10
59.675
 20
-7.7875
 30
0
 11
59.675
 21
-20.7875
 31
0
  0
ARC
  5
A20
330
A02
100
AcDbEntity
  8
Sketch
100
AcDbCircle
 10
79.225
 20
-7.7875
 30
0
 40
0.5
100
AcDbArc
 50
90
 51
180
  0
LINE
  5
A21
330
A02
100
AcDbEntity
  8
Sketch
100
AcDbLine
 10
79.225
 20
-7.2875
 30
0
 11
92.225
 21
-7.2875
 31
0
  0
ARC
  5
A22
330
A02
100
AcDbEntity
  8
Sketch
100
AcDbCircle
 10
92.225
 20
-7.7875
 30
0
 40
0.5
100
AcDbArc
 50
0
 51
90
  0
LINE
  5
A23
330
A02
100
AcDbEntity
  8
Sketch
100
AcDbLine
 10
92.725
 20
-7.7875
 30
0
 11
92.725
 21
-20.7875
 31
0
  0
ARC
  5
A24
330
A02
100
AcDbEntity
  8
Sketch
100
AcDbCircle
 10
92.225
 20
-20.7875
 30
0
 40
0.5
100
AcDbArc
 50
-90
 51
0
  0
LINE
  5
A25
330
A02
100
AcDbEntity
  8
Sketch
100
AcDbLine
 10
79.225
 20
-21.2875
 30
0
 11
92.225
 21
-21.2875
 31
0
  0
ARC
  5
A26
330
A02
100
AcDbEntity
  8
Sketch
100
AcDbCircle
 10
79.225
 20
-20.7875
 30
0
 40
0.5
100
AcDbArc
 50
180
 51
-90
  0
LINE
  5
A27
330
A02
100
AcDbEntity
  8
Sketch
100
AcDbLine
 10
78.725
 20
-7.7875
 30
0
 11
78.725
 21
-20.7875
 31
0
  0
ARC
  5
A28
330
A02
100
AcDbEntity
  8
Sketch
100
AcDbCircle
 10
98.275
 20
-7.7875
 30
0
 40
0.5
100
AcDbArc
 50
90
 51
180
  0
LINE
  5
A29
330
A02
100
AcDbEntity
  8
Sketch
100
AcDbLine
 10
98.275
 20
-7.2875
 30
0
 11
111.275
 21
-7.2875
 31
0
  0
ARC
  5
A2A
330
A02
100
AcDbEntity
  8
Sketch
100
AcDbCircle
 10
111.275
 20
-7.7875
 30
0
 40
0.5
100
AcDbArc
 50
0
 51
90
  0
LINE
  5
A2B
330
A02
100
AcDbEntity
  8
Sketch
100
AcDbLine
 10
111.775
 20
-7.7875
 30
0
 11
111.775
 21
-20.7875
 31
0
  0
ARC
  5
A2C
330
A02
100
AcDbEntity
  8
Sketch
100
AcDbCircle
 10
111.275
 20
-20.7875
 30
0
 40
0.5
100
AcDbArc
 50
-90
 51
0
  0
LINE
  5
A2D
330
A02
100
AcDbEntity
  8
Sketch
100
AcDbLine
 10
98.275
 20
-21.2875
 30
0
 11
111.275
 21
-21.2875
 31
0
  0
ARC
  5
A2E
330
A02
100
AcDbEntity
  8
Sketch
100
AcDbCircle
 10
98.275
 20
-20.7875
 30
0
 40
0.5
100
AcDbArc
 50
180
 51
-90
  0
LINE
  5
A2F
330
A02
100
AcDbEntity
  8
Sketch
100
AcDbLine
 10
97.775
 20
-7.7875
 30
0
 11
97.775
 21
-20.7875
 31
0
  0
ARC
  5
A30
330
A02
100
AcDbEntity
  8
Sketch
100
AcDbCircle
 10
126.85
 20
-7.7875
 30
0
 40
0.5
100
AcDbArc
 50
90
 51
180
  0
LINE
  5
A31
330
A02
100
AcDbEntity
  8
Sketch
100
AcDbLine
 10
126.85
 20
-7.2875
 30
0
 11
139.85
 21
-7.2875
 31
0
  0
ARC
  5
A32
330
A02
100
AcDbEntity
  8
Sketch
100
AcDbCircle
 10
139.85
 20
-7.7875
 30
0
 40
0.5
100
AcDbArc
 50
0
 51
90
  0
LINE
  5
A33
330
A02
100
AcDbEntity
  8
Sketch
100
AcDbLine
 10
140.35
 20
-7.7875
 30
0
 11
140.35
 21
-20.7875
 31
0
  0
ARC
  5
A34
330
A02
100
AcDbEntity
  8
Sketch
100
AcDbCircle
 10
139.85
 20
-20.7875
 30
0
 40
0.5
100
AcDbArc
 50
-90
 51
0
  0
LINE
  5
A35
330
A02
100
AcDbEntity
  8
Sketch
100
AcDbLine
 10
126.85
 20
-21.2875
 30
0
 11
139.85
 21
-21.2875
 31
0
  0
ARC
  5
A36
330
A02
100
AcDbEntity
  8
Sketch
100
AcDbCircle
 10
126.85
 20
-20.7875
 30
0
 40
0.5
100
AcDbArc
 50
180
 51
-90
  0
LINE
  5
A37
330
A02
100
AcDbEntity
  8
Sketch
100
AcDbLine
 10
126.35
 20
-7.7875
 30
0
 11
126.35
 21
-20.7875
 31
0
  0
ARC
  5
A38
330
A02
100
AcDbEntity
  8
Sketch
100
AcDbCircle
 10
145.9
 20
-7.7875
 30
0
 40
0.5
100
AcDbArc
 50
90
 51
180
  0
LINE
  5
A39
330
A02
100
AcDbEntity
  8
Sketch
100
AcDbLine
 10
145.9
 20
-7.2875
 30
0
 11
158.9
 21
-7.2875
 31
0
  0
ARC
  5
A3A
330
A02
100
AcDbEntity
  8
Sketch
100
AcDbCircle
 10
158.9
 20
-7.7875
 30
0
 40
0.5
100
AcDbArc
 50
0
 51
90
  0
LINE
  5
A3B
330
A02
100
AcDbEntity
  8
Sketch
100
AcDbLine
 10
159.4
 20
-7.7875
 30
0
 11
159.4
 21
-20.7875
 31
0
  0
ARC
  5
A3C
330
A02
100
AcDbEntity
  8
Sketch
100
AcDbCircle
 10
158.9
 20
-20.7875
 30
0
 40
0.5
100
AcDbArc
 50
-90
 51
0
  0
LINE
  5
A3D
330
A02
100
AcDbEntity
  8
Sketch
100
AcDbLine
 10
145.9
 20
-21.2875
 30
0
 11
158.9
 21
-21.2875
 31
0
  0
ARC
  5
A3E
330
A02
100
AcDbEntity
  8
Sketch
100
AcDbCircle
 10
145.9
 20
-20.7875
 30
0
 40
0.5
100
AcDbArc
 50
180
 51
-90
  0
LINE
  5
A3F
330
A02
100
AcDbEntity
  8
Sketch
100
AcDbLine
 10
145.4
 20
-7.7875
 30
0
 11
145.4
 21
-20.7875
 31
0
  0
ARC
  5
A40
330
A02
100
AcDbEntity
  8
Sketch
100
AcDbCircle
 10
164.95
 20
-7.7875
 30
0
 40
0.5
100
AcDbArc
 50
90
 51
180
  0
LINE
  5
A41
330
A02
100
AcDbEntity
  8
Sketch
100
AcDbLine
 10
164.95
 20
-7.2875
 30
0
 11
177.95
 21
-7.2875
 31
0
  0
ARC
  5
A42
330
A02
100
AcDbEntity
  8
Sketch
100
AcDbCircle
 10
177.95
 20
-7.7875
 30
0
 40
0.5
100
AcDbArc
 50
0
 51
90
  0
LINE
  5
A43
330
A02
100
AcDbEntity
  8
Sketch
100
AcDbLine
 10
178.45
 20
-7.7875
 30
0
 11
178.45
 21
-20.7875
 31
0
  0
ARC
  5
A44
330
A02
100
AcDbEntity
  8
Sketch
100
AcDbCircle
 10
177.95
 20
-20.7875
 30
0
 40
0.5
100
AcDbArc
 50
-90
 51
0
  0
LINE
  5
A45
330
A02
100
AcDbEntity
  8
Sketch
100
AcDbLine
 10
164.95
 20
-21.2875
 30
0
 11
177.95
 21
-21.2875
 31
0
  0
ARC
  5
A46
330
A02
100
AcDbEntity
  8
Sketch
100
AcDbCircle
 10
164.95
 20
-20.7875
 30
0
 40
0.5
100
AcDbArc
 50
180
 51
-90
  0
LINE
  5
A47
330
A02
100
AcDbEntity
  8
Sketch
100
AcDbLine
 10
164.45
 20
-7.7875
 30
0
 11
164.45
 21
-20.7875
 31
0
  0
ARC
  5
A48
330
A02
100
AcDbEntity
  8
Sketch
100
AcDbCircle
 10
184
 20
-7.7875
 30
0
 40
0.5
100
AcDbArc
 50
90
 51
180
  0
LINE
  5
A49
330
A02
100
AcDbEntity
  8
Sketch
100
AcDbLine
 10
184
 20
-7.2875
 30
0
 11
197
 21
-7.2875
 31
0
  0
ARC
  5
A4A
330
A02
100
AcDbEntity
  8
Sketch
100
AcDbCircle
 10
197
 20
-7.7875
 30
0
 40
0.5
100
AcDbArc
 50
0
 51
90
  0
LINE
  5
A4B
330
A02
100
AcDbEntity
  8
Sketch
100
AcDbLine
 10
197.5
 20
-7.7875
 30
0
 11
197.5
 21
-20.7875
 31
0
  0
ARC
  5
A4C
330
A02
100
AcDbEntity
  8
Sketch
100
AcDbCircle
 10
197
 20
-20.7875
 30
0
 40
0.5
100
AcDbArc
 50
-90
 51
0
  0
LINE
  5
A4D
330
A02
100
AcDbEntity
  8
Sketch
100
AcDbLine
 10
184
 20
-21.2875
 30
0
 11
197
 21
-21.2875
 31
0
  0
ARC
  5
A4E
330
A02
100
AcDbEntity
  8
Sketch
100
AcDbCircle
 10
184
 20
-20.7875
 30
0
 40
0.5
100
AcDbArc
 50
180
 51
-90
  0
LINE
  5
A4F
330
A02
100
AcDbEntity
  8
Sketch
100
AcDbLine
 10
183.5
 20
-7.7875
 30
0
 11
183.5
 21
-20.7875
 31
0
  0
ARC
  5
A50
330
A02
100
AcDbEntity
  8
Sketch
100
AcDbCircle
 10
212.575
 20
-7.7875
 30
0
 40
0.5
100
AcDbArc
 50
90
 51
180
  0
LINE
  5
A51
330
A02
100
AcDbEntity
  8
Sketch
100
AcDbLine
 10
212.575
 20
-7.2875
 30
0
 11
225.575
 21
-7.2875
 31
0
  0
ARC
  5
A52
330
A02
100
AcDbEntity
  8
Sketch
100
AcDbCircle
 10
225.575
 20
-7.7875
 30
0
 40
0.5
100
AcDbArc
 50
0
 51
90
  0
LINE
  5
A53
330
A02
100
AcDbEntity
  8
Sketch
100
AcDbLine
 10
226.075
 20
-7.7875
 30
0
 11
226.075
 21
-20.7875
 31
0
  0
ARC
  5
A54
330
A02
100
AcDbEntity
  8
Sketch
100
AcDbCircle
 10
225.575
 20
-20.7875
 30
0
 40
0.5
100
AcDbArc
 50
-90
 51
0
  0
LINE
  5
A55
330
A02
100
AcDbEntity
  8
Sketch
100
AcDbLine
 10
212.575
 20
-21.2875
 30
0
 11
225.575
 21
-21.2875
 31
0
  0
ARC
  5
A56
330
A02
100
AcDbEntity
  8
Sketch
100
AcDbCircle
 10
212.575
 20
-20.7875
 30
0
 40
0.5
100
AcDbArc
 50
180
 51
-90
  0
LINE
  5
A57
330
A02
100
AcDbEntity
  8
Sketch
100
AcDbLine
 10
212.075
 20
-7.7875
 30
0
 11
212.075
 21
-20.7875
 31
0
  0
ARC
  5
A58
330
A02
100
AcDbEntity
  8
Sketch
100
AcDbCircle
 10
231.625
 20
-7.7875
 30
0
 40
0.5
100
AcDbArc
 50
90
 51
180
  0
LINE
  5
A59
330
A02
100
AcDbEntity
  8
Sketch
100
AcDbLine
 10
231.625
 20
-7.2875
 30
0
 11
244.625
 21
-7.2875
 31
0
  0
ARC
  5
A5A
330
A02
100
AcDbEntity
  8
Sketch
100
AcDbCircle
 10
244.625
 20
-7.7875
 30
0
 40
0.5
100
AcDbArc
 50
0
 51
90
  0
LINE
  5
A5B
330
A02
100
AcDbEntity
  8
Sketch
100
AcDbLine
 10
245.125
 20
-7.7875
 30
0
 11
245.125
 21
-20.7875
 31
0
  0
ARC
  5
A5C
330
A02
100
AcDbEntity
  8
Sketch
100
AcDbCircle
 10
244.625
 20
-20.7875
 30
0
 40
0.5
100
AcDbArc
 50
-90
 51
0
  0
LINE
  5
A5D
330
A02
100
AcDbEntity
  8
Sketch
100
AcDbLine
 10
231.625
 20
-21.2875
 30
0
 11
244.625
 21
-21.2875
 31
0
  0
ARC
  5
A5E
330
A02
100
AcDbEntity
  8
Sketch
100
AcDbCircle
 10
231.625
 20
-20.7875
 30
0
 40
0.5
100
AcDbArc
 50
180
 51
-90
  0
LINE
  5
A5F
330
A02
100
AcDbEntity
  8
Sketch
100
AcDbLine
 10
231.125
 20
-7.7875
 30
0
 11
231.125
 21
-20.7875
 31
0
  0
ARC
  5
A60
330
A02
100
AcDbEntity
  8
Sketch
100
AcDbCircle
 10
250.675
 20
-7.7875
 30
0
 40
0.5
100
AcDbArc
 50
90
 51
180
  0
LINE
  5
A61
330
A02
100
AcDbEntity
  8
Sketch
100
AcDbLine
 10
250.675
 20
-7.2875
 30
0
 11
263.675
 21
-7.2875
 31
0
  0
ARC
  5
A62
330
A02
100
AcDbEntity
  8
Sketch
100
AcDbCircle
 10
263.675
 20
-7.7875
 30
0
 40
0.5
100
AcDbArc
 50
0
 51
90
  0
LINE
  5
A63
330
A02
100
AcDbEntity
  8
Sketch
100
AcDbLine
 10
264.175
 20
-7.7875
 30
0
 11
264.175
 21
-20.7875
 31
0
  0
ARC
  5
A64
330
A02
100
AcDbEntity
  8
Sketch
100
AcDbCircle
 10
263.675
 20
-20.7875
 30
0
 40
0.5
100
AcDbArc
 50
-90
 51
0
  0
LINE
  5
A65
330
A02
100
AcDbEntity
  8
Sketch
100
AcDbLine
 10
250.675
 20
-21.2875
 30
0
 11
263.675
 21
-21.2875
 31
0
  0
ARC
  5
A66
330
A02
100
AcDbEntity
  8
Sketch
100
AcDbCircle
 10
250.675
 20
-20.7875
 30
0
 40
0.5
100
AcDbArc
 50
180
 51
-90
  0
LINE
  5
A67
330
A02
100
AcDbEntity
  8
Sketch
100
AcDbLine
 10
250.175
 20
-7.7875
 30
0
 11
250.175
 21
-20.7875
 31
0
  0
ARC
  5
A68
330
A02
100
AcDbEntity
  8
Sketch
100
AcDbCircle
 10
269.725
 20
-7.7875
 30
0
 40
0.5
100
AcDbArc
 50
90
 51
180
  0
LINE
  5
A69
330
A02
100
AcDbEntity
  8
Sketch
100
AcDbLine
 10
269.725
 20
-7.2875
 30
0
 11
282.725
 21
-7.2875
 31
0
  0
ARC
  5
A6A
330
A02
100
AcDbEntity
  8
Sketch
100
AcDbCircle
 10
282.725
 20
-7.7875
 30
0
 40
0.5
100
AcDbArc
 50
0
 51
90
  0
LINE
  5
A6B
330
A02
100
AcDbEntity
  8
Sketch
100
AcDbLine
 10
283.225
 20
-7.7875
 30
0
 11
283.225
 21
-20.7875
 31
0
  0
ARC
  5
A6C
330
A02
100
AcDbEntity
  8
Sketch
100
AcDbCircle
 10
282.725
 20
-20.7875
 30
0
 40
0.5
100
AcDbArc
 50
-90
 51
0
  0
LINE
  5
A6D
330
A02
100
AcDbEntity
  8
Sketch
100
AcDbLine
 10
269.725
 20
-21.2875
 30
0
 11
282.725
 21
-21.2875
 31
0
  0
ARC
  5
A6E
330
A02
100
AcDbEntity
  8
Sketch
100
AcDbCircle
 10
269.725
 20
-20.7875
 30
0
 40
0.5
100
AcDbArc
 50
180
 51
-90
  0
LINE
  5
A6F
330
A02
100
AcDbEntity
  8
Sketch
100
AcDbLine
 10
269.225
 20
-7.7875
 30
0
 11
269.225
 21
-20.7875
 31
0
  0
ARC
  5
A70
330
A02
100
AcDbEntity
  8
Sketch
100
AcDbCircle
 10
3.025
 20
-31.6
 30
0
 40
0.5
100
AcDbArc
 50
90
 51
180
  0
LINE
  5
A71
330
A02
100
AcDbEntity
  8
Sketch
100
AcDbLine
 10
3.025
 20
-31.1
 30
0
 11
16.025
 21
-31.1
 31
0
  0
ARC
  5
A72
330
A02
100
AcDbEntity
  8
Sketch
100
AcDbCircle
 10
16.025
 20
-31.6
 30
0
 40
0.5
100
AcDbArc
 50
0
 51
90
  0
LINE
  5
A73
330
A02
100
AcDbEntity
  8
Sketch
100
AcDbLine
 10
16.525
 20
-31.6
 30
0
 11
16.525
 21
-44.6
 31
0
  0
ARC
  5
A74
330
A02
100
AcDbEntity
  8
Sketch
100
AcDbCircle
 10
16.025
 20
-44.6
 30
0
 40
0.5
100
AcDbArc
 50
-90
 51
0
  0
LINE
  5
A75
330
A02
100
AcDbEntity
  8
Sketch
100
AcDbLine
 10
3.025
 20
-45.1
 30
0
 11
16.025
 21
-45.1
 31
0
  0
ARC
  5
A76
330
A02
100
AcDbEntity
  8
Sketch
100
AcDbCircle
 10
3.025
 20
-44.6
 30
0
 40
0.5
100
AcDbArc
 50
180
 51
-90
  0
LINE
  5
A77
330
A02
100
AcDbEntity
  8
Sketch
100
AcDbLine
 10
2.525
 20
-31.6
 30
0
 11
2.525
 21
-44.6
 31
0
  0
ARC
  5
A78
330
A02
100
AcDbEntity
  8
Sketch
100
AcDbCircle
 10
22.075
 20
-31.6
 30
0
 40
0.5
100
AcDbArc
 50
90
 51
180
  0
LINE
  5
A79
330
A02
100
AcDbEntity
  8
Sketch
100
AcDbLine
 10
22.075
 20
-31.1
 30
0
 11
35.075
 21
-31.1
 31
0
  0
ARC
  5
A7A
330
A02
100
AcDbEntity
  8
Sketch
100
AcDbCircle
 10
35.075
 20
-31.6
 30
0
 40
0.5
100
AcDbArc
 50
0
 51
90
  0
LINE
  5
A7B
330
A02
100
AcDbEntity
  8
Sketch
100
AcDbLine
 10
35.575
 20
-31.6
 30
0
 11
35.575
 21
-44.6
 31
0
  0
ARC
  5
A7C
330
A02
100
AcDbEntity
  8
Sketch
100
AcDbCircle
 10
35.075
 20
-44.6
 30
0
 40
0.5
100
AcDbArc
 50
-90
 51
0
  0
LINE
  5
A7D
330
A02
100
AcDbEntity
  8
Sketch
100
AcDbLine
 10
22.075
 20
-45.1
 30
0
 11
35.075
 21
-45.1
 31
0
  0
ARC
  5
A7E
330
A02
100
AcDbEntity
  8
Sketch
100
AcDbCircle
 10
22.075
 20
-44.6
 30
0
 40
0.5
100
AcDbArc
 50
180
 51
-90
  0
LINE
  5
A7F
330
A02
100
AcDbEntity
  8
Sketch
100
AcDbLine
 10
21.575
 20
-31.6
 30
0
 11
21.575
 21
-44.6
 31
0
  0
ARC
  5
A80
330
A02
100
AcDbEntity
  8
Sketch
100
AcDbCircle
 10
41.125
 20
-31.6
 30
0
 40
0.5
100
AcDbArc
 50
90
 51
180
  0
LINE
  5
A81
330
A02
100
AcDbEntity
  8
Sketch
100
AcDbLine
 10
41.125
 20
-31.1
 30
0
 11
54.125
 21
-31.1
 31
0
  0
ARC
  5
A82
330
A02
100
AcDbEntity
  8
Sketch
100
AcDbCircle
 10
54.125
 20
-31.6
 30
0
 40
0.5
100
AcDbArc
 50
0
 51
90
  0
LINE
  5
A83
330
A02
100
AcDbEntity
  8
Sketch
100
AcDbLine
 10
54.625
 20
-31.6
 30
0
 11
54.625
 21
-44.6
 31
0
  0
ARC
  5
A84
330
A02
100
AcDbEntity
  8
Sketch
100
AcDbCircle
 10
54.125
 20
-44.6
 30
0
 40
0.5
100
AcDbArc
 50
-90
 51
0
  0
LINE
  5
A85
330
A02
100
AcDbEntity
  8
Sketch
100
AcDbLine
 10
41.125
 20
-45.1
 30
0
 11
54.125
 21
-45.1
 31
0
  0
ARC
  5
A86
330
A02
100
AcDbEntity
  8
Sketch
100
AcDbCircle
 10
41.125
 20
-44.6
 30
0
 40
0.5
100
AcDbArc
 50
180
 51
-90
  0
LINE
  5
A87
330
A02
100
AcDbEntity
  8
Sketch
100
AcDbLine
 10
40.625
 20
-31.6
 30
0
 11
40.625
 21
-44.6
 31
0
  0
ARC
  5
A88
330
A02
100
AcDbEntity
  8
Sketch
100
AcDbCircle
 10
60.175
 20
-31.6
 30
0
 40
0.5
100
AcDbArc
 50
90
 51
180
  0
LINE
  5
A89
330
A02
100
AcDbEntity
  8
Sketch
100
AcDbLine
 10
60.175
 20
-31.1
 30
0
 11
73.175
 21
-31.1
 31
0
  0
ARC
  5
A8A
330
A02
100
AcDbEntity
  8
Sketch
100
AcDbCircle
 10
73.175
 20
-31.6
 30
0
 40
0.5
100
AcDbArc
 50
0
 51
90
  0
LINE
  5
A8B
330
A02
100
AcDbEntity
  8
Sketch
100
AcDbLine
 10
73.675
 20
-31.6
 30
0
 11
73.675
 21
-44.6
 31
0
  0
ARC
  5
A8C
330
A02
100
AcDbEntity
  8
Sketch
100
AcDbCircle
 10
73.175
 20
-44.6
 30
0
 40
0.5
100
AcDbArc
 50
-90
 51
0
  0
LINE
  5
A8D
330
A02
100
AcDbEntity
  8
Sketch
100
AcDbLine
 10
60.175
 20
-45.1
 30
0
 11
73.175
 21
-45.1
 31
0
  0
ARC
  5
A8E
330
A02
100
AcDbEntity
  8
Sketch
100
AcDbCircle
 10
60.175
 20
-44.6
 30
0
 40
0.5
100
AcDbArc
 50
180
 51
-90
  0
LINE
  5
A8F
330
A02
100
AcDbEntity
  8
Sketch
100
AcDbLine
 10
59.675
 20
-31.6
 30
0
 11
59.675
 21
-44.6
 31
0
  0
ARC
  5
A90
330
A02
100
AcDbEntity
  8
Sketch
100
AcDbCircle
 10
79.225
 20
-31.6
 30
0
 40
0.5
100
AcDbArc
 50
90
 51
180
  0
LINE
  5
A91
330
A02
100
AcDbEntity
  8
Sketch
100
AcDbLine
 10
79.225
 20
-31.1
 30
0
 11
92.225
 21
-31.1
 31
0
  0
ARC
  5
A92
330
A02
100
AcDbEntity
  8
Sketch
100
AcDbCircle
 10
92.225
 20
-31.6
 30
0
 40
0.5
100
AcDbArc
 50
0
 51
90
  0
LINE
  5
A93
330
A02
100
AcDbEntity
  8
Sketch
100
AcDbLine
 10
92.725
 20
-31.6
 30
0
 11
92.725
 21
-44.6
 31
0
  0
ARC
  5
A94
330
A02
100
AcDbEntity
  8
Sketch
100
AcDbCircle
 10
92.225
 20
-44.6
 30
0
 40
0.5
100
AcDbArc
 50
-90
 51
0
  0
LINE
  5
A95
330
A02
100
AcDbEntity
  8
Sketch
100
AcDbLine
 10
79.225
 20
-45.1
 30
0
 11
92.225
 21
-45.1
 31
0
  0
ARC
  5
A96
330
A02
100
AcDbEntity
  8
Sketch
100
AcDbCircle
 10
79.225
 20
-44.6
 30
0
 40
0.5
100
AcDbArc
 50
180
 51
-90
  0
LINE
  5
A97
330
A02
100
AcDbEntity
  8
Sketch
100
AcDbLine
 10
78.725
 20
-31.6
 30
0
 11
78.725
 21
-44.6
 31
0
  0
ARC
  5
A98
330
A02
100
AcDbEntity
  8
Sketch
100
AcDbCircle
 10
98.275
 20
-31.6
 30
0
 40
0.5
100
AcDbArc
 50
90
 51
180
  0
LINE
  5
A99
330
A02
100
AcDbEntity
  8
Sketch
100
AcDbLine
 10
98.275
 20
-31.1
 30
0
 11
111.275
 21
-31.1
 31
0
  0
ARC
  5
A9A
330
A02
100
AcDbEntity
  8
Sketch
100
AcDbCircle
 10
111.275
 20
-31.6
 30
0
 40
0.5
100
AcDbArc
 50
0
 51
90
  0
LINE
  5
A9B
330
A02
100
AcDbEntity
  8
Sketch
100
AcDbLine
 10
111.775
 20
-31.6
 30
0
 11
111.775
 21
-44.6
 31
0
  0
ARC
  5
A9C
330
A02
100
AcDbEntity
  8
Sketch
100
AcDbCircle
 10
111.275
 20
-44.6
 30
0
 40
0.5
100
AcDbArc
 50
-90
 51
0
  0
LINE
  5
A9D
330
A02
100
AcDbEntity
  8
Sketch
100
AcDbLine
 10
98.275
 20
-45.1
 30
0
 11
111.275
 21
-45.1
 31
0
  0
ARC
  5
A9E
330
A02
100
AcDbEntity
  8
Sketch
100
AcDbCircle
 10
98.275
 20
-44.6
 30
0
 40
0.5
100
AcDbArc
 50
180
 51
-90
  0
LINE
  5
A9F
330
A02
100
AcDbEntity
  8
Sketch
100
AcDbLine
 10
97.775
 20
-31.6
 30
0
 11
97.775
 21
-44.6
 31
0
  0
ARC
  5
AA0
330
A02
100
AcDbEntity
  8
Sketch
100
AcDbCircle
 10
117.325
 20
-31.6
 30
0
 40
0.5
100
AcDbArc
 50
90
 51
180
  0
LINE
  5
AA1
330
A02
100
AcDbEntity
  8
Sketch
100
AcDbLine
 10
117.325
 20
-31.1
 30
0
 11
130.325
 21
-31.1
 31
0
  0
ARC
  5
AA2
330
A02
100
AcDbEntity
  8
Sketch
100
AcDbCircle
 10
130.325
 20
-31.6
 30
0
 40
0.5
100
AcDbArc
 50
0
 51
90
  0
LINE
  5
AA3
330
A02
100
AcDbEntity
  8
Sketch
100
AcDbLine
 10
130.825
 20
-31.6
 30
0
 11
130.825
 21
-44.6
 31
0
  0
ARC
  5
AA4
330
A02
100
AcDbEntity
  8
Sketch
100
AcDbCircle
 10
130.325
 20
-44.6
 30
0
 40
0.5
100
AcDbArc
 50
-90
 51
0
  0
LINE
  5
AA5
330
A02
100
AcDbEntity
  8
Sketch
100
AcDbLine
 10
117.325
 20
-45.1
 30
0
 11
130.325
 21
-45.1
 31
0
  0
ARC
  5
AA6
330
A02
100
AcDbEntity
  8
Sketch
100
AcDbCircle
 10
117.325
 20
-44.6
 30
0
 40
0.5
100
AcDbArc
 50
180
 51
-90
  0
LINE
  5
AA7
330
A02
100
AcDbEntity
  8
Sketch
100
AcDbLine
 10
116.825
 20
-31.6
 30
0
 11
116.825
 21
-44.6
 31
0
  0
ARC
  5
AA8
330
A02
100
AcDbEntity
  8
Sketch
100
AcDbCircle
 10
136.375
 20
-31.6
 30
0
 40
0.5
100
AcDbArc
 50
90
 51
180
  0
LINE
  5
AA9
330
A02
100
AcDbEntity
  8
Sketch
100
AcDbLine
 10
136.375
 20
-31.1
 30
0
 11
149.375
 21
-31.1
 31
0
  0
ARC
  5
AAA
330
A02
100
AcDbEntity
  8
Sketch
100
AcDbCircle
 10
149.375
 20
-31.6
 30
0
 40
0.5
100
AcDbArc
 50
0
 51
90
  0
LINE
  5
AAB
330
A02
100
AcDbEntity
  8
Sketch
100
AcDbLine
 10
149.875
 20
-31.6
 30
0
 11
149.875
 21
-44.6
 31
0
  0
ARC
  5
AAC
330
A02
100
AcDbEntity
  8
Sketch
100
AcDbCircle
 10
149.375
 20
-44.6
 30
0
 40
0.5
100
AcDbArc
 50
-90
 51
0
  0
LINE
  5
AAD
330
A02
100
AcDbEntity
  8
Sketch
100
AcDbLine
 10
136.375
 20
-45.1
 30
0
 11
149.375
 21
-45.1
 31
0
  0
ARC
  5
AAE
330
A02
100
AcDbEntity
  8
Sketch
100
AcDbCircle
 10
136.375
 20
-44.6
 30
0
 40
0.5
100
AcDbArc
 50
180
 51
-90
  0
LINE
  5
AAF
330
A02
100
AcDbEntity
  8
Sketch
100
AcDbLine
 10
135.875
 20
-31.6
 30
0
 11
135.875
 21
-44.6
 31
0
  0
ARC
  5
AB0
330
A02
100
AcDbEntity
  8
Sketch
100
AcDbCircle
 10
155.425
 20
-31.6
 30
0
 40
0.5
100
AcDbArc
 50
90
 51
180
  0
LINE
  5
AB1
330
A02
100
AcDbEntity
  8
Sketch
100
AcDbLine
 10
155.425
 20
-31.1
 30
0
 11
168.425
 21
-31.1
 31
0
  0
ARC
  5
AB2
330
A02
100
AcDbEntity
  8
Sketch
100
AcDbCircle
 10
168.425
 20
-31.6
 30
0
 40
0.5
100
AcDbArc
 50
0
 51
90
  0
LINE
  5
AB3
330
A02
100
AcDbEntity
  8
Sketch
100
AcDbLine
 10
168.925
 20
-31.6
 30
0
 11
168.925
 21
-44.6
 31
0
  0
ARC
  5
AB4
330
A02
100
AcDbEntity
  8
Sketch
100
AcDbCircle
 10
168.425
 20
-44.6
 30
0
 40
0.5
100
AcDbArc
 50
-90
 51
0
  0
LINE
  5
AB5
330
A02
100
AcDbEntity
  8
Sketch
100
AcDbLine
 10
155.425
 20
-45.1
 30
0
 11
168.425
 21
-45.1
 31
0
  0
ARC
  5
AB6
330
A02
100
AcDbEntity
  8
Sketch
100
AcDbCircle
 10
155.425
 20
-44.6
 30
0
 40
0.5
100
AcDbArc
 50
180
 51
-90
  0
LINE
  5
AB7
330
A02
100
AcDbEntity
  8
Sketch
100
AcDbLine
 10
154.925
 20
-31.6
 30
0
 11
154.925
 21
-44.6
 31
0
  0
ARC
  5
AB8
330
A02
100
AcDbEntity
  8
Sketch
100
AcDbCircle
 10
174.475
 20
-31.6
 30
0
 40
0.5
100
AcDbArc
 50
90
 51
180
  0
LINE
  5
AB9
330
A02
100
AcDbEntity
  8
Sketch
100
AcDbLine
 10
174.475
 20
-31.1
 30
0
 11
187.475
 21
-31.1
 31
0
  0
ARC
  5
ABA
330
A02
100
AcDbEntity
  8
Sketch
100
AcDbCircle
 10
187.475
 20
-31.6
 30
0
 40
0.5
100
AcDbArc
 50
0
 51
90
  0
LINE
  5
ABB
330
A02
100
AcDbEntity
  8
Sketch
100
AcDbLine
 10
187.975
 20
-31.6
 30
0
 11
187.975
 21
-44.6
 31
0
  0
ARC
  5
ABC
330
A02
100
AcDbEntity
  8
Sketch
100
AcDbCircle
 10
187.475
 20
-44.6
 30
0
 40
0.5
100
AcDbArc
 50
-90
 51
0
  0
LINE
  5
ABD
330
A02
100
AcDbEntity
  8
Sketch
100
AcDbLine
 10
174.475
 20
-45.1
 30
0
 11
187.475
 21
-45.1
 31
0
  0
ARC
  5
ABE
330
A02
100
AcDbEntity
  8
Sketch
100
AcDbCircle
 10
174.475
 20
-44.6
 30
0
 40
0.5
100
AcDbArc
 50
180
 51
-90
  0
LINE
  5
ABF
330
A02
100
AcDbEntity
  8
Sketch
100
AcDbLine
 10
173.975
 20
-31.6
 30
0
 11
173.975
 21
-44.6
 31
0
  0
ARC
  5
AC0
330
A02
100
AcDbEntity
  8
Sketch
100
AcDbCircle
 10
193.525
 20
-31.6
 30
0
 40
0.5
100
AcDbArc
 50
90
 51
180
  0
LINE
  5
AC1
330
A02
100
AcDbEntity
  8
Sketch
100
AcDbLine
 10
193.525
 20
-31.1
 30
0
 11
206.525
 21
-31.1
 31
0
  0
ARC
  5
AC2
330
A02
100
AcDbEntity
  8
Sketch
100
AcDbCircle
 10
206.525
 20
-31.6
 30
0
 40
0.5
100
AcDbArc
 50
0
 51
90
  0
LINE
  5
AC3
330
A02
100
AcDbEntity
  8
Sketch
100
AcDbLine
 10
207.025
 20
-31.6
 30
0
 11
207.025
 21
-44.6
 31
0
  0
ARC
  5
AC4
330
A02
100
AcDbEntity
  8
Sketch
100
AcDbCircle
 10
206.525
 20
-44.6
 30
0
 40
0.5
100
AcDbArc
 50
-90
 51
0
  0
LINE
  5
AC5
330
A02
100
AcDbEntity
  8
Sketch
100
AcDbLine
 10
193.525
 20
-45.1
 30
0
 11
206.525
 21
-45.1
 31
0
  0
ARC
  5
AC6
330
A02
100
AcDbEntity
  8
Sketch
100
AcDbCircle
 10
193.525
 20
-44.6
 30
0
 40
0.5
100
AcDbArc
 50
180
 51
-90
  0
LINE
  5
AC7
330
A02
100
AcDbEntity
  8
Sketch
100
AcDbLine
 10
193.025
 20
-31.6
 30
0
 11
193.025
 21
-44.6
 31
0
  0
ARC
  5
AC8
330
A02
100
AcDbEntity
  8
Sketch
100
AcDbCircle
 10
212.575
 20
-31.6
 30
0
 40
0.5
100
AcDbArc
 50
90
 51
180
  0
LINE
  5
AC9
330
A02
100
AcDbEntity
  8
Sketch
100
AcDbLine
 10
212.575
 20
-31.1
 30
0
 11
225.575
 21
-31.1
 31
0
  0
ARC
  5
ACA
330
A02
100
AcDbEntity
  8
Sketch
100
AcDbCircle
 10
225.575
 20
-31.6
 30
0
 40
0.5
100
AcDbArc
 50
0
 51
90
  0
LINE
  5
ACB
330
A02
100
AcDbEntity
  8
Sketch
100
AcDbLine
 10
226.075
 20
-31.6
 30
0
 11
226.075
 21
-44.6
 31
0
  0
ARC
  5
ACC
330
A02
100
AcDbEntity
  8
Sketch
100
AcDbCircle
 10
225.575
 20
-44.6
 30
0
 40
0.5
100
AcDbArc
 50
-90
 51
0
  0
LINE
  5
ACD
330
A02
100
AcDbEntity
  8
Sketch
100
AcDbLine
 10
212.575
 20
-45.1
 30
0
 11
225.575
 21
-45.1
 31
0
  0
ARC
  5
ACE
330
A02
100
AcDbEntity
  8
Sketch
100
AcDbCircle
 10
212.575
 20
-44.6
 30
0
 40
0.5
100
AcDbArc
 50
180
 51
-90
  0
LINE
  5
ACF
330
A02
100
AcDbEntity
  8
Sketch
100
AcDbLine
 10
212.075
 20
-31.6
 30
0
 11
212.075
 21
-44.6
 31
0
  0
ARC
  5
AD0
330
A02
100
AcDbEntity
  8
Sketch
100
AcDbCircle
 10
231.625
 20
-31.6
 30
0
 40
0.5
100
AcDbArc
 50
90
 51
180
  0
LINE
  5
AD1
330
A02
100
AcDbEntity
  8
Sketch
100
AcDbLine
 10
231.625
 20
-31.1
 30
0
 11
244.625
 21
-31.1
 31
0
  0
ARC
  5
AD2
330
A02
100
AcDbEntity
  8
Sketch
100
AcDbCircle
 10
244.625
 20
-31.6
 30
0
 40
0.5
100
AcDbArc
 50
0
 51
90
  0
LINE
  5
AD3
330
A02
100
AcDbEntity
  8
Sketch
100
AcDbLine
 10
245.125
 20
-31.6
 30
0
 11
245.125
 21
-44.6
 31
0
  0
ARC
  5
AD4
330
A02
100
AcDbEntity
  8
Sketch
100
AcDbCircle
 10
244.625
 20
-44.6
 30
0
 40
0.5
100
AcDbArc
 50
-90
 51
0
  0
LINE
  5
AD5
330
A02
100
AcDbEntity
  8
Sketch
100
AcDbLine
 10
231.625
 20
-45.1
 30
0
 11
244.625
 21
-45.1
 31
0
  0
ARC
  5
AD6
330
A02
100
AcDbEntity
  8
Sketch
100
AcDbCircle
 10
231.625
 20
-44.6
 30
0
 40
0.5
100
AcDbArc
 50
180
 51
-90
  0
LINE
  5
AD7
330
A02
100
AcDbEntity
  8
Sketch
100
AcDbLine
 10
231.125
 20
-31.6
 30
0
 11
231.125
 21
-44.6
 31
0
  0
ARC
  5
AD8
330
A02
100
AcDbEntity
  8
Sketch
100
AcDbCircle
 10
260.2
 20
-31.6
 30
0
 40
0.5
100
AcDbArc
 50
90
 51
180
  0
LINE
  5
AD9
330
A02
100
AcDbEntity
  8
Sketch
100
AcDbLine
 10
260.2
 20
-31.1
 30
0
 11
273.2
 21
-31.1
 31
0
  0
ARC
  5
ADA
330
A02
100
AcDbEntity
  8
Sketch
100
AcDbCircle
 10
273.2
 20
-31.6
 30
0
 40
0.5
100
AcDbArc
 50
0
 51
90
  0
LINE
  5
ADB
330
A02
100
AcDbEntity
  8
Sketch
100
AcDbLine
 10
273.7
 20
-31.6
 30
0
 11
273.7
 21
-44.6
 31
0
  0
ARC
  5
ADC
330
A02
100
AcDbEntity
  8
Sketch
100
AcDbCircle
 10
273.2
 20
-44.6
 30
0
 40
0.5
100
AcDbArc
 50
-90
 51
0
  0
LINE
  5
ADD
330
A02
100
AcDbEntity
  8
Sketch
100
AcDbLine
 10
260.2
 20
-45.1
 30
0
 11
273.2
 21
-45.1
 31
0
  0
ARC
  5
ADE
330
A02
100
AcDbEntity
  8
Sketch
100
AcDbCircle
 10
260.2
 20
-44.6
 30
0
 40
0.5
100
AcDbArc
 50
180
 51
-90
  0
LINE
  5
ADF
330
A02
100
AcDbEntity
  8
Sketch
100
AcDbLine
 10
259.7
 20
-31.6
 30
0
 11
259.7
 21
-44.6
 31
0
  0
ARC
  5
AE0
330
A02
100
AcDbEntity
  8
Sketch
100
AcDbCircle
 10
251.762
 20
-32.6
 30
0
 40
0.5
100
AcDbArc
 50
90
 51
180
  0
LINE
  5
AE1
330
A02
100
AcDbEntity
  8
Sketch
100
AcDbLine
 10
251.762
 20
-32.1
 30
0
 11
257.762
 21
-32.1
 31
0
  0
ARC
  5
AE2
330
A02
100
AcDbEntity
  8
Sketch
100
AcDbCircle
 10
257.762
 20
-32.6
 30
0
 40
0.5
100
AcDbArc
 50
0
 51
90
  0
LINE
  5
AE3
330
A02
100
AcDbEntity
  8
Sketch
100
AcDbLine
 10
258.262
 20
-32.6
 30
0
 11
258.262
 21
-46.6
 31
0
  0
ARC
  5
AE4
330
A02
100
AcDbEntity
  8
Sketch
100
AcDbCircle
 10
257.762
 20
-46.6
 30
0
 40
0.5
100
AcDbArc
 50
-90
 51
0
  0
LINE
  5
AE5
330
A02
100
AcDbEntity
  8
Sketch
100
AcDbLine
 10
251.762
 20
-47.1
 30
0
 11
257.762
 21
-47.1
 31
0
  0
ARC
  5
AE6
330
A02
100
AcDbEntity
  8
Sketch
100
AcDbCircle
 10
251.762
 20
-46.6
 30
0
 40
0.5
100
AcDbArc
 50
180
 51
-90
  0
LINE
  5
AE7
330
A02
100
AcDbEntity
  8
Sketch
100
AcDbLine
 10
251.262
 20
-32.6
 30
0
 11
251.262
 21
-46.6
 31
0
  0
ARC
  5
AE8
330
A02
100
AcDbEntity
  8
Sketch
100
AcDbCircle
 10
275.638
 20
-32.6
 30
0
 40
0.5
100
AcDbArc
 50
90
 51
180
  0
LINE
  5
AE9
330
A02
100
AcDbEntity
  8
Sketch
100
AcDbLine
 10
275.638
 20
-32.1
 30
0
 11
281.638
 21
-32.1
 31
0
  0
ARC
  5
AEA
330
A02
100
AcDbEntity
  8
Sketch
100
AcDbCircle
 10
281.638
 20
-32.6
 30
0
 40
0.5
100
AcDbArc
 50
0
 51
90
  0
LINE
  5
AEB
330
A02
100
AcDbEntity
  8
Sketch
100
AcDbLine
 10
282.138
 20
-32.6
 30
0
 11
282.138
 21
-46.6
 31
0
  0
ARC
  5
AEC
330
A02
100
AcDbEntity
  8
Sketch
100
AcDbCircle
 10
281.638
 20
-46.6
 30
0
 40
0.5
100
AcDbArc
 50
-90
 51
0
  0
LINE
  5
AED
330
A02
100
AcDbEntity
  8
Sketch
100
AcDbLine
 10
275.638
 20
-47.1
 30
0
 11
281.638
 21
-47.1
 31
0
  0
ARC
  5
AEE
330
A02
100
AcDbEntity
  8
Sketch
100
AcDbCircle
 10
275.638
 20
-46.6
 30
0
 40
0.5
100
AcDbArc
 50
180
 51
-90
  0
LINE
  5
AEF
330
A02
100
AcDbEntity
  8
Sketch
100
AcDbLine
 10
275.138
 20
-32.6
 30
0
 11
275.138
 21
-46.6
 31
0
  0
ARC
  5
AF0
330
A02
100
AcDbEntity
  8
Sketch
100
AcDbCircle
 10
293.538
 20
-31.6
 30
0
 40
0.5
100
AcDbArc
 50
90
 51
180
  0
LINE
  5
AF1
330
A02
100
AcDbEntity
  8
Sketch
100
AcDbLine
 10
293.538
 20
-31.1
 30
0
 11
306.538
 21
-31.1
 31
0
  0
ARC
  5
AF2
330
A02
100
AcDbEntity
  8
Sketch
100
AcDbCircle
 10
306.538
 20
-31.6
 30
0
 40
0.5
100
AcDbArc
 50
0
 51
90
  0
LINE
  5
AF3
330
A02
100
AcDbEntity
  8
Sketch
100
AcDbLine
 10
307.038
 20
-31.6
 30
0
 11
307.038
 21
-44.6
 31
0
  0
ARC
  5
AF4
330
A02
100
AcDbEntity
  8
Sketch
100
AcDbCircle
 10
306.538
 20
-44.6
 30
0
 40
0.5
100
AcDbArc
 50
-90
 51
0
  0
LINE
  5
AF5
330
A02
100
AcDbEntity
  8
Sketch
100
AcDbLine
 10
293.538
 20
-45.1
 30
0
 11
306.538
 21
-45.1
 31
0
  0
ARC
  5
AF6
330
A02
100
AcDbEntity
  8
Sketch
100
AcDbCircle
 10
293.538
 20
-44.6
 30
0
 40
0.5
100
AcDbArc
 50
180
 51
-90
  0
LINE
  5
AF7
330
A02
100
AcDbEntity
  8
Sketch
100
AcDbLine
 10
293.038
 20
-31.6
 30
0
 11
293.038
 21
-44.6
 31
0
  0
ARC
  5
AF8
330
A02
100
AcDbEntity
  8
Sketch
100
AcDbCircle
 10
317.35
 20
-31.6
 30
0
 40
0.5
100
AcDbArc
 50
90
 51
180
  0
LINE
  5
AF9
330
A02
100
AcDbEntity
  8
Sketch
100
AcDbLine
 10
317.35
 20
-31.1
 30
0
 11
330.35
 21
-31.1
 31
0
  0
ARC
  5
AFA
330
A02
100
AcDbEntity
  8
Sketch
100
AcDbCircle
 10
330.35
 20
-31.6
 30
0
 40
0.5
100
AcDbArc
 50
0
 51
90
  0
LINE
  5
AFB
330
A02
100
AcDbEntity
  8
Sketch
100
AcDbLine
 10
330.85
 20
-31.6
 30
0
 11
330.85
 21
-44.6
 31
0
  0
ARC
  5
AFC
330
A02
100
AcDbEntity
  8
Sketch
100
AcDbCircle
 10
330.35
 20
-44.6
 30
0
 40
0.5
100
AcDbArc
 50
-90
 51
0
  0
LINE
  5
AFD
330
A02
100
AcDbEntity
  8
Sketch
100
AcDbLine
 10
317.35
 20
-45.1
 30
0
 11
330.35
 21
-45.1
 31
0
  0
ARC
  5
AFE
330
A02
100
AcDbEntity
  8
Sketch
100
AcDbCircle
 10
317.35
 20
-44.6
 30
0
 40
0.5
100
AcDbArc
 50
180
 51
-90
  0
LINE
  5
AFF
330
A02
100
AcDbEntity
  8
Sketch
100
AcDbLine
 10
316.85
 20
-31.6
 30
0
 11
316.85
 21
-44.6
 31
0
  0
ARC
  5
B00
330
A02
100
AcDbEntity
  8
Sketch
100
AcDbCircle
 10
336.4
 20
-31.6
 30
0
 40
0.5
100
AcDbArc
 50
90
 51
180
  0
LINE
  5
B01
330
A02
100
AcDbEntity
  8
Sketch
100
AcDbLine
 10
336.4
 20
-31.1
 30
0
 11
349.4
 21
-31.1
 31
0
  0
ARC
  5
B02
330
A02
100
AcDbEntity
  8
Sketch
100
AcDbCircle
 10
349.4
 20
-31.6
 30
0
 40
0.5
100
AcDbArc
 50
0
 51
90
  0
LINE
  5
B03
330
A02
100
AcDbEntity
  8
Sketch
100
AcDbLine
 10
349.9
 20
-31.6
 30
0
 11
349.9
 21
-44.6
 31
0
  0
ARC
  5
B04
330
A02
100
AcDbEntity
  8
Sketch
100
AcDbCircle
 10
349.4
 20
-44.6
 30
0
 40
0.5
100
AcDbArc
 50
-90
 51
0
  0
LINE
  5
B05
330
A02
100
AcDbEntity
  8
Sketch
100
AcDbLine
 10
336.4
 20
-45.1
 30
0
 11
349.4
 21
-45.1
 31
0
  0
ARC
  5
B06
330
A02
100
AcDbEntity
  8
Sketch
100
AcDbCircle
 10
336.4
 20
-44.6
 30
0
 40
0.5
100
AcDbArc
 50
180
 51
-90
  0
LINE
  5
B07
330
A02
100
AcDbEntity
  8
Sketch
100
AcDbLine
 10
335.9
 20
-31.6
 30
0
 11
335.9
 21
-44.6
 31
0
  0
ARC
  5
B08
330
A02
100
AcDbEntity
  8
Sketch
100
AcDbCircle
 10
355.45
 20
-31.6
 30
0
 40
0.5
100
AcDbArc
 50
90
 51
180
  0
LINE
  5
B09
330
A02
100
AcDbEntity
  8
Sketch
100
AcDbLine
 10
355.45
 20
-31.1
 30
0
 11
368.45
 21
-31.1
 31
0
  0
ARC
  5
B0A
330
A02
100
AcDbEntity
  8
Sketch
100
AcDbCircle
 10
368.45
 20
-31.6
 30
0
 40
0.5
100
AcDbArc
 50
0
 51
90
  0
LINE
  5
B0B
330
A02
100
AcDbEntity
  8
Sketch
100
AcDbLine
 10
368.95
 20
-31.6
 30
0
 11
368.95
 21
-44.6
 31
0
  0
ARC
  5
B0C
330
A02
100
AcDbEntity
  8
Sketch
100
AcDbCircle
 10
368.45
 20
-44.6
 30
0
 40
0.5
100
AcDbArc
 50
-90
 51
0
  0
LINE
  5
B0D
330
A02
100
AcDbEntity
  8
Sketch
100
AcDbLine
 10
355.45
 20
-45.1
 30
0
 11
368.45
 21
-45.1
 31
0
  0
ARC
  5
B0E
330
A02
100
AcDbEntity
  8
Sketch
100
AcDbCircle
 10
355.45
 20
-44.6
 30
0
 40
0.5
100
AcDbArc
 50
180
 51
-90
  0
LINE
  5
B0F
330
A02
100
AcDbEntity
  8
Sketch
100
AcDbLine
 10
354.95
 20
-31.6
 30
0
 11
354.95
 21
-44.6
 31
0
  0
ARC
  5
B10
330
A02
100
AcDbEntity
  8
Sketch
100
AcDbCircle
 10
374.5
 20
-31.6
 30
0
 40
0.5
100
AcDbArc
 50
90
 51
180
  0
LINE
  5
B11
330
A02
100
AcDbEntity
  8
Sketch
100
AcDbLine
 10
374.5
 20
-31.1
 30
0
 11
387.5
 21
-31.1
 31
0
  0
ARC
  5
B12
330
A02
100
AcDbEntity
  8
Sketch
100
AcDbCircle
 10
387.5
 20
-31.6
 30
0
 40
0.5
100
AcDbArc
 50
0
 51
90
  0
LINE
  5
B13
330
A02
100
AcDbEntity
  8
Sketch
100
AcDbLine
 10
388
 20
-31.6
 30
0
 11
388
 21
-44.6
 31
0
  0
ARC
  5
B14
330
A02
100
AcDbEntity
  8
Sketch
100
AcDbCircle
 10
387.5
 20
-44.6
 30
0
 40
0.5
100
AcDbArc
 50
-90
 51
0
  0
LINE
  5
B15
330
A02
100
AcDbEntity
  8
Sketch
100
AcDbLine
 10
374.5
 20
-45.1
 30
0
 11
387.5
 21
-45.1
 31
0
  0
ARC
  5
B16
330
A02
100
AcDbEntity
  8
Sketch
100
AcDbCircle
 10
374.5
 20
-44.6
 30
0
 40
0.5
100
AcDbArc
 50
180
 51
-90
  0
LINE
  5
B17
330
A02
100
AcDbEntity
  8
Sketch
100
AcDbLine
 10
374
 20
-31.6
 30
0
 11
374
 21
-44.6
 31
0
  0
ARC
  5
B18
330
A02
100
AcDbEntity
  8
Sketch
100
AcDbCircle
 10
7.7875
 20
-50.65
 30
0
 40
0.5
100
AcDbArc
 50
90
 51
180
  0
LINE
  5
B19
330
A02
100
AcDbEntity
  8
Sketch
100
AcDbLine
 10
7.7875
 20
-50.15
 30
0
 11
20.7875
 21
-50.15
 31
0
  0
ARC
  5
B1A
330
A02
100
AcDbEntity
  8
Sketch
100
AcDbCircle
 10
20.7875
 20
-50.65
 30
0
 40
0.5
100
AcDbArc
 50
0
 51
90
  0
LINE
  5
B1B
330
A02
100
AcDbEntity
  8
Sketch
100
AcDbLine
 10
21.2875
 20
-50.65
 30
0
 11
21.2875
 21
-63.65
 31
0
  0
ARC
  5
B1C
330
A02
100
AcDbEntity
  8
Sketch
100
AcDbCircle
 10
20.7875
 20
-63.65
 30
0
 40
0.5
100
AcDbArc
 50
-90
 51
0
  0
LINE
  5
B1D
330
A02
100
AcDbEntity
  8
Sketch
100
AcDbLine
 10
7.7875
 20
-64.15
 30
0
 11
20.7875
 21
-64.15
 31
0
  0
ARC
  5
B1E
330
A02
100
AcDbEntity
  8
Sketch
100
AcDbCircle
 10
7.7875
 20
-63.65
 30
0
 40
0.5
100
AcDbArc
 50
180
 51
-90
  0
LINE
  5
B1F
330
A02
100
AcDbEntity
  8
Sketch
100
AcDbLine
 10
7.2875
 20
-50.65
 30
0
 11
7.2875
 21
-63.65
 31
0
  0
ARC
  5
B20
330
A02
100
AcDbEntity
  8
Sketch
100
AcDbCircle
 10
31.6
 20
-50.65
 30
0
 40
0.5
100
AcDbArc
 50
90
 51
180
  0
LINE
  5
B21
330
A02
100
AcDbEntity
  8
Sketch
100
AcDbLine
 10
31.6
 20
-50.15
 30
0
 11
44.6
 21
-50.15
 31
0
  0
ARC
  5
B22
330
A02
100
AcDbEntity
  8
Sketch
100
AcDbCircle
 10
44.6
 20
-50.65
 30
0
 40
0.5
100
AcDbArc
 50
0
 51
90
  0
LINE
  5
B23
330
A02
100
AcDbEntity
  8
Sketch
100
AcDbLine
 10
45.1
 20
-50.65
 30
0
 11
45.1
 21
-63.65
 31
0
  0
ARC
  5
B24
330
A02
100
AcDbEntity
  8
Sketch
100
AcDbCircle
 10
44.6
 20
-63.65
 30
0
 40
0.5
100
AcDbArc
 50
-90
 51
0
  0
LINE
  5
B25
330
A02
100
AcDbEntity
  8
Sketch
100
AcDbLine
 10
31.6
 20
-64.15
 30
0
 11
44.6
 21
-64.15
 31
0
  0
ARC
  5
B26
330
A02
100
AcDbEntity
  8
Sketch
100
AcDbCircle
 10
31.6
 20
-63.65
 30
0
 40
0.5
100
AcDbArc
 50
180
 51
-90
  0
LINE
  5
B27
330
A02
100
AcDbEntity
  8
Sketch
100
AcDbLine
 10
31.1
 20
-50.65
 30
0
 11
31.1
 21
-63.65
 31
0
  0
ARC
  5
B28
330
A02
100
AcDbEntity
  8
Sketch
100
AcDbCircle
 10
50.65
 20
-50.65
 30
0
 40
0.5
100
AcDbArc
 50
90
 51
180
  0
LINE
  5
B29
330
A02
100
AcDbEntity
  8
Sketch
100
AcDbLine
 10
50.65
 20
-50.15
 30
0
 11
63.65
 21
-50.15
 31
0
  0
ARC
  5
B2A
330
A02
100
AcDbEntity
  8
Sketch
100
AcDbCircle
 10
63.65
 20
-50.65
 30
0
 40
0.5
100
AcDbArc
 50
0
 51
90
  0
LINE
  5
B2B
330
A02
100
AcDbEntity
  8
Sketch
100
AcDbLine
 10
64.15
 20
-50.65
 30
0
 11
64.15
 21
-63.65
 31
0
  0
ARC
  5
B2C
330
A02
100
AcDbEntity
  8
Sketch
100
AcDbCircle
 10
63.65
 20
-63.65
 30
0
 40
0.5
100
AcDbArc
 50
-90
 51
0
  0
LINE
  5
B2D
330
A02
100
AcDbEntity
  8
Sketch
100
AcDbLine
 10
50.65
 20
-64.15
 30
0
 11
63.65
 21
-64.15
 31
0
  0
ARC
  5
B2E
330
A02
100
AcDbEntity
  8
Sketch
100
AcDbCircle
 10
50.65
 20
-63.65
 30
0
 40
0.5
100
AcDbArc
 50
180
 51
-90
  0
LINE
  5
B2F
330
A02
100
AcDbEntity
  8
Sketch
100
AcDbLine
 10
50.15
 20
-50.65
 30
0
 11
50.15
 21
-63.65
 31
0
  0
ARC
  5
B30
330
A02
100
AcDbEntity
  8
Sketch
100
AcDbCircle
 10
69.7
 20
-50.65
 30
0
 40
0.5
100
AcDbArc
 50
90
 51
180
  0
LINE
  5
B31
330
A02
100
AcDbEntity
  8
Sketch
100
AcDbLine
 10
69.7
 20
-50.15
 30
0
 11
82.7
 21
-50.15
 31
0
  0
ARC
  5
B32
330
A02
100
AcDbEntity
  8
Sketch
100
AcDbCircle
 10
82.7
 20
-50.65
 30
0
 40
0.5
100
AcDbArc
 50
0
 51
90
  0
LINE
  5
B33
330
A02
100
AcDbEntity
  8
Sketch
100
AcDbLine
 10
83.2
 20
-50.65
 30
0
 11
83.2
 21
-63.65
 31
0
  0
ARC
  5
B34
330
A02
100
AcDbEntity
  8
Sketch
100
AcDbCircle
 10
82.7
 20
-63.65
 30
0
 40
0.5
100
AcDbArc
 50
-90
 51
0
  0
LINE
  5
B35
330
A02
100
AcDbEntity
  8
Sketch
100
AcDbLine
 10
69.7
 20
-64.15
 30
0
 11
82.7
 21
-64.15
 31
0
  0
ARC
  5
B36
330
A02
100
AcDbEntity
  8
Sketch
100
AcDbCircle
 10
69.7
 20
-63.65
 30
0
 40
0.5
100
AcDbArc
 50
180
 51
-90
  0
LINE
  5
B37
330
A02
100
AcDbEntity
  8
Sketch
100
AcDbLine
 10
69.2
 20
-50.65
 30
0
 11
69.2
 21
-63.65
 31
0
  0
ARC
  5
B38
330
A02
100
AcDbEntity
  8
Sketch
100
AcDbCircle
 10
88.75
 20
-50.65
 30
0
 40
0.5
100
AcDbArc
 50
90
 51
180
  0
LINE
  5
B39
330
A02
100
AcDbEntity
  8
Sketch
100
AcDbLine
 10
88.75
 20
-50.15
 30
0
 11
101.75
 21
-50.15
 31
0
  0
ARC
  5
B3A
330
A02
100
AcDbEntity
  8
Sketch
100
AcDbCircle
 10
101.75
 20
-50.65
 30
0
 40
0.5
100
AcDbArc
 50
0
 51
90
  0
LINE
  5
B3B
330
A02
100
AcDbEntity
  8
Sketch
100
AcDbLine
 10
102.25
 20
-50.65
 30
0
 11
102.25
 21
-63.65
 31
0
  0
ARC
  5
B3C
330
A02
100
AcDbEntity
  8
Sketch
100
AcDbCircle
 10
101.75
 20
-63.65
 30
0
 40
0.5
100
AcDbArc
 50
-90
 51
0
  0
LINE
  5
B3D
330
A02
100
AcDbEntity
  8
Sketch
100
AcDbLine
 10
88.75
 20
-64.15
 30
0
 11
101.75
 21
-64.15
 31
0
  0
ARC
  5
B3E
330
A02
100
AcDbEntity
  8
Sketch
100
AcDbCircle
 10
88.75
 20
-63.65
 30
0
 40
0.5
100
AcDbArc
 50
180
 51
-90
  0
LINE
  5
B3F
330
A02
100
AcDbEntity
  8
Sketch
100
AcDbLine
 10
88.25
 20
-50.65
 30
0
 11
88.25
 21
-63.65
 31
0
  0
ARC
  5
B40
330
A02
100
AcDbEntity
  8
Sketch
100
AcDbCircle
 10
107.8
 20
-50.65
 30
0
 40
0.5
100
AcDbArc
 50
90
 51
180
  0
LINE
  5
B41
330
A02
100
AcDbEntity
  8
Sketch
100
AcDbLine
 10
107.8
 20
-50.15
 30
0
 11
120.8
 21
-50.15
 31
0
  0
ARC
  5
B42
330
A02
100
AcDbEntity
  8
Sketch
100
AcDbCircle
 10
120.8
 20
-50.65
 30
0
 40
0.5
100
AcDbArc
 50
0
 51
90
  0
LINE
  5
B43
330
A02
100
AcDbEntity
  8
Sketch
100
AcDbLine
 10
121.3
 20
-50.65
 30
0
 11
121.3
 21
-63.65
 31
0
  0
ARC
  5
B44
330
A02
100
AcDbEntity
  8
Sketch
100
AcDbCircle
 10
120.8
 20
-63.65
 30
0
 40
0.5
100
AcDbArc
 50
-90
 51
0
  0
LINE
  5
B45
330
A02
100
AcDbEntity
  8
Sketch
100
AcDbLine
 10
107.8
 20
-64.15
 30
0
 11
120.8
 21
-64.15
 31
0
  0
ARC
  5
B46
330
A02
100
AcDbEntity
  8
Sketch
100
AcDbCircle
 10
107.8
 20
-63.65
 30
0
 40
0.5
100
AcDbArc
 50
180
 51
-90
  0
LINE
  5
B47
330
A02
100
AcDbEntity
  8
Sketch
100
AcDbLine
 10
107.3
 20
-50.65
 30
0
 11
107.3
 21
-63.65
 31
0
  0
ARC
  5
B48
330
A02
100
AcDbEntity
  8
Sketch
100
AcDbCircle
 10
126.85
 20
-50.65
 30
0
 40
0.5
100
AcDbArc
 50
90
 51
180
  0
LINE
  5
B49
330
A02
100
AcDbEntity
  8
Sketch
100
AcDbLine
 10
126.85
 20
-50.15
 30
0
 11
139.85
 21
-50.15
 31
0
  0
ARC
  5
B4A
330
A02
100
AcDbEntity
  8
Sketch
100
AcDbCircle
 10
139.85
 20
-50.65
 30
0
 40
0.5
100
AcDbArc
 50
0
 51
90
  0
LINE
  5
B4B
330
A02
100
AcDbEntity
  8
Sketch
100
AcDbLine
 10
140.35
 20
-50.65
 30
0
 11
140.35
 21
-63.65
 31
0
  0
ARC
  5
B4C
330
A02
100
AcDbEntity
  8
Sketch
100
AcDbCircle
 10
139.85
 20
-63.65
 30
0
 40
0.5
100
AcDbArc
 50
-90
 51
0
  0
LINE
  5
B4D
330
A02
100
AcDbEntity
  8
Sketch
100
AcDbLine
 10
126.85
 20
-64.15
 30
0
 11
139.85
 21
-64.15
 31
0
  0
ARC
  5
B4E
330
A02
100
AcDbEntity
  8
Sketch
100
AcDbCircle
 10
126.85
 20
-63.65
 30
0
 40
0.5
100
AcDbArc
 50
180
 51
-90
  0
LINE
  5
B4F
330
A02
100
AcDbEntity
  8
Sketch
100
AcDbLine
 10
126.35
 20
-50.65
 30
0
 11
126.35
 21
-63.65
 31
0
  0
ARC
  5
B50
330
A02
100
AcDbEntity
  8
Sketch
100
AcDbCircle
 10
145.9
 20
-50.65
 30
0
 40
0.5
100
AcDbArc
 50
90
 51
180
  0
LINE
  5
B51
330
A02
100
AcDbEntity
  8
Sketch
100
AcDbLine
 10
145.9
 20
-50.15
 30
0
 11
158.9
 21
-50.15
 31
0
  0
ARC
  5
B52
330
A02
100
AcDbEntity
  8
Sketch
100
AcDbCircle
 10
158.9
 20
-50.65
 30
0
 40
0.5
100
AcDbArc
 50
0
 51
90
  0
LINE
  5
B53
330
A02
100
AcDbEntity
  8
Sketch
100
AcDbLine
 10
159.4
 20
-50.65
 30
0
 11
159.4
 21
-63.65
 31
0
  0
ARC
  5
B54
330
A02
100
AcDbEntity
  8
Sketch
100
AcDbCircle
 10
158.9
 20
-63.65
 30
0
 40
0.5
100
AcDbArc
 50
-90
 51
0
  0
LINE
  5
B55
330
A02
100
AcDbEntity
  8
Sketch
100
AcDbLine
 10
145.9
 20
-64.15
 30
0
 11
158.9
 21
-64.15
 31
0
  0
ARC
  5
B56
330
A02
100
AcDbEntity
  8
Sketch
100
AcDbCircle
 10
145.9
 20
-63.65
 30
0
 40
0.5
100
AcDbArc
 50
180
 51
-90
  0
LINE
  5
B57
330
A02
100
AcDbEntity
  8
Sketch
100
AcDbLine
 10
145.4
 20
-50.65
 30
0
 11
145.4
 21
-63.65
 31
0
  0
ARC
  5
B58
330
A02
100
AcDbEntity
  8
Sketch
100
AcDbCircle
 10
164.95
 20
-50.65
 30
0
 40
0.5
100
AcDbArc
 50
90
 51
180
  0
LINE
  5
B59
330
A02
100
AcDbEntity
  8
Sketch
100
AcDbLine
 10
164.95
 20
-50.15
 30
0
 11
177.95
 21
-50.15
 31
0
  0
ARC
  5
B5A
330
A02
100
AcDbEntity
  8
Sketch
100
AcDbCircle
 10
177.95
 20
-50.65
 30
0
 40
0.5
100
AcDbArc
 50
0
 51
90
  0
LINE
  5
B5B
330
A02
100
AcDbEntity
  8
Sketch
100
AcDbLine
 10
178.45
 20
-50.65
 30
0
 11
178.45
 21
-63.65
 31
0
  0
ARC
  5
B5C
330
A02
100
AcDbEntity
  8
Sketch
100
AcDbCircle
 10
177.95
 20
-63.65
 30
0
 40
0.5
100
AcDbArc
 50
-90
 51
0
  0
LINE
  5
B5D
330
A02
100
AcDbEntity
  8
Sketch
100
AcDbLine
 10
164.95
 20
-64.15
 30
0
 11
177.95
 21
-64.15
 31
0
  0
ARC
  5
B5E
330
A02
100
AcDbEntity
  8
Sketch
100
AcDbCircle
 10
164.95
 20
-63.65
 30
0
 40
0.5
100
AcDbArc
 50
180
 51
-90
  0
LINE
  5
B5F
330
A02
100
AcDbEntity
  8
Sketch
100
AcDbLine
 10
164.45
 20
-50.65
 30
0
 11
164.45
 21
-63.65
 31
0
  0
ARC
  5
B60
330
A02
100
AcDbEntity
  8
Sketch
100
AcDbCircle
 10
184
 20
-50.65
 30
0
 40
0.5
100
AcDbArc
 50
90
 51
180
  0
LINE
  5
B61
330
A02
100
AcDbEntity
  8
Sketch
100
AcDbLine
 10
184
 20
-50.15
 30
0
 11
197
 21
-50.15
 31
0
  0
ARC
  5
B62
330
A02
100
AcDbEntity
  8
Sketch
100
AcDbCircle
 10
197
 20
-50.65
 30
0
 40
0.5
100
AcDbArc
 50
0
 51
90
  0
LINE
  5
B63
330
A02
100
AcDbEntity
  8
Sketch
100
AcDbLine
 10
197.5
 20
-50.65
 30
0
 11
197.5
 21
-63.65
 31
0
  0
ARC
  5
B64
330
A02
100
AcDbEntity
  8
Sketch
100
AcDbCircle
 10
197
 20
-63.65
 30
0
 40
0.5
100
AcDbArc
 50
-90
 51
0
  0
LINE
  5
B65
330
A02
100
AcDbEntity
  8
Sketch
100
AcDbLine
 10
184
 20
-64.15
 30
0
 11
197
 21
-64.15
 31
0
  0
ARC
  5
B66
330
A02
100
AcDbEntity
  8
Sketch
100
AcDbCircle
 10
184
 20
-63.65
 30
0
 40
0.5
100
AcDbArc
 50
180
 51
-90
  0
LINE
  5
B67
330
A02
100
AcDbEntity
  8
Sketch
100
AcDbLine
 10
183.5
 20
-50.65
 30
0
 11
183.5
 21
-63.65
 31
0
  0
ARC
  5
B68
330
A02
100
AcDbEntity
  8
Sketch
100
AcDbCircle
 10
203.05
 20
-50.65
 30
0
 40
0.5
100
AcDbArc
 50
90
 51
180
  0
LINE
  5
B69
330
A02
100
AcDbEntity
  8
Sketch
100
AcDbLine
 10
203.05
 20
-50.15
 30
0
 11
216.05
 21
-50.15
 31
0
  0
ARC
  5
B6A
330
A02
100
AcDbEntity
  8
Sketch
100
AcDbCircle
 10
216.05
 20
-50.65
 30
0
 40
0.5
100
AcDbArc
 50
0
 51
90
  0
LINE
  5
B6B
330
A02
100
AcDbEntity
  8
Sketch
100
AcDbLine
 10
216.55
 20
-50.65
 30
0
 11
216.55
 21
-63.65
 31
0
  0
ARC
  5
B6C
330
A02
100
AcDbEntity
  8
Sketch
100
AcDbCircle
 10
216.05
 20
-63.65
 30
0
 40
0.5
100
AcDbArc
 50
-90
 51
0
  0
LINE
  5
B6D
330
A02
100
AcDbEntity
  8
Sketch
100
AcDbLine
 10
203.05
 20
-64.15
 30
0
 11
216.05
 21
-64.15
 31
0
  0
ARC
  5
B6E
330
A02
100
AcDbEntity
  8
Sketch
100
AcDbCircle
 10
203.05
 20
-63.65
 30
0
 40
0.5
100
AcDbArc
 50
180
 51
-90
  0
LINE
  5
B6F
330
A02
100
AcDbEntity
  8
Sketch
100
AcDbLine
 10
202.55
 20
-50.65
 30
0
 11
202.55
 21
-63.65
 31
0
  0
ARC
  5
B70
330
A02
100
AcDbEntity
  8
Sketch
100
AcDbCircle
 10
222.1
 20
-50.65
 30
0
 40
0.5
100
AcDbArc
 50
90
 51
180
  0
LINE
  5
B71
330
A02
100
AcDbEntity
  8
Sketch
100
AcDbLine
 10
222.1
 20
-50.15
 30
0
 11
235.1
 21
-50.15
 31
0
  0
ARC
  5
B72
330
A02
100
AcDbEntity
  8
Sketch
100
AcDbCircle
 10
235.1
 20
-50.65
 30
0
 40
0.5
100
AcDbArc
 50
0
 51
90
  0
LINE
  5
B73
330
A02
100
AcDbEntity
  8
Sketch
100
AcDbLine
 10
235.6
 20
-50.65
 30
0
 11
235.6
 21
-63.65
 31
0
  0
ARC
  5
B74
330
A02
100
AcDbEntity
  8
Sketch
100
AcDbCircle
 10
235.1
 20
-63.65
 30
0
 40
0.5
100
AcDbArc
 50
-90
 51
0
  0
LINE
  5
B75
330
A02
100
AcDbEntity
  8
Sketch
100
AcDbLine
 10
222.1
 20
-64.15
 30
0
 11
235.1
 21
-64.15
 31
0
  0
ARC
  5
B76
330
A02
100
AcDbEntity
  8
Sketch
100
AcDbCircle
 10
222.1
 20
-63.65
 30
0
 40
0.5
100
AcDbArc
 50
180
 51
-90
  0
LINE
  5
B77
330
A02
100
AcDbEntity
  8
Sketch
100
AcDbLine
 10
221.6
 20
-50.65
 30
0
 11
221.6
 21
-63.65
 31
0
  0
ARC
  5
B78
330
A02
100
AcDbEntity
  8
Sketch
100
AcDbCircle
 10
241.15
 20
-50.65
 30
0
 40
0.5
100
AcDbArc
 50
90
 51
180
  0
LINE
  5
B79
330
A02
100
AcDbEntity
  8
Sketch
100
AcDbLine
 10
241.15
 20
-50.15
 30
0
 11
254.15
 21
-50.15
 31
0
  0
ARC
  5
B7A
330
A02
100
AcDbEntity
  8
Sketch
100
AcDbCircle
 10
254.15
 20
-50.65
 30
0
 40
0.5
100
AcDbArc
 50
0
 51
90
  0
LINE
  5
B7B
330
A02
100
AcDbEntity
  8
Sketch
100
AcDbLine
 10
254.65
 20
-50.65
 30
0
 11
254.65
 21
-63.65
 31
0
  0
ARC
  5
B7C
330
A02
100
AcDbEntity
  8
Sketch
100
AcDbCircle
 10
254.15
 20
-63.65
 30
0
 40
0.5
100
AcDbArc
 50
-90
 51
0
  0
LINE
  5
B7D
330
A02
100
AcDbEntity
  8
Sketch
100
AcDbLine
 10
241.15
 20
-64.15
 30
0
 11
254.15
 21
-64.15
 31
0
  0
ARC
  5
B7E
330
A02
100
AcDbEntity
  8
Sketch
100
AcDbCircle
 10
241.15
 20
-63.65
 30
0
 40
0.5
100
AcDbArc
 50
180
 51
-90
  0
LINE
  5
B7F
330
A02
100
AcDbEntity
  8
Sketch
100
AcDbLine
 10
240.65
 20
-50.65
 30
0
 11
240.65
 21
-63.65
 31
0
  0
ARC
  5
B80
330
A02
100
AcDbEntity
  8
Sketch
100
AcDbCircle
 10
264.962
 20
-50.65
 30
0
 40
0.5
100
AcDbArc
 50
90
 51
180
  0
LINE
  5
B81
330
A02
100
AcDbEntity
  8
Sketch
100
AcDbLine
 10
264.962
 20
-50.15
 30
0
 11
277.962
 21
-50.15
 31
0
  0
ARC
  5
B82
330
A02
100
AcDbEntity
  8
Sketch
100
AcDbCircle
 10
277.962
 20
-50.65
 30
0
 40
0.5
100
AcDbArc
 50
0
 51
90
  0
LINE
  5
B83
330
A02
100
AcDbEntity
  8
Sketch
100
AcDbLine
 10
278.462
 20
-50.65
 30
0
 11
278.462
 21
-63.65
 31
0
  0
ARC
  5
B84
330
A02
100
AcDbEntity
  8
Sketch
100
AcDbCircle
 10
277.962
 20
-63.65
 30
0
 40
0.5
100
AcDbArc
 50
-90
 51
0
  0
LINE
  5
B85
330
A02
100
AcDbEntity
  8
Sketch
100
AcDbLine
 10
264.962
 20
-64.15
 30
0
 11
277.962
 21
-64.15
 31
0
  0
ARC
  5
B86
330
A02
100
AcDbEntity
  8
Sketch
100
AcDbCircle
 10
264.962
 20
-63.65
 30
0
 40
0.5
100
AcDbArc
 50
180
 51
-90
  0
LINE
  5
B87
330
A02
100
AcDbEntity
  8
Sketch
100
AcDbLine
 10
264.462
 20
-50.65
 30
0
 11
264.462
 21
-63.65
 31
0
  0
ARC
  5
B88
330
A02
100
AcDbEntity
  8
Sketch
100
AcDbCircle
 10
293.538
 20
-50.65
 30
0
 40
0.5
100
AcDbArc
 50
90
 51
180
  0
LINE
  5
B89
330
A02
100
AcDbEntity
  8
Sketch
100
AcDbLine
 10
293.538
 20
-50.15
 30
0
 11
306.538
 21
-50.15
 31
0
  0
ARC
  5
B8A
330
A02
100
AcDbEntity
  8
Sketch
100
AcDbCircle
 10
306.538
 20
-50.65
 30
0
 40
0.5
100
AcDbArc
 50
0
 51
90
  0
LINE
  5
B8B
330
A02
100
AcDbEntity
  8
Sketch
100
AcDbLine
 10
307.038
 20
-50.65
 30
0
 11
307.038
 21
-63.65
 31
0
  0
ARC
  5
B8C
330
A02
100
AcDbEntity
  8
Sketch
100
AcDbCircle
 10
306.538
 20
-63.65
 30
0
 40
0.5
100
AcDbArc
 50
-90
 51
0
  0
LINE
  5
B8D
330
A02
100
AcDbEntity
  8
Sketch
100
AcDbLine
 10
293.538
 20
-64.15
 30
0
 11
306.538
 21
-64.15
 31
0
  0
ARC
  5
B8E
330
A02
100
AcDbEntity
  8
Sketch
100
AcDbCircle
 10
293.538
 20
-63.65
 30
0
 40
0.5
100
AcDbArc
 50
180
 51
-90
  0
LINE
  5
B8F
330
A02
100
AcDbEntity
  8
Sketch
100
AcDbLine
 10
293.038
 20
-50.65
 30
0
 11
293.038
 21
-63.65
 31
0
  0
ARC
  5
B90
330
A02
100
AcDbEntity
  8
Sketch
100
AcDbCircle
 10
317.35
 20
-50.65
 30
0
 40
0.5
100
AcDbArc
 50
90
 51
180
  0
LINE
  5
B91
330
A02
100
AcDbEntity
  8
Sketch
100
AcDbLine
 10
317.35
 20
-50.15
 30
0
 11
330.35
 21
-50.15
 31
0
  0
ARC
  5
B92
330
A02
100
AcDbEntity
  8
Sketch
100
AcDbCircle
 10
330.35
 20
-50.65
 30
0
 40
0.5
100
AcDbArc
 50
0
 51
90
  0
LINE
  5
B93
330
A02
100
AcDbEntity
  8
Sketch
100
AcDbLine
 10
330.85
 20
-50.65
 30
0
 11
330.85
 21
-63.65
 31
0
  0
ARC
  5
B94
330
A02
100
AcDbEntity
  8
Sketch
100
AcDbCircle
 10
330.35
 20
-63.65
 30
0
 40
0.5
100
AcDbArc
 50
-90
 51
0
  0
LINE
  5
B95
330
A02
100
AcDbEntity
  8
Sketch
100
AcDbLine
 10
317.35
 20
-64.15
 30
0
 11
330.35
 21
-64.15
 31
0
  0
ARC
  5
B96
330
A02
100
AcDbEntity
  8
Sketch
100
AcDbCircle
 10
317.35
 20
-63.65
 30
0
 40
0.5
100
AcDbArc
 50
180
 51
-90
  0
LINE
  5
B97
330
A02
100
AcDbEntity
  8
Sketch
100
AcDbLine
 10
316.85
 20
-50.65
 30
0
 11
316.85
 21
-63.65
 31
0
  0
ARC
  5
B98
330
A02
100
AcDbEntity
  8
Sketch
100
AcDbCircle
 10
336.4
 20
-50.65
 30
0
 40
0.5
100
AcDbArc
 50
90
 51
180
  0
LINE
  5
B99
330
A02
100
AcDbEntity
  8
Sketch
100
AcDbLine
 10
336.4
 20
-50.15
 30
0
 11
349.4
 21
-50.15
 31
0
  0
ARC
  5
B9A
330
A02
100
AcDbEntity
  8
Sketch
100
AcDbCircle
 10
349.4
 20
-50.65
 30
0
 40
0.5
100
AcDbArc
 50
0
 51
90
  0
LINE
  5
B9B
330
A02
100
AcDbEntity
  8
Sketch
100
AcDbLine
 10
349.9
 20
-50.65
 30
0
 11
349.9
 21
-63.65
 31
0
  0
ARC
  5
B9C
330
A02
100
AcDbEntity
  8
Sketch
100
AcDbCircle
 10
349.4
 20
-63.65
 30
0
 40
0.5
100
AcDbArc
 50
-90
 51
0
  0
LINE
  5
B9D
330
A02
100
AcDbEntity
  8
Sketch
100
AcDbLine
 10
336.4
 20
-64.15
 30
0
 11
349.4
 21
-64.15
 31
0
  0
ARC
  5
B9E
330
A02
100
AcDbEntity
  8
Sketch
100
AcDbCircle
 10
336.4
 20
-63.65
 30
0
 40
0.5
100
AcDbArc
 50
180
 51
-90
  0
LINE
  5
B9F
330
A02
100
AcDbEntity
  8
Sketch
100
AcDbLine
 10
335.9
 20
-50.65
 30
0
 11
335.9
 21
-63.65
 31
0
  0
ARC
  5
BA0
330
A02
100
AcDbEntity
  8
Sketch
100
AcDbCircle
 10
355.45
 20
-50.65
 30
0
 40
0.5
100
AcDbArc
 50
90
 51
180
  0
LINE
  5
BA1
330
A02
100
AcDbEntity
  8
Sketch
100
AcDbLine
 10
355.45
 20
-50.15
 30
0
 11
368.45
 21
-50.15
 31
0
  0
ARC
  5
BA2
330
A02
100
AcDbEntity
  8
Sketch
100
AcDbCircle
 10
368.45
 20
-50.65
 30
0
 40
0.5
100
AcDbArc
 50
0
 51
90
  0
LINE
  5
BA3
330
A02
100
AcDbEntity
  8
Sketch
100
AcDbLine
 10
368.95
 20
-50.65
 30
0
 11
368.95
 21
-63.65
 31
0
  0
ARC
  5
BA4
330
A02
100
AcDbEntity
  8
Sketch
100
AcDbCircle
 10
368.45
 20
-63.65
 30
0
 40
0.5
100
AcDbArc
 50
-90
 51
0
  0
LINE
  5
BA5
330
A02
100
AcDbEntity
  8
Sketch
100
AcDbLine
 10
355.45
 20
-64.15
 30
0
 11
368.45
 21
-64.15
 31
0
  0
ARC
  5
BA6
330
A02
100
AcDbEntity
  8
Sketch
100
AcDbCircle
 10
355.45
 20
-63.65
 30
0
 40
0.5
100
AcDbArc
 50
180
 51
-90
  0
LINE
  5
BA7
330
A02
100
AcDbEntity
  8
Sketch
100
AcDbLine
 10
354.95
 20
-50.65
 30
0
 11
354.95
 21
-63.65
 31
0
  0
ARC
  5
BA8
330
A02
100
AcDbEntity
  8
Sketch
100
AcDbCircle
 10
387.5
 20
-60.175
 30
0
 40
0.5
100
AcDbArc
 50
0
 51
90
  0
LINE
  5
BA9
330
A02
100
AcDbEntity
  8
Sketch
100
AcDbLine
 10
388
 20
-60.175
 30
0
 11
388
 21
-73.175
 31
0
  0
ARC
  5
BAA
330
A02
100
AcDbEntity
  8
Sketch
100
AcDbCircle
 10
387.5
 20
-73.175
 30
0
 40
0.5
100
AcDbArc
 50
-90
 51
0
  0
LINE
  5
BAB
330
A02
100
AcDbEntity
  8
Sketch
100
AcDbLine
 10
387.5
 20
-73.675
 30
0
 11
374.5
 21
-73.675
 31
0
  0
ARC
  5
BAC
330
A02
100
AcDbEntity
  8
Sketch
100
AcDbCircle
 10
374.5
 20
-73.175
 30
0
 40
0.5
100
AcDbArc
 50
180
 51
-90
  0
LINE
  5
BAD
330
A02
100
AcDbEntity
  8
Sketch
100
AcDbLine
 10
374
 20
-60.175
 30
0
 11
374
 21
-73.175
 31
0
  0
ARC
  5
BAE
330
A02
100
AcDbEntity
  8
Sketch
100
AcDbCircle
 10
374.5
 20
-60.175
 30
0
 40
0.5
100
AcDbArc
 50
90
 51
180
  0
LINE
  5
BAF
330
A02
100
AcDbEntity
  8
Sketch
100
AcDbLine
 10
387.5
 20
-59.675
 30
0
 11
374.5
 21
-59.675
 31
0
  0
ARC
  5
BB0
330
A02
100
AcDbEntity
  8
Sketch
100
AcDbCircle
 10
386.5
 20
-51.737
 30
0
 40
0.5
100
AcDbArc
 50
0
 51
90
  0
LINE
  5
BB1
330
A02
100
AcDbEntity
  8
Sketch
100
AcDbLine
 10
387
 20
-51.737
 30
0
 11
387
 21
-57.737
 31
0
  0
ARC
  5
BB2
330
A02
100
AcDbEntity
  8
Sketch
100
AcDbCircle
 10
386.5
 20
-57.737
 30
0
 40
0.5
100
AcDbArc
 50
-90
 51
0
  0
LINE
  5
BB3
330
A02
100
AcDbEntity
  8
Sketch
100
AcDbLine
 10
386.5
 20
-58.237
 30
0
 11
372.5
 21
-58.237
 31
0
  0
ARC
  5
BB4
330
A02
100
AcDbEntity
  8
Sketch
100
AcDbCircle
 10
372.5
 20
-57.737
 30
0
 40
0.5
100
AcDbArc
 50
180
 51
-90
  0
LINE
  5
BB5
330
A02
100
AcDbEntity
  8
Sketch
100
AcDbLine
 10
372
 20
-51.737
 30
0
 11
372
 21
-57.737
 31
0
  0
ARC
  5
BB6
330
A02
100
AcDbEntity
  8
Sketch
100
AcDbCircle
 10
372.5
 20
-51.737
 30
0
 40
0.5
100
AcDbArc
 50
90
 51
180
  0
LINE
  5
BB7
330
A02
100
AcDbEntity
  8
Sketch
100
AcDbLine
 10
386.5
 20
-51.237
 30
0
 11
372.5
 21
-51.237
 31
0
  0
ARC
  5
BB8
330
A02
100
AcDbEntity
  8
Sketch
100
AcDbCircle
 10
386.5
 20
-75.613
 30
0
 40
0.5
100
AcDbArc
 50
0
 51
90
  0
LINE
  5
BB9
330
A02
100
AcDbEntity
  8
Sketch
100
AcDbLine
 10
387
 20
-75.613
 30
0
 11
387
 21
-81.613
 31
0
  0
ARC
  5
BBA
330
A02
100
AcDbEntity
  8
Sketch
100
AcDbCircle
 10
386.5
 20
-81.613
 30
0
 40
0.5
100
AcDbArc
 50
-90
 51
0
  0
LINE
  5
BBB
330
A02
100
AcDbEntity
  8
Sketch
100
AcDbLine
 10
386.5
 20
-82.113
 30
0
 11
372.5
 21
-82.113
 31
0
  0
ARC
  5
BBC
330
A02
100
AcDbEntity
  8
Sketch
100
AcDbCircle
 10
372.5
 20
-81.613
 30
0
 40
0.5
100
AcDbArc
 50
180
 51
-90
  0
LINE
  5
BBD
330
A02
100
AcDbEntity
  8
Sketch
100
AcDbLine
 10
372
 20
-75.613
 30
0
 11
372
 21
-81.613
 31
0
  0
ARC
  5
BBE
330
A02
100
AcDbEntity
  8
Sketch
100
AcDbCircle
 10
372.5
 20
-75.613
 30
0
 40
0.5
100
AcDbArc
 50
90
 51
180
  0
LINE
  5
BBF
330
A02
100
AcDbEntity
  8
Sketch
100
AcDbLine
 10
386.5
 20
-75.113
 30
0
 11
372.5
 21
-75.113
 31
0
  0
ARC
  5
BC0
330
A02
100
AcDbEntity
  8
Sketch
100
AcDbCircle
 10
10.1687
 20
-69.7
 30
0
 40
0.5
100
AcDbArc
 50
90
 51
180
  0
LINE
  5
BC1
330
A02
100
AcDbEntity
  8
Sketch
100
AcDbLine
 10
10.1687
 20
-69.2
 30
0
 11
23.1687
 21
-69.2
 31
0
  0
ARC
  5
BC2
330
A02
100
AcDbEntity
  8
Sketch
100
AcDbCircle
 10
23.1687
 20
-69.7
 30
0
 40
0.5
100
AcDbArc
 50
0
 51
90
  0
LINE
  5
BC3
330
A02
100
AcDbEntity
  8
Sketch
100
AcDbLine
 10
23.6687
 20
-69.7
 30
0
 11
23.6687
 21
-82.7
 31
0
  0
ARC
  5
BC4
330
A02
100
AcDbEntity
  8
Sketch
100
AcDbCircle
 10
23.1687
 20
-82.7
 30
0
 40
0.5
100
AcDbArc
 50
-90
 51
0
  0
LINE
  5
BC5
330
A02
100
AcDbEntity
  8
Sketch
100
AcDbLine
 10
10.1687
 20
-83.2
 30
0
 11
23.1687
 21
-83.2
 31
0
  0
ARC
  5
BC6
330
A02
100
AcDbEntity
  8
Sketch
100
AcDbCircle
 10
10.1687
 20
-82.7
 30
0
 40
0.5
100
AcDbArc
 50
180
 51
-90
  0
LINE
  5
BC7
330
A02
100
AcDbEntity
  8
Sketch
100
AcDbLine
 10
9.66875
 20
-69.7
 30
0
 11
9.66875
 21
-82.7
 31
0
  0
ARC
  5
BC8
330
A02
100
AcDbEntity
  8
Sketch
100
AcDbCircle
 10
36.3625
 20
-69.7
 30
0
 40
0.5
100
AcDbArc
 50
90
 51
180
  0
LINE
  5
BC9
330
A02
100
AcDbEntity
  8
Sketch
100
AcDbLine
 10
36.3625
 20
-69.2
 30
0
 11
49.3625
 21
-69.2
 31
0
  0
ARC
  5
BCA
330
A02
100
AcDbEntity
  8
Sketch
100
AcDbCircle
 10
49.3625
 20
-69.7
 30
0
 40
0.5
100
AcDbArc
 50
0
 51
90
  0
LINE
  5
BCB
330
A02
100
AcDbEntity
  8
Sketch
100
AcDbLine
 10
49.8625
 20
-69.7
 30
0
 11
49.8625
 21
-82.7
 31
0
  0
ARC
  5
BCC
330
A02
100
AcDbEntity
  8
Sketch
100
AcDbCircle
 10
49.3625
 20
-82.7
 30
0
 40
0.5
100
AcDbArc
 50
-90
 51
0
  0
LINE
  5
BCD
330
A02
100
AcDbEntity
  8
Sketch
100
AcDbLine
 10
36.3625
 20
-83.2
 30
0
 11
49.3625
 21
-83.2
 31
0
  0
ARC
  5
BCE
330
A02
100
AcDbEntity
  8
Sketch
100
AcDbCircle
 10
36.3625
 20
-82.7
 30
0
 40
0.5
100
AcDbArc
 50
180
 51
-90
  0
LINE
  5
BCF
330
A02
100
AcDbEntity
  8
Sketch
100
AcDbLine
 10
35.8625
 20
-69.7
 30
0
 11
35.8625
 21
-82.7
 31
0
  0
ARC
  5
BD0
330
A02
100
AcDbEntity
  8
Sketch
100
AcDbCircle
 10
55.4125
 20
-69.7
 30
0
 40
0.5
100
AcDbArc
 50
90
 51
180
  0
LINE
  5
BD1
330
A02
100
AcDbEntity
  8
Sketch
100
AcDbLine
 10
55.4125
 20
-69.2
 30
0
 11
68.4125
 21
-69.2
 31
0
  0
ARC
  5
BD2
330
A02
100
AcDbEntity
  8
Sketch
100
AcDbCircle
 10
68.4125
 20
-69.7
 30
0
 40
0.5
100
AcDbArc
 50
0
 51
90
  0
LINE
  5
BD3
330
A02
100
AcDbEntity
  8
Sketch
100
AcDbLine
 10
68.9125
 20
-69.7
 30
0
 11
68.9125
 21
-82.7
 31
0
  0
ARC
  5
BD4
330
A02
100
AcDbEntity
  8
Sketch
100
AcDbCircle
 10
68.4125
 20
-82.7
 30
0
 40
0.5
100
AcDbArc
 50
-90
 51
0
  0
LINE
  5
BD5
330
A02
100
AcDbEntity
  8
Sketch
100
AcDbLine
 10
55.4125
 20
-83.2
 30
0
 11
68.4125
 21
-83.2
 31
0
  0
ARC
  5
BD6
330
A02
100
AcDbEntity
  8
Sketch
100
AcDbCircle
 10
55.4125
 20
-82.7
 30
0
 40
0.5
100
AcDbArc
 50
180
 51
-90
  0
LINE
  5
BD7
330
A02
100
AcDbEntity
  8
Sketch
100
AcDbLine
 10
54.9125
 20
-69.7
 30
0
 11
54.9125
 21
-82.7
 31
0
  0
ARC
  5
BD8
330
A02
100
AcDbEntity
  8
Sketch
100
AcDbCircle
 10
74.4625
 20
-69.7
 30
0
 40
0.5
100
AcDbArc
 50
90
 51
180
  0
LINE
  5
BD9
330
A02
100
AcDbEntity
  8
Sketch
100
AcDbLine
 10
74.4625
 20
-69.2
 30
0
 11
87.4625
 21
-69.2
 31
0
  0
ARC
  5
BDA
330
A02
100
AcDbEntity
  8
Sketch
100
AcDbCircle
 10
87.4625
 20
-69.7
 30
0
 40
0.5
100
AcDbArc
 50
0
 51
90
  0
LINE
  5
BDB
330
A02
100
AcDbEntity
  8
Sketch
100
AcDbLine
 10
87.9625
 20
-69.7
 30
0
 11
87.9625
 21
-82.7
 31
0
  0
ARC
  5
BDC
330
A02
100
AcDbEntity
  8
Sketch
100
AcDbCircle
 10
87.4625
 20
-82.7
 30
0
 40
0.5
100
AcDbArc
 50
-90
 51
0
  0
LINE
  5
BDD
330
A02
100
AcDbEntity
  8
Sketch
100
AcDbLine
 10
74.4625
 20
-83.2
 30
0
 11
87.4625
 21
-83.2
 31
0
  0
ARC
  5
BDE
330
A02
100
AcDbEntity
  8
Sketch
100
AcDbCircle
 10
74.4625
 20
-82.7
 30
0
 40
0.5
100
AcDbArc
 50
180
 51
-90
  0
LINE
  5
BDF
330
A02
100
AcDbEntity
  8
Sketch
100
AcDbLine
 10
73.9625
 20
-69.7
 30
0
 11
73.9625
 21
-82.7
 31
0
  0
ARC
  5
BE0
330
A02
100
AcDbEntity
  8
Sketch
100
AcDbCircle
 10
93.5125
 20
-69.7
 30
0
 40
0.5
100
AcDbArc
 50
90
 51
180
  0
LINE
  5
BE1
330
A02
100
AcDbEntity
  8
Sketch
100
AcDbLine
 10
93.5125
 20
-69.2
 30
0
 11
106.513
 21
-69.2
 31
0
  0
ARC
  5
BE2
330
A02
100
AcDbEntity
  8
Sketch
100
AcDbCircle
 10
106.513
 20
-69.7
 30
0
 40
0.5
100
AcDbArc
 50
0
 51
90
  0
LINE
  5
BE3
330
A02
100
AcDbEntity
  8
Sketch
100
AcDbLine
 10
107.013
 20
-69.7
 30
0
 11
107.013
 21
-82.7
 31
0
  0
ARC
  5
BE4
330
A02
100
AcDbEntity
  8
Sketch
100
AcDbCircle
 10
106.513
 20
-82.7
 30
0
 40
0.5
100
AcDbArc
 50
-90
 51
0
  0
LINE
  5
BE5
330
A02
100
AcDbEntity
  8
Sketch
100
AcDbLine
 10
93.5125
 20
-83.2
 30
0
 11
106.513
 21
-83.2
 31
0
  0
ARC
  5
BE6
330
A02
100
AcDbEntity
  8
Sketch
100
AcDbCircle
 10
93.5125
 20
-82.7
 30
0
 40
0.5
100
AcDbArc
 50
180
 51
-90
  0
LINE
  5
BE7
330
A02
100
AcDbEntity
  8
Sketch
100
AcDbLine
 10
93.0125
 20
-69.7
 30
0
 11
93.0125
 21
-82.7
 31
0
  0
ARC
  5
BE8
330
A02
100
AcDbEntity
  8
Sketch
100
AcDbCircle
 10
112.562
 20
-69.7
 30
0
 40
0.5
100
AcDbArc
 50
90
 51
180
  0
LINE
  5
BE9
330
A02
100
AcDbEntity
  8
Sketch
100
AcDbLine
 10
112.562
 20
-69.2
 30
0
 11
125.562
 21
-69.2
 31
0
  0
ARC
  5
BEA
330
A02
100
AcDbEntity
  8
Sketch
100
AcDbCircle
 10
125.562
 20
-69.7
 30
0
 40
0.5
100
AcDbArc
 50
0
 51
90
  0
LINE
  5
BEB
330
A02
100
AcDbEntity
  8
Sketch
100
AcDbLine
 10
126.062
 20
-69.7
 30
0
 11
126.062
 21
-82.7
 31
0
  0
ARC
  5
BEC
330
A02
100
AcDbEntity
  8
Sketch
100
AcDbCircle
 10
125.562
 20
-82.7
 30
0
 40
0.5
100
AcDbArc
 50
-90
 51
0
  0
LINE
  5
BED
330
A02
100
AcDbEntity
  8
Sketch
100
AcDbLine
 10
112.562
 20
-83.2
 30
0
 11
125.562
 21
-83.2
 31
0
  0
ARC
  5
BEE
330
A02
100
AcDbEntity
  8
Sketch
100
AcDbCircle
 10
112.562
 20
-82.7
 30
0
 40
0.5
100
AcDbArc
 50
180
 51
-90
  0
LINE
  5
BEF
330
A02
100
AcDbEntity
  8
Sketch
100
AcDbLine
 10
112.062
 20
-69.7
 30
0
 11
112.062
 21
-82.7
 31
0
  0
ARC
  5
BF0
330
A02
100
AcDbEntity
  8
Sketch
100
AcDbCircle
 10
131.613
 20
-69.7
 30
0
 40
0.5
100
AcDbArc
 50
90
 51
180
  0
LINE
  5
BF1
330
A02
100
AcDbEntity
  8
Sketch
100
AcDbLine
 10
131.613
 20
-69.2
 30
0
 11
144.613
 21
-69.2
 31
0
  0
ARC
  5
BF2
330
A02
100
AcDbEntity
  8
Sketch
100
AcDbCircle
 10
144.613
 20
-69.7
 30
0
 40
0.5
100
AcDbArc
 50
0
 51
90
  0
LINE
  5
BF3
330
A02
100
AcDbEntity
  8
Sketch
100
AcDbLine
 10
145.113
 20
-69.7
 30
0
 11
145.113
 21
-82.7
 31
0
  0
ARC
  5
BF4
330
A02
100
AcDbEntity
  8
Sketch
100
AcDbCircle
 10
144.613
 20
-82.7
 30
0
 40
0.5
100
AcDbArc
 50
-90
 51
0
  0
LINE
  5
BF5
330
A02
100
AcDbEntity
  8
Sketch
100
AcDbLine
 10
131.613
 20
-83.2
 30
0
 11
144.613
 21
-83.2
 31
0
  0
ARC
  5
BF6
330
A02
100
AcDbEntity
  8
Sketch
100
AcDbCircle
 10
131.613
 20
-82.7
 30
0
 40
0.5
100
AcDbArc
 50
180
 51
-90
  0
LINE
  5
BF7
330
A02
100
AcDbEntity
  8
Sketch
100
AcDbLine
 10
131.113
 20
-69.7
 30
0
 11
131.113
 21
-82.7
 31
0
  0
ARC
  5
BF8
330
A02
100
AcDbEntity
  8
Sketch
100
AcDbCircle
 10
150.662
 20
-69.7
 30
0
 40
0.5
100
AcDbArc
 50
90
 51
180
  0
LINE
  5
BF9
330
A02
100
AcDbEntity
  8
Sketch
100
AcDbLine
 10
150.662
 20
-69.2
 30
0
 11
163.662
 21
-69.2
 31
0
  0
ARC
  5
BFA
330
A02
100
AcDbEntity
  8
Sketch
100
AcDbCircle
 10
163.662
 20
-69.7
 30
0
 40
0.5
100
AcDbArc
 50
0
 51
90
  0
LINE
  5
BFB
330
A02
100
AcDbEntity
  8
Sketch
100
AcDbLine
 10
164.162
 20
-69.7
 30
0
 11
164.162
 21
-82.7
 31
0
  0
ARC
  5
BFC
330
A02
100
AcDbEntity
  8
Sketch
100
AcDbCircle
 10
163.662
 20
-82.7
 30
0
 40
0.5
100
AcDbArc
 50
-90
 51
0
  0
LINE
  5
BFD
330
A02
100
AcDbEntity
  8
Sketch
100
AcDbLine
 10
150.662
 20
-83.2
 30
0
 11
163.662
 21
-83.2
 31
0
  0
ARC
  5
BFE
330
A02
100
AcDbEntity
  8
Sketch
100
AcDbCircle
 10
150.662
 20
-82.7
 30
0
 40
0.5
100
AcDbArc
 50
180
 51
-90
  0
LINE
  5
BFF
330
A02
100
AcDbEntity
  8
Sketch
100
AcDbLine
 10
150.162
 20
-69.7
 30
0
 11
150.162
 21
-82.7
 31
0
  0
ARC
  5
C00
330
A02
100
AcDbEntity
  8
Sketch
100
AcDbCircle
 10
169.713
 20
-69.7
 30
0
 40
0.5
100
AcDbArc
 50
90
 51
180
  0
LINE
  5
C01
330
A02
100
AcDbEntity
  8
Sketch
100
AcDbLine
 10
169.713
 20
-69.2
 30
0
 11
182.713
 21
-69.2
 31
0
  0
ARC
  5
C02
330
A02
100
AcDbEntity
  8
Sketch
100
AcDbCircle
 10
182.713
 20
-69.7
 30
0
 40
0.5
100
AcDbArc
 50
0
 51
90
  0
LINE
  5
C03
330
A02
100
AcDbEntity
  8
Sketch
100
AcDbLine
 10
183.213
 20
-69.7
 30
0
 11
183.213
 21
-82.7
 31
0
  0
ARC
  5
C04
330
A02
100
AcDbEntity
  8
Sketch
100
AcDbCircle
 10
182.713
 20
-82.7
 30
0
 40
0.5
100
AcDbArc
 50
-90
 51
0
  0
LINE
  5
C05
330
A02
100
AcDbEntity
  8
Sketch
100
AcDbLine
 10
169.713
 20
-83.2
 30
0
 11
182.713
 21
-83.2
 31
0
  0
ARC
  5
C06
330
A02
100
AcDbEntity
  8
Sketch
100
AcDbCircle
 10
169.713
 20
-82.7
 30
0
 40
0.5
100
AcDbArc
 50
180
 51
-90
  0
LINE
  5
C07
330
A02
100
AcDbEntity
  8
Sketch
100
AcDbLine
 10
169.213
 20
-69.7
 30
0
 11
169.213
 21
-82.7
 31
0
  0
ARC
  5
C08
330
A02
100
AcDbEntity
  8
Sketch
100
AcDbCircle
 10
188.762
 20
-69.7
 30
0
 40
0.5
100
AcDbArc
 50
90
 51
180
  0
LINE
  5
C09
330
A02
100
AcDbEntity
  8
Sketch
100
AcDbLine
 10
188.762
 20
-69.2
 30
0
 11
201.762
 21
-69.2
 31
0
  0
ARC
  5
C0A
330
A02
100
AcDbEntity
  8
Sketch
100
AcDbCircle
 10
201.762
 20
-69.7
 30
0
 40
0.5
100
AcDbArc
 50
0
 51
90
  0
LINE
  5
C0B
330
A02
100
AcDbEntity
  8
Sketch
100
AcDbLine
 10
202.262
 20
-69.7
 30
0
 11
202.262
 21
-82.7
 31
0
  0
ARC
  5
C0C
330
A02
100
AcDbEntity
  8
Sketch
100
AcDbCircle
 10
201.762
 20
-82.7
 30
0
 40
0.5
100
AcDbArc
 50
-90
 51
0
  0
LINE
  5
C0D
330
A02
100
AcDbEntity
  8
Sketch
100
AcDbLine
 10
188.762
 20
-83.2
 30
0
 11
201.762
 21
-83.2
 31
0
  0
ARC
  5
C0E
330
A02
100
AcDbEntity
  8
Sketch
100
AcDbCircle
 10
188.762
 20
-82.7
 30
0
 40
0.5
100
AcDbArc
 50
180
 51
-90
  0
LINE
  5
C0F
330
A02
100
AcDbEntity
  8
Sketch
100
AcDbLine
 10
188.262
 20
-69.7
 30
0
 11
188.262
 21
-82.7
 31
0
  0
ARC
  5
C10
330
A02
100
AcDbEntity
  8
Sketch
100
AcDbCircle
 10
207.812
 20
-69.7
 30
0
 40
0.5
100
AcDbArc
 50
90
 51
180
  0
LINE
  5
C11
330
A02
100
AcDbEntity
  8
Sketch
100
AcDbLine
 10
207.812
 20
-69.2
 30
0
 11
220.812
 21
-69.2
 31
0
  0
ARC
  5
C12
330
A02
100
AcDbEntity
  8
Sketch
100
AcDbCircle
 10
220.812
 20
-69.7
 30
0
 40
0.5
100
AcDbArc
 50
0
 51
90
  0
LINE
  5
C13
330
A02
100
AcDbEntity
  8
Sketch
100
AcDbLine
 10
221.312
 20
-69.7
 30
0
 11
221.312
 21
-82.7
 31
0
  0
ARC
  5
C14
330
A02
100
AcDbEntity
  8
Sketch
100
AcDbCircle
 10
220.812
 20
-82.7
 30
0
 40
0.5
100
AcDbArc
 50
-90
 51
0
  0
LINE
  5
C15
330
A02
100
AcDbEntity
  8
Sketch
100
AcDbLine
 10
207.812
 20
-83.2
 30
0
 11
220.812
 21
-83.2
 31
0
  0
ARC
  5
C16
330
A02
100
AcDbEntity
  8
Sketch
100
AcDbCircle
 10
207.812
 20
-82.7
 30
0
 40
0.5
100
AcDbArc
 50
180
 51
-90
  0
LINE
  5
C17
330
A02
100
AcDbEntity
  8
Sketch
100
AcDbLine
 10
207.312
 20
-69.7
 30
0
 11
207.312
 21
-82.7
 31
0
  0
ARC
  5
C18
330
A02
100
AcDbEntity
  8
Sketch
100
AcDbCircle
 10
226.863
 20
-69.7
 30
0
 40
0.5
100
AcDbArc
 50
90
 51
180
  0
LINE
  5
C19
330
A02
100
AcDbEntity
  8
Sketch
100
AcDbLine
 10
226.863
 20
-69.2
 30
0
 11
239.863
 21
-69.2
 31
0
  0
ARC
  5
C1A
330
A02
100
AcDbEntity
  8
Sketch
100
AcDbCircle
 10
239.863
 20
-69.7
 30
0
 40
0.5
100
AcDbArc
 50
0
 51
90
  0
LINE
  5
C1B
330
A02
100
AcDbEntity
  8
Sketch
100
AcDbLine
 10
240.363
 20
-69.7
 30
0
 11
240.363
 21
-82.7
 31
0
  0
ARC
  5
C1C
330
A02
100
AcDbEntity
  8
Sketch
100
AcDbCircle
 10
239.863
 20
-82.7
 30
0
 40
0.5
100
AcDbArc
 50
-90
 51
0
  0
LINE
  5
C1D
330
A02
100
AcDbEntity
  8
Sketch
100
AcDbLine
 10
226.863
 20
-83.2
 30
0
 11
239.863
 21
-83.2
 31
0
  0
ARC
  5
C1E
330
A02
100
AcDbEntity
  8
Sketch
100
AcDbCircle
 10
226.863
 20
-82.7
 30
0
 40
0.5
100
AcDbArc
 50
180
 51
-90
  0
LINE
  5
C1F
330
A02
100
AcDbEntity
  8
Sketch
100
AcDbLine
 10
226.363
 20
-69.7
 30
0
 11
226.363
 21
-82.7
 31
0
  0
ARC
  5
C20
330
A02
100
AcDbEntity
  8
Sketch
100
AcDbCircle
 10
257.819
 20
-69.7
 30
0
 40
0.5
100
AcDbArc
 50
90
 51
180
  0
LINE
  5
C21
330
A02
100
AcDbEntity
  8
Sketch
100
AcDbLine
 10
257.819
 20
-69.2
 30
0
 11
270.819
 21
-69.2
 31
0
  0
ARC
  5
C22
330
A02
100
AcDbEntity
  8
Sketch
100
AcDbCircle
 10
270.819
 20
-69.7
 30
0
 40
0.5
100
AcDbArc
 50
0
 51
90
  0
LINE
  5
C23
330
A02
100
AcDbEntity
  8
Sketch
100
AcDbLine
 10
271.319
 20
-69.7
 30
0
 11
271.319
 21
-82.7
 31
0
  0
ARC
  5
C24
330
A02
100
AcDbEntity
  8
Sketch
100
AcDbCircle
 10
270.819
 20
-82.7
 30
0
 40
0.5
100
AcDbArc
 50
-90
 51
0
  0
LINE
  5
C25
330
A02
100
AcDbEntity
  8
Sketch
100
AcDbLine
 10
257.819
 20
-83.2
 30
0
 11
270.819
 21
-83.2
 31
0
  0
ARC
  5
C26
330
A02
100
AcDbEntity
  8
Sketch
100
AcDbCircle
 10
257.819
 20
-82.7
 30
0
 40
0.5
100
AcDbArc
 50
180
 51
-90
  0
LINE
  5
C27
330
A02
100
AcDbEntity
  8
Sketch
100
AcDbLine
 10
257.319
 20
-69.7
 30
0
 11
257.319
 21
-82.7
 31
0
  0
ARC
  5
C28
330
A02
100
AcDbEntity
  8
Sketch
100
AcDbCircle
 10
249.381
 20
-70.7
 30
0
 40
0.5
100
AcDbArc
 50
90
 51
180
  0
LINE
  5
C29
330
A02
100
AcDbEntity
  8
Sketch
100
AcDbLine
 10
249.381
 20
-70.2
 30
0
 11
255.381
 21
-70.2
 31
0
  0
ARC
  5
C2A
330
A02
100
AcDbEntity
  8
Sketch
100
AcDbCircle
 10
255.381
 20
-70.7
 30
0
 40
0.5
100
AcDbArc
 50
0
 51
90
  0
LINE
  5
C2B
330
A02
100
AcDbEntity
  8
Sketch
100
AcDbLine
 10
255.881
 20
-70.7
 30
0
 11
255.881
 21
-84.7
 31
0
  0
ARC
  5
C2C
330
A02
100
AcDbEntity
  8
Sketch
100
AcDbCircle
 10
255.381
 20
-84.7
 30
0
 40
0.5
100
AcDbArc
 50
-90
 51
0
  0
LINE
  5
C2D
330
A02
100
AcDbEntity
  8
Sketch
100
AcDbLine
 10
249.381
 20
-85.2
 30
0
 11
255.381
 21
-85.2
 31
0
  0
ARC
  5
C2E
330
A02
100
AcDbEntity
  8
Sketch
100
AcDbCircle
 10
249.381
 20
-84.7
 30
0
 40
0.5
100
AcDbArc
 50
180
 51
-90
  0
LINE
  5
C2F
330
A02
100
AcDbEntity
  8
Sketch
100
AcDbLine
 10
248.881
 20
-70.7
 30
0
 11
248.881
 21
-84.7
 31
0
  0
ARC
  5
C30
330
A02
100
AcDbEntity
  8
Sketch
100
AcDbCircle
 10
273.257
 20
-70.7
 30
0
 40
0.5
100
AcDbArc
 50
90
 51
180
  0
LINE
  5
C31
330
A02
100
AcDbEntity
  8
Sketch
100
AcDbLine
 10
273.257
 20
-70.2
 30
0
 11
279.257
 21
-70.2
 31
0
  0
ARC
  5
C32
330
A02
100
AcDbEntity
  8
Sketch
100
AcDbCircle
 10
279.257
 20
-70.7
 30
0
 40
0.5
100
AcDbArc
 50
0
 51
90
  0
LINE
  5
C33
330
A02
100
AcDbEntity
  8
Sketch
100
AcDbLine
 10
279.757
 20
-70.7
 30
0
 11
279.757
 21
-84.7
 31
0
  0
ARC
  5
C34
330
A02
100
AcDbEntity
  8
Sketch
100
AcDbCircle
 10
279.257
 20
-84.7
 30
0
 40
0.5
100
AcDbArc
 50
-90
 51
0
  0
LINE
  5
C35
330
A02
100
AcDbEntity
  8
Sketch
100
AcDbLine
 10
273.257
 20
-85.2
 30
0
 11
279.257
 21
-85.2
 31
0
  0
ARC
  5
C36
330
A02
100
AcDbEntity
  8
Sketch
100
AcDbCircle
 10
273.257
 20
-84.7
 30
0
 40
0.5
100
AcDbArc
 50
180
 51
-90
  0
LINE
  5
C37
330
A02
100
AcDbEntity
  8
Sketch
100
AcDbLine
 10
272.757
 20
-70.7
 30
0
 11
272.757
 21
-84.7
 31
0
  0
ARC
  5
C38
330
A02
100
AcDbEntity
  8
Sketch
100
AcDbCircle
 10
293.538
 20
-69.7
 30
0
 40
0.5
100
AcDbArc
 50
90
 51
180
  0
LINE
  5
C39
330
A02
100
AcDbEntity
  8
Sketch
100
AcDbLine
 10
293.538
 20
-69.2
 30
0
 11
306.538
 21
-69.2
 31
0
  0
ARC
  5
C3A
330
A02
100
AcDbEntity
  8
Sketch
100
AcDbCircle
 10
306.538
 20
-69.7
 30
0
 40
0.5
100
AcDbArc
 50
0
 51
90
  0
LINE
  5
C3B
330
A02
100
AcDbEntity
  8
Sketch
100
AcDbLine
 10
307.038
 20
-69.7
 30
0
 11
307.038
 21
-82.7
 31
0
  0
ARC
  5
C3C
330
A02
100
AcDbEntity
  8
Sketch
100
AcDbCircle
 10
306.538
 20
-82.7
 30
0
 40
0.5
100
AcDbArc
 50
-90
 51
0
  0
LINE
  5
C3D
330
A02
100
AcDbEntity
  8
Sketch
100
AcDbLine
 10
293.538
 20
-83.2
 30
0
 11
306.538
 21
-83.2
 31
0
  0
ARC
  5
C3E
330
A02
100
AcDbEntity
  8
Sketch
100
AcDbCircle
 10
293.538
 20
-82.7
 30
0
 40
0.5
100
AcDbArc
 50
180
 51
-90
  0
LINE
  5
C3F
330
A02
100
AcDbEntity
  8
Sketch
100
AcDbLine
 10
293.038
 20
-69.7
 30
0
 11
293.038
 21
-82.7
 31
0
  0
ARC
  5
C40
330
A02
100
AcDbEntity
  8
Sketch
100
AcDbCircle
 10
317.35
 20
-69.7
 30
0
 40
0.5
100
AcDbArc
 50
90
 51
180
  0
LINE
  5
C41
330
A02
100
AcDbEntity
  8
Sketch
100
AcDbLine
 10
317.35
 20
-69.2
 30
0
 11
330.35
 21
-69.2
 31
0
  0
ARC
  5
C42
330
A02
100
AcDbEntity
  8
Sketch
100
AcDbCircle
 10
330.35
 20
-69.7
 30
0
 40
0.5
100
AcDbArc
 50
0
 51
90
  0
LINE
  5
C43
330
A02
100
AcDbEntity
  8
Sketch
100
AcDbLine
 10
330.85
 20
-69.7
 30
0
 11
330.85
 21
-82.7
 31
0
  0
ARC
  5
C44
330
A02
100
AcDbEntity
  8
Sketch
100
AcDbCircle
 10
330.35
 20
-82.7
 30
0
 40
0.5
100
AcDbArc
 50
-90
 51
0
  0
LINE
  5
C45
330
A02
100
AcDbEntity
  8
Sketch
100
AcDbLine
 10
317.35
 20
-83.2
 30
0
 11
330.35
 21
-83.2
 31
0
  0
ARC
  5
C46
330
A02
100
AcDbEntity
  8
Sketch
100
AcDbCircle
 10
317.35
 20
-82.7
 30
0
 40
0.5
100
AcDbArc
 50
180
 51
-90
  0
LINE
  5
C47
330
A02
100
AcDbEntity
  8
Sketch
100
AcDbLine
 10
316.85
 20
-69.7
 30
0
 11
316.85
 21
-82.7
 31
0
  0
ARC
  5
C48
330
A02
100
AcDbEntity
  8
Sketch
100
AcDbCircle
 10
336.4
 20
-69.7
 30
0
 40
0.5
100
AcDbArc
 50
90
 51
180
  0
LINE
  5
C49
330
A02
100
AcDbEntity
  8
Sketch
100
AcDbLine
 10
336.4
 20
-69.2
 30
0
 11
349.4
 21
-69.2
 31
0
  0
ARC
  5
C4A
330
A02
100
AcDbEntity
  8
Sketch
100
AcDbCircle
 10
349.4
 20
-69.7
 30
0
 40
0.5
100
AcDbArc
 50
0
 51
90
  0
LINE
  5
C4B
330
A02
100
AcDbEntity
  8
Sketch
100
AcDbLine
 10
349.9
 20
-69.7
 30
0
 11
349.9
 21
-82.7
 31
0
  0
ARC
  5
C4C
330
A02
100
AcDbEntity
  8
Sketch
100
AcDbCircle
 10
349.4
 20
-82.7
 30
0
 40
0.5
100
AcDbArc
 50
-90
 51
0
  0
LINE
  5
C4D
330
A02
100
AcDbEntity
  8
Sketch
100
AcDbLine
 10
336.4
 20
-83.2
 30
0
 11
349.4
 21
-83.2
 31
0
  0
ARC
  5
C4E
330
A02
100
AcDbEntity
  8
Sketch
100
AcDbCircle
 10
336.4
 20
-82.7
 30
0
 40
0.5
100
AcDbArc
 50
180
 51
-90
  0
LINE
  5
C4F
330
A02
100
AcDbEntity
  8
Sketch
100
AcDbLine
 10
335.9
 20
-69.7
 30
0
 11
335.9
 21
-82.7
 31
0
  0
ARC
  5
C50
330
A02
100
AcDbEntity
  8
Sketch
100
AcDbCircle
 10
355.45
 20
-69.7
 30
0
 40
0.5
100
AcDbArc
 50
90
 51
180
  0
LINE
  5
C51
330
A02
100
AcDbEntity
  8
Sketch
100
AcDbLine
 10
355.45
 20
-69.2
 30
0
 11
368.45
 21
-69.2
 31
0
  0
ARC
  5
C52
330
A02
100
AcDbEntity
  8
Sketch
100
AcDbCircle
 10
368.45
 20
-69.7
 30
0
 40
0.5
100
AcDbArc
 50
0
 51
90
  0
LINE
  5
C53
330
A02
100
AcDbEntity
  8
Sketch
100
AcDbLine
 10
368.95
 20
-69.7
 30
0
 11
368.95
 21
-82.7
 31
0
  0
ARC
  5
C54
330
A02
100
AcDbEntity
  8
Sketch
100
AcDbCircle
 10
368.45
 20
-82.7
 30
0
 40
0.5
100
AcDbArc
 50
-90
 51
0
  0
LINE
  5
C55
330
A02
100
AcDbEntity
  8
Sketch
100
AcDbLine
 10
355.45
 20
-83.2
 30
0
 11
368.45
 21
-83.2
 31
0
  0
ARC
  5
C56
330
A02
100
AcDbEntity
  8
Sketch
100
AcDbCircle
 10
355.45
 20
-82.7
 30
0
 40
0.5
100
AcDbArc
 50
180
 51
-90
  0
LINE
  5
C57
330
A02
100
AcDbEntity
  8
Sketch
100
AcDbLine
 10
354.95
 20
-69.7
 30
0
 11
354.95
 21
-82.7
 31
0
  0
ARC
  5
C58
330
A02
100
AcDbEntity
  8
Sketch
100
AcDbCircle
 10
14.9313
 20
-88.75
 30
0
 40
0.5
100
AcDbArc
 50
90
 51
180
  0
LINE
  5
C59
330
A02
100
AcDbEntity
  8
Sketch
100
AcDbLine
 10
14.9313
 20
-88.25
 30
0
 11
27.9312
 21
-88.25
 31
0
  0
ARC
  5
C5A
330
A02
100
AcDbEntity
  8
Sketch
100
AcDbCircle
 10
27.9312
 20
-88.75
 30
0
 40
0.5
100
AcDbArc
 50
0
 51
90
  0
LINE
  5
C5B
330
A02
100
AcDbEntity
  8
Sketch
100
AcDbLine
 10
28.4312
 20
-88.75
 30
0
 11
28.4312
 21
-101.75
 31
0
  0
ARC
  5
C5C
330
A02
100
AcDbEntity
  8
Sketch
100
AcDbCircle
 10
27.9312
 20
-101.75
 30
0
 40
0.5
100
AcDbArc
 50
-90
 51
0
  0
LINE
  5
C5D
330
A02
100
AcDbEntity
  8
Sketch
100
AcDbLine
 10
14.9313
 20
-102.25
 30
0
 11
27.9312
 21
-102.25
 31
0
  0
ARC
  5
C5E
330
A02
100
AcDbEntity
  8
Sketch
100
AcDbCircle
 10
14.9313
 20
-101.75
 30
0
 40
0.5
100
AcDbArc
 50
180
 51
-90
  0
LINE
  5
C5F
330
A02
100
AcDbEntity
  8
Sketch
100
AcDbLine
 10
14.4313
 20
-88.75
 30
0
 11
14.4313
 21
-101.75
 31
0
  0
ARC
  5
C60
330
A02
100
AcDbEntity
  8
Sketch
100
AcDbCircle
 10
6.49325
 20
-89.75
 30
0
 40
0.5
100
AcDbArc
 50
90
 51
180
  0
LINE
  5
C61
330
A02
100
AcDbEntity
  8
Sketch
100
AcDbLine
 10
6.49325
 20
-89.25
 30
0
 11
12.4932
 21
-89.25
 31
0
  0
ARC
  5
C62
330
A02
100
AcDbEntity
  8
Sketch
100
AcDbCircle
 10
12.4932
 20
-89.75
 30
0
 40
0.5
100
AcDbArc
 50
0
 51
90
  0
LINE
  5
C63
330
A02
100
AcDbEntity
  8
Sketch
100
AcDbLine
 10
12.9932
 20
-89.75
 30
0
 11
12.9932
 21
-103.75
 31
0
  0
ARC
  5
C64
330
A02
100
AcDbEntity
  8
Sketch
100
AcDbCircle
 10
12.4932
 20
-103.75
 30
0
 40
0.5
100
AcDbArc
 50
-90
 51
0
  0
LINE
  5
C65
330
A02
100
AcDbEntity
  8
Sketch
100
AcDbLine
 10
6.49325
 20
-104.25
 30
0
 11
12.4932
 21
-104.25
 31
0
  0
ARC
  5
C66
330
A02
100
AcDbEntity
  8
Sketch
100
AcDbCircle
 10
6.49325
 20
-103.75
 30
0
 40
0.5
100
AcDbArc
 50
180
 51
-90
  0
LINE
  5
C67
330
A02
100
AcDbEntity
  8
Sketch
100
AcDbLine
 10
5.99325
 20
-89.75
 30
0
 11
5.99325
 21
-103.75
 31
0
  0
ARC
  5
C68
330
A02
100
AcDbEntity
  8
Sketch
100
AcDbCircle
 10
30.3693
 20
-89.75
 30
0
 40
0.5
100
AcDbArc
 50
90
 51
180
  0
LINE
  5
C69
330
A02
100
AcDbEntity
  8
Sketch
100
AcDbLine
 10
30.3693
 20
-89.25
 30
0
 11
36.3693
 21
-89.25
 31
0
  0
ARC
  5
C6A
330
A02
100
AcDbEntity
  8
Sketch
100
AcDbCircle
 10
36.3693
 20
-89.75
 30
0
 40
0.5
100
AcDbArc
 50
0
 51
90
  0
LINE
  5
C6B
330
A02
100
AcDbEntity
  8
Sketch
100
AcDbLine
 10
36.8693
 20
-89.75
 30
0
 11
36.8693
 21
-103.75
 31
0
  0
ARC
  5
C6C
330
A02
100
AcDbEntity
  8
Sketch
100
AcDbCircle
 10
36.3693
 20
-103.75
 30
0
 40
0.5
100
AcDbArc
 50
-90
 51
0
  0
LINE
  5
C6D
330
A02
100
AcDbEntity
  8
Sketch
100
AcDbLine
 10
30.3693
 20
-104.25
 30
0
 11
36.3693
 21
-104.25
 31
0
  0
ARC
  5
C6E
330
A02
100
AcDbEntity
  8
Sketch
100
AcDbCircle
 10
30.3693
 20
-103.75
 30
0
 40
0.5
100
AcDbArc
 50
180
 51
-90
  0
LINE
  5
C6F
330
A02
100
AcDbEntity
  8
Sketch
100
AcDbLine
 10
29.8693
 20
-89.75
 30
0
 11
29.8693
 21
-103.75
 31
0
  0
ARC
  5
C70
330
A02
100
AcDbEntity
  8
Sketch
100
AcDbCircle
 10
45.8875
 20
-88.75
 30
0
 40
0.5
100
AcDbArc
 50
90
 51
180
  0
LINE
  5
C71
330
A02
100
AcDbEntity
  8
Sketch
100
AcDbLine
 10
45.8875
 20
-88.25
 30
0
 11
58.8875
 21
-88.25
 31
0
  0
ARC
  5
C72
330
A02
100
AcDbEntity
  8
Sketch
100
AcDbCircle
 10
58.8875
 20
-88.75
 30
0
 40
0.5
100
AcDbArc
 50
0
 51
90
  0
LINE
  5
C73
330
A02
100
AcDbEntity
  8
Sketch
100
AcDbLine
 10
59.3875
 20
-88.75
 30
0
 11
59.3875
 21
-101.75
 31
0
  0
ARC
  5
C74
330
A02
100
AcDbEntity
  8
Sketch
100
AcDbCircle
 10
58.8875
 20
-101.75
 30
0
 40
0.5
100
AcDbArc
 50
-90
 51
0
  0
LINE
  5
C75
330
A02
100
AcDbEntity
  8
Sketch
100
AcDbLine
 10
45.8875
 20
-102.25
 30
0
 11
58.8875
 21
-102.25
 31
0
  0
ARC
  5
C76
330
A02
100
AcDbEntity
  8
Sketch
100
AcDbCircle
 10
45.8875
 20
-101.75
 30
0
 40
0.5
100
AcDbArc
 50
180
 51
-90
  0
LINE
  5
C77
330
A02
100
AcDbEntity
  8
Sketch
100
AcDbLine
 10
45.3875
 20
-88.75
 30
0
 11
45.3875
 21
-101.75
 31
0
  0
ARC
  5
C78
330
A02
100
AcDbEntity
  8
Sketch
100
AcDbCircle
 10
64.9375
 20
-88.75
 30
0
 40
0.5
100
AcDbArc
 50
90
 51
180
  0
LINE
  5
C79
330
A02
100
AcDbEntity
  8
Sketch
100
AcDbLine
 10
64.9375
 20
-88.25
 30
0
 11
77.9375
 21
-88.25
 31
0
  0
ARC
  5
C7A
330
A02
100
AcDbEntity
  8
Sketch
100
AcDbCircle
 10
77.9375
 20
-88.75
 30
0
 40
0.5
100
AcDbArc
 50
0
 51
90
  0
LINE
  5
C7B
330
A02
100
AcDbEntity
  8
Sketch
100
AcDbLine
 10
78.4375
 20
-88.75
 30
0
 11
78.4375
 21
-101.75
 31
0
  0
ARC
  5
C7C
330
A02
100
AcDbEntity
  8
Sketch
100
AcDbCircle
 10
77.9375
 20
-101.75
 30
0
 40
0.5
100
AcDbArc
 50
-90
 51
0
  0
LINE
  5
C7D
330
A02
100
AcDbEntity
  8
Sketch
100
AcDbLine
 10
64.9375
 20
-102.25
 30
0
 11
77.9375
 21
-102.25
 31
0
  0
ARC
  5
C7E
330
A02
100
AcDbEntity
  8
Sketch
100
AcDbCircle
 10
64.9375
 20
-101.75
 30
0
 40
0.5
100
AcDbArc
 50
180
 51
-90
  0
LINE
  5
C7F
330
A02
100
AcDbEntity
  8
Sketch
100
AcDbLine
 10
64.4375
 20
-88.75
 30
0
 11
64.4375
 21
-101.75
 31
0
  0
ARC
  5
C80
330
A02
100
AcDbEntity
  8
Sketch
100
AcDbCircle
 10
83.9875
 20
-88.75
 30
0
 40
0.5
100
AcDbArc
 50
90
 51
180
  0
LINE
  5
C81
330
A02
100
AcDbEntity
  8
Sketch
100
AcDbLine
 10
83.9875
 20
-88.25
 30
0
 11
96.9875
 21
-88.25
 31
0
  0
ARC
  5
C82
330
A02
100
AcDbEntity
  8
Sketch
100
AcDbCircle
 10
96.9875
 20
-88.75
 30
0
 40
0.5
100
AcDbArc
 50
0
 51
90
  0
LINE
  5
C83
330
A02
100
AcDbEntity
  8
Sketch
100
AcDbLine
 10
97.4875
 20
-88.75
 30
0
 11
97.4875
 21
-101.75
 31
0
  0
ARC
  5
C84
330
A02
100
AcDbEntity
  8
Sketch
100
AcDbCircle
 10
96.9875
 20
-101.75
 30
0
 40
0.5
100
AcDbArc
 50
-90
 51
0
  0
LINE
  5
C85
330
A02
100
AcDbEntity
  8
Sketch
100
AcDbLine
 10
83.9875
 20
-102.25
 30
0
 11
96.9875
 21
-102.25
 31
0
  0
ARC
  5
C86
330
A02
100
AcDbEntity
  8
Sketch
100
AcDbCircle
 10
83.9875
 20
-101.75
 30
0
 40
0.5
100
AcDbArc
 50
180
 51
-90
  0
LINE
  5
C87
330
A02
100
AcDbEntity
  8
Sketch
100
AcDbLine
 10
83.4875
 20
-88.75
 30
0
 11
83.4875
 21
-101.75
 31
0
  0
ARC
  5
C88
330
A02
100
AcDbEntity
  8
Sketch
100
AcDbCircle
 10
103.037
 20
-88.75
 30
0
 40
0.5
100
AcDbArc
 50
90
 51
180
  0
LINE
  5
C89
330
A02
100
AcDbEntity
  8
Sketch
100
AcDbLine
 10
103.037
 20
-88.25
 30
0
 11
116.037
 21
-88.25
 31
0
  0
ARC
  5
C8A
330
A02
100
AcDbEntity
  8
Sketch
100
AcDbCircle
 10
116.037
 20
-88.75
 30
0
 40
0.5
100
AcDbArc
 50
0
 51
90
  0
LINE
  5
C8B
330
A02
100
AcDbEntity
  8
Sketch
100
AcDbLine
 10
116.537
 20
-88.75
 30
0
 11
116.537
 21
-101.75
 31
0
  0
ARC
  5
C8C
330
A02
100
AcDbEntity
  8
Sketch
100
AcDbCircle
 10
116.037
 20
-101.75
 30
0
 40
0.5
100
AcDbArc
 50
-90
 51
0
  0
LINE
  5
C8D
330
A02
100
AcDbEntity
  8
Sketch
100
AcDbLine
 10
103.037
 20
-102.25
 30
0
 11
116.037
 21
-102.25
 31
0
  0
ARC
  5
C8E
330
A02
100
AcDbEntity
  8
Sketch
100
AcDbCircle
 10
103.037
 20
-101.75
 30
0
 40
0.5
100
AcDbArc
 50
180
 51
-90
  0
LINE
  5
C8F
330
A02
100
AcDbEntity
  8
Sketch
100
AcDbLine
 10
102.537
 20
-88.75
 30
0
 11
102.537
 21
-101.75
 31
0
  0
ARC
  5
C90
330
A02
100
AcDbEntity
  8
Sketch
100
AcDbCircle
 10
122.088
 20
-88.75
 30
0
 40
0.5
100
AcDbArc
 50
90
 51
180
  0
LINE
  5
C91
330
A02
100
AcDbEntity
  8
Sketch
100
AcDbLine
 10
122.088
 20
-88.25
 30
0
 11
135.088
 21
-88.25
 31
0
  0
ARC
  5
C92
330
A02
100
AcDbEntity
  8
Sketch
100
AcDbCircle
 10
135.088
 20
-88.75
 30
0
 40
0.5
100
AcDbArc
 50
0
 51
90
  0
LINE
  5
C93
330
A02
100
AcDbEntity
  8
Sketch
100
AcDbLine
 10
135.588
 20
-88.75
 30
0
 11
135.588
 21
-101.75
 31
0
  0
ARC
  5
C94
330
A02
100
AcDbEntity
  8
Sketch
100
AcDbCircle
 10
135.088
 20
-101.75
 30
0
 40
0.5
100
AcDbArc
 50
-90
 51
0
  0
LINE
  5
C95
330
A02
100
AcDbEntity
  8
Sketch
100
AcDbLine
 10
122.088
 20
-102.25
 30
0
 11
135.088
 21
-102.25
 31
0
  0
ARC
  5
C96
330
A02
100
AcDbEntity
  8
Sketch
100
AcDbCircle
 10
122.088
 20
-101.75
 30
0
 40
0.5
100
AcDbArc
 50
180
 51
-90
  0
LINE
  5
C97
330
A02
100
AcDbEntity
  8
Sketch
100
AcDbLine
 10
121.588
 20
-88.75
 30
0
 11
121.588
 21
-101.75
 31
0
  0
ARC
  5
C98
330
A02
100
AcDbEntity
  8
Sketch
100
AcDbCircle
 10
141.137
 20
-88.75
 30
0
 40
0.5
100
AcDbArc
 50
90
 51
180
  0
LINE
  5
C99
330
A02
100
AcDbEntity
  8
Sketch
100
AcDbLine
 10
141.137
 20
-88.25
 30
0
 11
154.137
 21
-88.25
 31
0
  0
ARC
  5
C9A
330
A02
100
AcDbEntity
  8
Sketch
100
AcDbCircle
 10
154.137
 20
-88.75
 30
0
 40
0.5
100
AcDbArc
 50
0
 51
90
  0
LINE
  5
C9B
330
A02
100
AcDbEntity
  8
Sketch
100
AcDbLine
 10
154.637
 20
-88.75
 30
0
 11
154.637
 21
-101.75
 31
0
  0
ARC
  5
C9C
330
A02
100
AcDbEntity
  8
Sketch
100
AcDbCircle
 10
154.137
 20
-101.75
 30
0
 40
0.5
100
AcDbArc
 50
-90
 51
0
  0
LINE
  5
C9D
330
A02
100
AcDbEntity
  8
Sketch
100
AcDbLine
 10
141.137
 20
-102.25
 30
0
 11
154.137
 21
-102.25
 31
0
  0
ARC
  5
C9E
330
A02
100
AcDbEntity
  8
Sketch
100
AcDbCircle
 10
141.137
 20
-101.75
 30
0
 40
0.5
100
AcDbArc
 50
180
 51
-90
  0
LINE
  5
C9F
330
A02
100
AcDbEntity
  8
Sketch
100
AcDbLine
 10
140.637
 20
-88.75
 30
0
 11
140.637
 21
-101.75
 31
0
  0
ARC
  5
CA0
330
A02
100
AcDbEntity
  8
Sketch
100
AcDbCircle
 10
160.188
 20
-88.75
 30
0
 40
0.5
100
AcDbArc
 50
90
 51
180
  0
LINE
  5
CA1
330
A02
100
AcDbEntity
  8
Sketch
100
AcDbLine
 10
160.188
 20
-88.25
 30
0
 11
173.188
 21
-88.25
 31
0
  0
ARC
  5
CA2
330
A02
100
AcDbEntity
  8
Sketch
100
AcDbCircle
 10
173.188
 20
-88.75
 30
0
 40
0.5
100
AcDbArc
 50
0
 51
90
  0
LINE
  5
CA3
330
A02
100
AcDbEntity
  8
Sketch
100
AcDbLine
 10
173.688
 20
-88.75
 30
0
 11
173.688
 21
-101.75
 31
0
  0
ARC
  5
CA4
330
A02
100
AcDbEntity
  8
Sketch
100
AcDbCircle
 10
173.188
 20
-101.75
 30
0
 40
0.5
100
AcDbArc
 50
-90
 51
0
  0
LINE
  5
CA5
330
A02
100
AcDbEntity
  8
Sketch
100
AcDbLine
 10
160.188
 20
-102.25
 30
0
 11
173.188
 21
-102.25
 31
0
  0
ARC
  5
CA6
330
A02
100
AcDbEntity
  8
Sketch
100
AcDbCircle
 10
160.188
 20
-101.75
 30
0
 40
0.5
100
AcDbArc
 50
180
 51
-90
  0
LINE
  5
CA7
330
A02
100
AcDbEntity
  8
Sketch
100
AcDbLine
 10
159.688
 20
-88.75
 30
0
 11
159.688
 21
-101.75
 31
0
  0
ARC
  5
CA8
330
A02
100
AcDbEntity
  8
Sketch
100
AcDbCircle
 10
179.238
 20
-88.75
 30
0
 40
0.5
100
AcDbArc
 50
90
 51
180
  0
LINE
  5
CA9
330
A02
100
AcDbEntity
  8
Sketch
100
AcDbLine
 10
179.238
 20
-88.25
 30
0
 11
192.238
 21
-88.25
 31
0
  0
ARC
  5
CAA
330
A02
100
AcDbEntity
  8
Sketch
100
AcDbCircle
 10
192.238
 20
-88.75
 30
0
 40
0.5
100
AcDbArc
 50
0
 51
90
  0
LINE
  5
CAB
330
A02
100
AcDbEntity
  8
Sketch
100
AcDbLine
 10
192.738
 20
-88.75
 30
0
 11
192.738
 21
-101.75
 31
0
  0
ARC
  5
CAC
330
A02
100
AcDbEntity
  8
Sketch
100
AcDbCircle
 10
192.238
 20
-101.75
 30
0
 40
0.5
100
AcDbArc
 50
-90
 51
0
  0
LINE
  5
CAD
330
A02
100
AcDbEntity
  8
Sketch
100
AcDbLine
 10
179.238
 20
-102.25
 30
0
 11
192.238
 21
-102.25
 31
0
  0
ARC
  5
CAE
330
A02
100
AcDbEntity
  8
Sketch
100
AcDbCircle
 10
179.238
 20
-101.75
 30
0
 40
0.5
100
AcDbArc
 50
180
 51
-90
  0
LINE
  5
CAF
330
A02
100
AcDbEntity
  8
Sketch
100
AcDbLine
 10
178.738
 20
-88.75
 30
0
 11
178.738
 21
-101.75
 31
0
  0
ARC
  5
CB0
330
A02
100
AcDbEntity
  8
Sketch
100
AcDbCircle
 10
198.287
 20
-88.75
 30
0
 40
0.5
100
AcDbArc
 50
90
 51
180
  0
LINE
  5
CB1
330
A02
100
AcDbEntity
  8
Sketch
100
AcDbLine
 10
198.287
 20
-88.25
 30
0
 11
211.287
 21
-88.25
 31
0
  0
ARC
  5
CB2
330
A02
100
AcDbEntity
  8
Sketch
100
AcDbCircle
 10
211.287
 20
-88.75
 30
0
 40
0.5
100
AcDbArc
 50
0
 51
90
  0
LINE
  5
CB3
330
A02
100
AcDbEntity
  8
Sketch
100
AcDbLine
 10
211.787
 20
-88.75
 30
0
 11
211.787
 21
-101.75
 31
0
  0
ARC
  5
CB4
330
A02
100
AcDbEntity
  8
Sketch
100
AcDbCircle
 10
211.287
 20
-101.75
 30
0
 40
0.5
100
AcDbArc
 50
-90
 51
0
  0
LINE
  5
CB5
330
A02
100
AcDbEntity
  8
Sketch
100
AcDbLine
 10
198.287
 20
-102.25
 30
0
 11
211.287
 21
-102.25
 31
0
  0
ARC
  5
CB6
330
A02
100
AcDbEntity
  8
Sketch
100
AcDbCircle
 10
198.287
 20
-101.75
 30
0
 40
0.5
100
AcDbArc
 50
180
 51
-90
  0
LINE
  5
CB7
330
A02
100
AcDbEntity
  8
Sketch
100
AcDbLine
 10
197.787
 20
-88.75
 30
0
 11
197.787
 21
-101.75
 31
0
  0
ARC
  5
CB8
330
A02
100
AcDbEntity
  8
Sketch
100
AcDbCircle
 10
217.338
 20
-88.75
 30
0
 40
0.5
100
AcDbArc
 50
90
 51
180
  0
LINE
  5
CB9
330
A02
100
AcDbEntity
  8
Sketch
100
AcDbLine
 10
217.338
 20
-88.25
 30
0
 11
230.338
 21
-88.25
 31
0
  0
ARC
  5
CBA
330
A02
100
AcDbEntity
  8
Sketch
100
AcDbCircle
 10
230.338
 20
-88.75
 30
0
 40
0.5
100
AcDbArc
 50
0
 51
90
  0
LINE
  5
CBB
330
A02
100
AcDbEntity
  8
Sketch
100
AcDbLine
 10
230.838
 20
-88.75
 30
0
 11
230.838
 21
-101.75
 31
0
  0
ARC
  5
CBC
330
A02
100
AcDbEntity
  8
Sketch
100
AcDbCircle
 10
230.338
 20
-101.75
 30
0
 40
0.5
100
AcDbArc
 50
-90
 51
0
  0
LINE
  5
CBD
330
A02
100
AcDbEntity
  8
Sketch
100
AcDbLine
 10
217.338
 20
-102.25
 30
0
 11
230.338
 21
-102.25
 31
0
  0
ARC
  5
CBE
330
A02
100
AcDbEntity
  8
Sketch
100
AcDbCircle
 10
217.338
 20
-101.75
 30
0
 40
0.5
100
AcDbArc
 50
180
 51
-90
  0
LINE
  5
CBF
330
A02
100
AcDbEntity
  8
Sketch
100
AcDbLine
 10
216.838
 20
-88.75
 30
0
 11
216.838
 21
-101.75
 31
0
  0
ARC
  5
CC0
330
A02
100
AcDbEntity
  8
Sketch
100
AcDbCircle
 10
243.531
 20
-88.75
 30
0
 40
0.5
100
AcDbArc
 50
90
 51
180
  0
LINE
  5
CC1
330
A02
100
AcDbEntity
  8
Sketch
100
AcDbLine
 10
243.531
 20
-88.25
 30
0
 11
256.531
 21
-88.25
 31
0
  0
ARC
  5
CC2
330
A02
100
AcDbEntity
  8
Sketch
100
AcDbCircle
 10
256.531
 20
-88.75
 30
0
 40
0.5
100
AcDbArc
 50
0
 51
90
  0
LINE
  5
CC3
330
A02
100
AcDbEntity
  8
Sketch
100
AcDbLine
 10
257.031
 20
-88.75
 30
0
 11
257.031
 21
-101.75
 31
0
  0
ARC
  5
CC4
330
A02
100
AcDbEntity
  8
Sketch
100
AcDbCircle
 10
256.531
 20
-101.75
 30
0
 40
0.5
100
AcDbArc
 50
-90
 51
0
  0
LINE
  5
CC5
330
A02
100
AcDbEntity
  8
Sketch
100
AcDbLine
 10
243.531
 20
-102.25
 30
0
 11
256.531
 21
-102.25
 31
0
  0
ARC
  5
CC6
330
A02
100
AcDbEntity
  8
Sketch
100
AcDbCircle
 10
243.531
 20
-101.75
 30
0
 40
0.5
100
AcDbArc
 50
180
 51
-90
  0
LINE
  5
CC7
330
A02
100
AcDbEntity
  8
Sketch
100
AcDbLine
 10
243.031
 20
-88.75
 30
0
 11
243.031
 21
-101.75
 31
0
  0
ARC
  5
CC8
330
A02
100
AcDbEntity
  8
Sketch
100
AcDbCircle
 10
267.344
 20
-88.75
 30
0
 40
0.5
100
AcDbArc
 50
90
 51
180
  0
LINE
  5
CC9
330
A02
100
AcDbEntity
  8
Sketch
100
AcDbLine
 10
267.344
 20
-88.25
 30
0
 11
280.344
 21
-88.25
 31
0
  0
ARC
  5
CCA
330
A02
100
AcDbEntity
  8
Sketch
100
AcDbCircle
 10
280.344
 20
-88.75
 30
0
 40
0.5
100
AcDbArc
 50
0
 51
90
  0
LINE
  5
CCB
330
A02
100
AcDbEntity
  8
Sketch
100
AcDbLine
 10
280.844
 20
-88.75
 30
0
 11
280.844
 21
-101.75
 31
0
  0
ARC
  5
CCC
330
A02
100
AcDbEntity
  8
Sketch
100
AcDbCircle
 10
280.344
 20
-101.75
 30
0
 40
0.5
100
AcDbArc
 50
-90
 51
0
  0
LINE
  5
CCD
330
A02
100
AcDbEntity
  8
Sketch
100
AcDbLine
 10
267.344
 20
-102.25
 30
0
 11
280.344
 21
-102.25
 31
0
  0
ARC
  5
CCE
330
A02
100
AcDbEntity
  8
Sketch
100
AcDbCircle
 10
267.344
 20
-101.75
 30
0
 40
0.5
100
AcDbArc
 50
180
 51
-90
  0
LINE
  5
CCF
330
A02
100
AcDbEntity
  8
Sketch
100
AcDbLine
 10
266.844
 20
-88.75
 30
0
 11
266.844
 21
-101.75
 31
0
  0
ARC
  5
CD0
330
A02
100
AcDbEntity
  8
Sketch
100
AcDbCircle
 10
293.538
 20
-88.75
 30
0
 40
0.5
100
AcDbArc
 50
90
 51
180
  0
LINE
  5
CD1
330
A02
100
AcDbEntity
  8
Sketch
100
AcDbLine
 10
293.538
 20
-88.25
 30
0
 11
306.538
 21
-88.25
 31
0
  0
ARC
  5
CD2
330
A02
100
AcDbEntity
  8
Sketch
100
AcDbCircle
 10
306.538
 20
-88.75
 30
0
 40
0.5
100
AcDbArc
 50
0
 51
90
  0
LINE
  5
CD3
330
A02
100
AcDbEntity
  8
Sketch
100
AcDbLine
 10
307.038
 20
-88.75
 30
0
 11
307.038
 21
-101.75
 31
0
  0
ARC
  5
CD4
330
A02
100
AcDbEntity
  8
Sketch
100
AcDbCircle
 10
306.538
 20
-101.75
 30
0
 40
0.5
100
AcDbArc
 50
-90
 51
0
  0
LINE
  5
CD5
330
A02
100
AcDbEntity
  8
Sketch
100
AcDbLine
 10
293.538
 20
-102.25
 30
0
 11
306.538
 21
-102.25
 31
0
  0
ARC
  5
CD6
330
A02
100
AcDbEntity
  8
Sketch
100
AcDbCircle
 10
293.538
 20
-101.75
 30
0
 40
0.5
100
AcDbArc
 50
180
 51
-90
  0
LINE
  5
CD7
330
A02
100
AcDbEntity
  8
Sketch
100
AcDbLine
 10
293.038
 20
-88.75
 30
0
 11
293.038
 21
-101.75
 31
0
  0
ARC
  5
CD8
330
A02
100
AcDbEntity
  8
Sketch
100
AcDbCircle
 10
317.35
 20
-88.75
 30
0
 40
0.5
100
AcDbArc
 50
90
 51
180
  0
LINE
  5
CD9
330
A02
100
AcDbEntity
  8
Sketch
100
AcDbLine
 10
317.35
 20
-88.25
 30
0
 11
330.35
 21
-88.25
 31
0
  0
ARC
  5
CDA
330
A02
100
AcDbEntity
  8
Sketch
100
AcDbCircle
 10
330.35
 20
-88.75
 30
0
 40
0.5
100
AcDbArc
 50
0
 51
90
  0
LINE
  5
CDB
330
A02
100
AcDbEntity
  8
Sketch
100
AcDbLine
 10
330.85
 20
-88.75
 30
0
 11
330.85
 21
-101.75
 31
0
  0
ARC
  5
CDC
330
A02
100
AcDbEntity
  8
Sketch
100
AcDbCircle
 10
330.35
 20
-101.75
 30
0
 40
0.5
100
AcDbArc
 50
-90
 51
0
  0
LINE
  5
CDD
330
A02
100
AcDbEntity
  8
Sketch
100
AcDbLine
 10
317.35
 20
-102.25
 30
0
 11
330.35
 21
-102.25
 31
0
  0
ARC
  5
CDE
330
A02
100
AcDbEntity
  8
Sketch
100
AcDbCircle
 10
317.35
 20
-101.75
 30
0
 40
0.5
100
AcDbArc
 50
180
 51
-90
  0
LINE
  5
CDF
330
A02
100
AcDbEntity
  8
Sketch
100
AcDbLine
 10
316.85
 20
-88.75
 30
0
 11
316.85
 21
-101.75
 31
0
  0
ARC
  5
CE0
330
A02
100
AcDbEntity
  8
Sketch
100
AcDbCircle
 10
336.4
 20
-88.75
 30
0
 40
0.5
100
AcDbArc
 50
90
 51
180
  0
LINE
  5
CE1
330
A02
100
AcDbEntity
  8
Sketch
100
AcDbLine
 10
336.4
 20
-88.25
 30
0
 11
349.4
 21
-88.25
 31
0
  0
ARC
  5
CE2
330
A02
100
AcDbEntity
  8
Sketch
100
AcDbCircle
 10
349.4
 20
-88.75
 30
0
 40
0.5
100
AcDbArc
 50
0
 51
90
  0
LINE
  5
CE3
330
A02
100
AcDbEntity
  8
Sketch
100
AcDbLine
 10
349.9
 20
-88.75
 30
0
 11
349.9
 21
-101.75
 31
0
  0
ARC
  5
CE4
330
A02
100
AcDbEntity
  8
Sketch
100
AcDbCircle
 10
349.4
 20
-101.75
 30
0
 40
0.5
100
AcDbArc
 50
-90
 51
0
  0
LINE
  5
CE5
330
A02
100
AcDbEntity
  8
Sketch
100
AcDbLine
 10
336.4
 20
-102.25
 30
0
 11
349.4
 21
-102.25
 31
0
  0
ARC
  5
CE6
330
A02
100
AcDbEntity
  8
Sketch
100
AcDbCircle
 10
336.4
 20
-101.75
 30
0
 40
0.5
100
AcDbArc
 50
180
 51
-90
  0
LINE
  5
CE7
330
A02
100
AcDbEntity
  8
Sketch
100
AcDbLine
 10
335.9
 20
-88.75
 30
0
 11
335.9
 21
-101.75
 31
0
  0
ARC
  5
CE8
330
A02
100
AcDbEntity
  8
Sketch
100
AcDbCircle
 10
355.45
 20
-88.75
 30
0
 40
0.5
100
AcDbArc
 50
90
 51
180
  0
LINE
  5
CE9
330
A02
100
AcDbEntity
  8
Sketch
100
AcDbLine
 10
355.45
 20
-88.25
 30
0
 11
368.45
 21
-88.25
 31
0
  0
ARC
  5
CEA
330
A02
100
AcDbEntity
  8
Sketch
100
AcDbCircle
 10
368.45
 20
-88.75
 30
0
 40
0.5
100
AcDbArc
 50
0
 51
90
  0
LINE
  5
CEB
330
A02
100
AcDbEntity
  8
Sketch
100
AcDbLine
 10
368.95
 20
-88.75
 30
0
 11
368.95
 21
-101.75
 31
0
  0
ARC
  5
CEC
330
A02
100
AcDbEntity
  8
Sketch
100
AcDbCircle
 10
368.45
 20
-101.75
 30
0
 40
0.5
100
AcDbArc
 50
-90
 51
0
  0
LINE
  5
CED
330
A02
100
AcDbEntity
  8
Sketch
100
AcDbLine
 10
355.45
 20
-102.25
 30
0
 11
368.45
 21
-102.25
 31
0
  0
ARC
  5
CEE
330
A02
100
AcDbEntity
  8
Sketch
100
AcDbCircle
 10
355.45
 20
-101.75
 30
0
 40
0.5
100
AcDbArc
 50
180
 51
-90
  0
LINE
  5
CEF
330
A02
100
AcDbEntity
  8
Sketch
100
AcDbLine
 10
354.95
 20
-88.75
 30
0
 11
354.95
 21
-101.75
 31
0
  0
ARC
  5
CF0
330
A02
100
AcDbEntity
  8
Sketch
100
AcDbCircle
 10
387.5
 20
-98.275
 30
0
 40
0.5
100
AcDbArc
 50
0
 51
90
  0
LINE
  5
CF1
330
A02
100
AcDbEntity
  8
Sketch
100
AcDbLine
 10
388
 20
-98.275
 30
0
 11
388
 21
-111.275
 31
0
  0
ARC
  5
CF2
330
A02
100
AcDbEntity
  8
Sketch
100
AcDbCircle
 10
387.5
 20
-111.275
 30
0
 40
0.5
100
AcDbArc
 50
-90
 51
0
  0
LINE
  5
CF3
330
A02
100
AcDbEntity
  8
Sketch
100
AcDbLine
 10
387.5
 20
-111.775
 30
0
 11
374.5
 21
-111.775
 31
0
  0
ARC
  5
CF4
330
A02
100
AcDbEntity
  8
Sketch
100
AcDbCircle
 10
374.5
 20
-111.275
 30
0
 40
0.5
100
AcDbArc
 50
180
 51
-90
  0
LINE
  5
CF5
330
A02
100
AcDbEntity
  8
Sketch
100
AcDbLine
 10
374
 20
-98.275
 30
0
 11
374
 21
-111.275
 31
0
  0
ARC
  5
CF6
330
A02
100
AcDbEntity
  8
Sketch
100
AcDbCircle
 10
374.5
 20
-98.275
 30
0
 40
0.5
100
AcDbArc
 50
90
 51
180
  0
LINE
  5
CF7
330
A02
100
AcDbEntity
  8
Sketch
100
AcDbLine
 10
387.5
 20
-97.775
 30
0
 11
374.5
 21
-97.775
 31
0
  0
ARC
  5
CF8
330
A02
100
AcDbEntity
  8
Sketch
100
AcDbCircle
 10
386.5
 20
-89.837
 30
0
 40
0.5
100
AcDbArc
 50
0
 51
90
  0
LINE
  5
CF9
330
A02
100
AcDbEntity
  8
Sketch
100
AcDbLine
 10
387
 20
-89.837
 30
0
 11
387
 21
-95.837
 31
0
  0
ARC
  5
CFA
330
A02
100
AcDbEntity
  8
Sketch
100
AcDbCircle
 10
386.5
 20
-95.837
 30
0
 40
0.5
100
AcDbArc
 50
-90
 51
0
  0
LINE
  5
CFB
330
A02
100
AcDbEntity
  8
Sketch
100
AcDbLine
 10
386.5
 20
-96.337
 30
0
 11
372.5
 21
-96.337
 31
0
  0
ARC
  5
CFC
330
A02
100
AcDbEntity
  8
Sketch
100
AcDbCircle
 10
372.5
 20
-95.837
 30
0
 40
0.5
100
AcDbArc
 50
180
 51
-90
  0
LINE
  5
CFD
330
A02
100
AcDbEntity
  8
Sketch
100
AcDbLine
 10
372
 20
-89.837
 30
0
 11
372
 21
-95.837
 31
0
  0
ARC
  5
CFE
330
A02
100
AcDbEntity
  8
Sketch
100
AcDbCircle
 10
372.5
 20
-89.837
 30
0
 40
0.5
100
AcDbArc
 50
90
 51
180
  0
LINE
  5
CFF
330
A02
100
AcDbEntity
  8
Sketch
100
AcDbLine
 10
386.5
 20
-89.337
 30
0
 11
372.5
 21
-89.337
 31
0
  0
ARC
  5
D00
330
A02
100
AcDbEntity
  8
Sketch
100
AcDbCircle
 10
386.5
 20
-113.713
 30
0
 40
0.5
100
AcDbArc
 50
0
 51
90
  0
LINE
  5
D01
330
A02
100
AcDbEntity
  8
Sketch
100
AcDbLine
 10
387
 20
-113.713
 30
0
 11
387
 21
-119.713
 31
0
  0
ARC
  5
D02
330
A02
100
AcDbEntity
  8
Sketch
100
AcDbCircle
 10
386.5
 20
-119.713
 30
0
 40
0.5
100
AcDbArc
 50
-90
 51
0
  0
LINE
  5
D03
330
A02
100
AcDbEntity
  8
Sketch
100
AcDbLine
 10
386.5
 20
-120.213
 30
0
 11
372.5
 21
-120.213
 31
0
  0
ARC
  5
D04
330
A02
100
AcDbEntity
  8
Sketch
100
AcDbCircle
 10
372.5
 20
-119.713
 30
0
 40
0.5
100
AcDbArc
 50
180
 51
-90
  0
LINE
  5
D05
330
A02
100
AcDbEntity
  8
Sketch
100
AcDbLine
 10
372
 20
-113.713
 30
0
 11
372
 21
-119.713
 31
0
  0
ARC
  5
D06
330
A02
100
AcDbEntity
  8
Sketch
100
AcDbCircle
 10
372.5
 20
-113.713
 30
0
 40
0.5
100
AcDbArc
 50
90
 51
180
  0
LINE
  5
D07
330
A02
100
AcDbEntity
  8
Sketch
100
AcDbLine
 10
386.5
 20
-113.213
 30
0
 11
372.5
 21
-113.213
 31
0
  0
ARC
  5
D08
330
A02
100
AcDbEntity
  8
Sketch
100
AcDbCircle
 10
5.40625
 20
-107.8
 30
0
 40
0.5
100
AcDbArc
 50
90
 51
180
  0
LINE
  5
D09
330
A02
100
AcDbEntity
  8
Sketch
100
AcDbLine
 10
5.40625
 20
-107.3
 30
0
 11
18.4062
 21
-107.3
 31
0
  0
ARC
  5
D0A
330
A02
100
AcDbEntity
  8
Sketch
100
AcDbCircle
 10
18.4062
 20
-107.8
 30
0
 40
0.5
100
AcDbArc
 50
0
 51
90
  0
LINE
  5
D0B
330
A02
100
AcDbEntity
  8
Sketch
100
AcDbLine
 10
18.9062
 20
-107.8
 30
0
 11
18.9062
 21
-120.8
 31
0
  0
ARC
  5
D0C
330
A02
100
AcDbEntity
  8
Sketch
100
AcDbCircle
 10
18.4062
 20
-120.8
 30
0
 40
0.5
100
AcDbArc
 50
-90
 51
0
  0
LINE
  5
D0D
330
A02
100
AcDbEntity
  8
Sketch
100
AcDbLine
 10
5.40625
 20
-121.3
 30
0
 11
18.4062
 21
-121.3
 31
0
  0
ARC
  5
D0E
330
A02
100
AcDbEntity
  8
Sketch
100
AcDbCircle
 10
5.40625
 20
-120.8
 30
0
 40
0.5
100
AcDbArc
 50
180
 51
-90
  0
LINE
  5
D0F
330
A02
100
AcDbEntity
  8
Sketch
100
AcDbLine
 10
4.90625
 20
-107.8
 30
0
 11
4.90625
 21
-120.8
 31
0
  0
ARC
  5
D10
330
A02
100
AcDbEntity
  8
Sketch
100
AcDbCircle
 10
29.2188
 20
-107.8
 30
0
 40
0.5
100
AcDbArc
 50
90
 51
180
  0
LINE
  5
D11
330
A02
100
AcDbEntity
  8
Sketch
100
AcDbLine
 10
29.2188
 20
-107.3
 30
0
 11
42.2188
 21
-107.3
 31
0
  0
ARC
  5
D12
330
A02
100
AcDbEntity
  8
Sketch
100
AcDbCircle
 10
42.2188
 20
-107.8
 30
0
 40
0.5
100
AcDbArc
 50
0
 51
90
  0
LINE
  5
D13
330
A02
100
AcDbEntity
  8
Sketch
100
AcDbLine
 10
42.7188
 20
-107.8
 30
0
 11
42.7188
 21
-120.8
 31
0
  0
ARC
  5
D14
330
A02
100
AcDbEntity
  8
Sketch
100
AcDbCircle
 10
42.2188
 20
-120.8
 30
0
 40
0.5
100
AcDbArc
 50
-90
 51
0
  0
LINE
  5
D15
330
A02
100
AcDbEntity
  8
Sketch
100
AcDbLine
 10
29.2188
 20
-121.3
 30
0
 11
42.2188
 21
-121.3
 31
0
  0
ARC
  5
D16
330
A02
100
AcDbEntity
  8
Sketch
100
AcDbCircle
 10
29.2188
 20
-120.8
 30
0
 40
0.5
100
AcDbArc
 50
180
 51
-90
  0
LINE
  5
D17
330
A02
100
AcDbEntity
  8
Sketch
100
AcDbLine
 10
28.7188
 20
-107.8
 30
0
 11
28.7188
 21
-120.8
 31
0
  0
ARC
  5
D18
330
A02
100
AcDbEntity
  8
Sketch
100
AcDbCircle
 10
53.0312
 20
-107.8
 30
0
 40
0.5
100
AcDbArc
 50
90
 51
180
  0
LINE
  5
D19
330
A02
100
AcDbEntity
  8
Sketch
100
AcDbLine
 10
53.0312
 20
-107.3
 30
0
 11
66.0312
 21
-107.3
 31
0
  0
ARC
  5
D1A
330
A02
100
AcDbEntity
  8
Sketch
100
AcDbCircle
 10
66.0312
 20
-107.8
 30
0
 40
0.5
100
AcDbArc
 50
0
 51
90
  0
LINE
  5
D1B
330
A02
100
AcDbEntity
  8
Sketch
100
AcDbLine
 10
66.5312
 20
-107.8
 30
0
 11
66.5312
 21
-120.8
 31
0
  0
ARC
  5
D1C
330
A02
100
AcDbEntity
  8
Sketch
100
AcDbCircle
 10
66.0312
 20
-120.8
 30
0
 40
0.5
100
AcDbArc
 50
-90
 51
0
  0
LINE
  5
D1D
330
A02
100
AcDbEntity
  8
Sketch
100
AcDbLine
 10
53.0312
 20
-121.3
 30
0
 11
66.0312
 21
-121.3
 31
0
  0
ARC
  5
D1E
330
A02
100
AcDbEntity
  8
Sketch
100
AcDbCircle
 10
53.0312
 20
-120.8
 30
0
 40
0.5
100
AcDbArc
 50
180
 51
-90
  0
LINE
  5
D1F
330
A02
100
AcDbEntity
  8
Sketch
100
AcDbLine
 10
52.5312
 20
-107.8
 30
0
 11
52.5312
 21
-120.8
 31
0
  0
ARC
  5
D20
330
A02
100
AcDbEntity
  8
Sketch
100
AcDbCircle
 10
76.8438
 20
-107.8
 30
0
 40
0.5
100
AcDbArc
 50
90
 51
180
  0
LINE
  5
D21
330
A02
100
AcDbEntity
  8
Sketch
100
AcDbLine
 10
76.8438
 20
-107.3
 30
0
 11
89.8438
 21
-107.3
 31
0
  0
ARC
  5
D22
330
A02
100
AcDbEntity
  8
Sketch
100
AcDbCircle
 10
89.8438
 20
-107.8
 30
0
 40
0.5
100
AcDbArc
 50
0
 51
90
  0
LINE
  5
D23
330
A02
100
AcDbEntity
  8
Sketch
100
AcDbLine
 10
90.3438
 20
-107.8
 30
0
 11
90.3438
 21
-120.8
 31
0
  0
ARC
  5
D24
330
A02
100
AcDbEntity
  8
Sketch
100
AcDbCircle
 10
89.8438
 20
-120.8
 30
0
 40
0.5
100
AcDbArc
 50
-90
 51
0
  0
LINE
  5
D25
330
A02
100
AcDbEntity
  8
Sketch
100
AcDbLine
 10
76.8438
 20
-121.3
 30
0
 11
89.8438
 21
-121.3
 31
0
  0
ARC
  5
D26
330
A02
100
AcDbEntity
  8
Sketch
100
AcDbCircle
 10
76.8438
 20
-120.8
 30
0
 40
0.5
100
AcDbArc
 50
180
 51
-90
  0
LINE
  5
D27
330
A02
100
AcDbEntity
  8
Sketch
100
AcDbLine
 10
76.3438
 20
-107.8
 30
0
 11
76.3438
 21
-120.8
 31
0
  0
ARC
  5
D28
330
A02
100
AcDbEntity
  8
Sketch
100
AcDbCircle
 10
114.944
 20
-107.8
 30
0
 40
0.5
100
AcDbArc
 50
90
 51
180
  0
LINE
  5
D29
330
A02
100
AcDbEntity
  8
Sketch
100
AcDbLine
 10
114.944
 20
-107.3
 30
0
 11
127.944
 21
-107.3
 31
0
  0
ARC
  5
D2A
330
A02
100
AcDbEntity
  8
Sketch
100
AcDbCircle
 10
127.944
 20
-107.8
 30
0
 40
0.5
100
AcDbArc
 50
0
 51
90
  0
LINE
  5
D2B
330
A02
100
AcDbEntity
  8
Sketch
100
AcDbLine
 10
128.444
 20
-107.8
 30
0
 11
128.444
 21
-120.8
 31
0
  0
ARC
  5
D2C
330
A02
100
AcDbEntity
  8
Sketch
100
AcDbCircle
 10
127.944
 20
-120.8
 30
0
 40
0.5
100
AcDbArc
 50
-90
 51
0
  0
LINE
  5
D2D
330
A02
100
AcDbEntity
  8
Sketch
100
AcDbLine
 10
114.944
 20
-121.3
 30
0
 11
127.944
 21
-121.3
 31
0
  0
ARC
  5
D2E
330
A02
100
AcDbEntity
  8
Sketch
100
AcDbCircle
 10
114.944
 20
-120.8
 30
0
 40
0.5
100
AcDbArc
 50
180
 51
-90
  0
LINE
  5
D2F
330
A02
100
AcDbEntity
  8
Sketch
100
AcDbLine
 10
114.444
 20
-107.8
 30
0
 11
114.444
 21
-120.8
 31
0
  0
ARC
  5
D30
330
A02
100
AcDbEntity
  8
Sketch
100
AcDbCircle
 10
106.506
 20
-108.8
 30
0
 40
0.5
100
AcDbArc
 50
90
 51
180
  0
LINE
  5
D31
330
A02
100
AcDbEntity
  8
Sketch
100
AcDbLine
 10
106.506
 20
-108.3
 30
0
 11
112.506
 21
-108.3
 31
0
  0
ARC
  5
D32
330
A02
100
AcDbEntity
  8
Sketch
100
AcDbCircle
 10
112.506
 20
-108.8
 30
0
 40
0.5
100
AcDbArc
 50
0
 51
90
  0
LINE
  5
D33
330
A02
100
AcDbEntity
  8
Sketch
100
AcDbLine
 10
113.006
 20
-108.8
 30
0
 11
113.006
 21
-122.8
 31
0
  0
ARC
  5
D34
330
A02
100
AcDbEntity
  8
Sketch
100
AcDbCircle
 10
112.506
 20
-122.8
 30
0
 40
0.5
100
AcDbArc
 50
-90
 51
0
  0
LINE
  5
D35
330
A02
100
AcDbEntity
  8
Sketch
100
AcDbLine
 10
106.506
 20
-123.3
 30
0
 11
112.506
 21
-123.3
 31
0
  0
ARC
  5
D36
330
A02
100
AcDbEntity
  8
Sketch
100
AcDbCircle
 10
106.506
 20
-122.8
 30
0
 40
0.5
100
AcDbArc
 50
180
 51
-90
  0
LINE
  5
D37
330
A02
100
AcDbEntity
  8
Sketch
100
AcDbLine
 10
106.006
 20
-108.8
 30
0
 11
106.006
 21
-122.8
 31
0
  0
ARC
  5
D38
330
A02
100
AcDbEntity
  8
Sketch
100
AcDbCircle
 10
130.382
 20
-108.8
 30
0
 40
0.5
100
AcDbArc
 50
90
 51
180
  0
LINE
  5
D39
330
A02
100
AcDbEntity
  8
Sketch
100
AcDbLine
 10
130.382
 20
-108.3
 30
0
 11
136.382
 21
-108.3
 31
0
  0
ARC
  5
D3A
330
A02
100
AcDbEntity
  8
Sketch
100
AcDbCircle
 10
136.382
 20
-108.8
 30
0
 40
0.5
100
AcDbArc
 50
0
 51
90
  0
LINE
  5
D3B
330
A02
100
AcDbEntity
  8
Sketch
100
AcDbLine
 10
136.882
 20
-108.8
 30
0
 11
136.882
 21
-122.8
 31
0
  0
ARC
  5
D3C
330
A02
100
AcDbEntity
  8
Sketch
100
AcDbCircle
 10
136.382
 20
-122.8
 30
0
 40
0.5
100
AcDbArc
 50
-90
 51
0
  0
LINE
  5
D3D
330
A02
100
AcDbEntity
  8
Sketch
100
AcDbLine
 10
130.382
 20
-123.3
 30
0
 11
136.382
 21
-123.3
 31
0
  0
ARC
  5
D3E
330
A02
100
AcDbEntity
  8
Sketch
100
AcDbCircle
 10
130.382
 20
-122.8
 30
0
 40
0.5
100
AcDbArc
 50
180
 51
-90
  0
LINE
  5
D3F
330
A02
100
AcDbEntity
  8
Sketch
100
AcDbLine
 10
129.882
 20
-108.8
 30
0
 11
129.882
 21
-122.8
 31
0
  0
ARC
  5
D40
330
A02
100
AcDbEntity
  8
Sketch
100
AcDbCircle
 10
160.188
 20
-107.8
 30
0
 40
0.5
100
AcDbArc
 50
90
 51
180
  0
LINE
  5
D41
330
A02
100
AcDbEntity
  8
Sketch
100
AcDbLine
 10
160.188
 20
-107.3
 30
0
 11
173.188
 21
-107.3
 31
0
  0
ARC
  5
D42
330
A02
100
AcDbEntity
  8
Sketch
100
AcDbCircle
 10
173.188
 20
-107.8
 30
0
 40
0.5
100
AcDbArc
 50
0
 51
90
  0
LINE
  5
D43
330
A02
100
AcDbEntity
  8
Sketch
100
AcDbLine
 10
173.688
 20
-107.8
 30
0
 11
173.688
 21
-120.8
 31
0
  0
ARC
  5
D44
330
A02
100
AcDbEntity
  8
Sketch
100
AcDbCircle
 10
173.188
 20
-120.8
 30
0
 40
0.5
100
AcDbArc
 50
-90
 51
0
  0
LINE
  5
D45
330
A02
100
AcDbEntity
  8
Sketch
100
AcDbLine
 10
160.188
 20
-121.3
 30
0
 11
173.188
 21
-121.3
 31
0
  0
ARC
  5
D46
330
A02
100
AcDbEntity
  8
Sketch
100
AcDbCircle
 10
160.188
 20
-120.8
 30
0
 40
0.5
100
AcDbArc
 50
180
 51
-90
  0
LINE
  5
D47
330
A02
100
AcDbEntity
  8
Sketch
100
AcDbLine
 10
159.688
 20
-107.8
 30
0
 11
159.688
 21
-120.8
 31
0
  0
ARC
  5
D48
330
A02
100
AcDbEntity
  8
Sketch
100
AcDbCircle
 10
151.75
 20
-108.8
 30
0
 40
0.5
100
AcDbArc
 50
90
 51
180
  0
LINE
  5
D49
330
A02
100
AcDbEntity
  8
Sketch
100
AcDbLine
 10
151.75
 20
-108.3
 30
0
 11
157.75
 21
-108.3
 31
0
  0
ARC
  5
D4A
330
A02
100
AcDbEntity
  8
Sketch
100
AcDbCircle
 10
157.75
 20
-108.8
 30
0
 40
0.5
100
AcDbArc
 50
0
 51
90
  0
LINE
  5
D4B
330
A02
100
AcDbEntity
  8
Sketch
100
AcDbLine
 10
158.25
 20
-108.8
 30
0
 11
158.25
 21
-122.8
 31
0
  0
ARC
  5
D4C
330
A02
100
AcDbEntity
  8
Sketch
100
AcDbCircle
 10
157.75
 20
-122.8
 30
0
 40
0.5
100
AcDbArc
 50
-90
 51
0
  0
LINE
  5
D4D
330
A02
100
AcDbEntity
  8
Sketch
100
AcDbLine
 10
151.75
 20
-123.3
 30
0
 11
157.75
 21
-123.3
 31
0
  0
ARC
  5
D4E
330
A02
100
AcDbEntity
  8
Sketch
100
AcDbCircle
 10
151.75
 20
-122.8
 30
0
 40
0.5
100
AcDbArc
 50
180
 51
-90
  0
LINE
  5
D4F
330
A02
100
AcDbEntity
  8
Sketch
100
AcDbLine
 10
151.25
 20
-108.8
 30
0
 11
151.25
 21
-122.8
 31
0
  0
ARC
  5
D50
330
A02
100
AcDbEntity
  8
Sketch
100
AcDbCircle
 10
175.625
 20
-108.8
 30
0
 40
0.5
100
AcDbArc
 50
90
 51
180
  0
LINE
  5
D51
330
A02
100
AcDbEntity
  8
Sketch
100
AcDbLine
 10
175.625
 20
-108.3
 30
0
 11
181.625
 21
-108.3
 31
0
  0
ARC
  5
D52
330
A02
100
AcDbEntity
  8
Sketch
100
AcDbCircle
 10
181.625
 20
-108.8
 30
0
 40
0.5
100
AcDbArc
 50
0
 51
90
  0
LINE
  5
D53
330
A02
100
AcDbEntity
  8
Sketch
100
AcDbLine
 10
182.125
 20
-108.8
 30
0
 11
182.125
 21
-122.8
 31
0
  0
ARC
  5
D54
330
A02
100
AcDbEntity
  8
Sketch
100
AcDbCircle
 10
181.625
 20
-122.8
 30
0
 40
0.5
100
AcDbArc
 50
-90
 51
0
  0
LINE
  5
D55
330
A02
100
AcDbEntity
  8
Sketch
100
AcDbLine
 10
175.625
 20
-123.3
 30
0
 11
181.625
 21
-123.3
 31
0
  0
ARC
  5
D56
330
A02
100
AcDbEntity
  8
Sketch
100
AcDbCircle
 10
175.625
 20
-122.8
 30
0
 40
0.5
100
AcDbArc
 50
180
 51
-90
  0
LINE
  5
D57
330
A02
100
AcDbEntity
  8
Sketch
100
AcDbLine
 10
175.125
 20
-108.8
 30
0
 11
175.125
 21
-122.8
 31
0
  0
ARC
  5
D58
330
A02
100
AcDbEntity
  8
Sketch
100
AcDbCircle
 10
193.525
 20
-107.8
 30
0
 40
0.5
100
AcDbArc
 50
90
 51
180
  0
LINE
  5
D59
330
A02
100
AcDbEntity
  8
Sketch
100
AcDbLine
 10
193.525
 20
-107.3
 30
0
 11
206.525
 21
-107.3
 31
0
  0
ARC
  5
D5A
330
A02
100
AcDbEntity
  8
Sketch
100
AcDbCircle
 10
206.525
 20
-107.8
 30
0
 40
0.5
100
AcDbArc
 50
0
 51
90
  0
LINE
  5
D5B
330
A02
100
AcDbEntity
  8
Sketch
100
AcDbLine
 10
207.025
 20
-107.8
 30
0
 11
207.025
 21
-120.8
 31
0
  0
ARC
  5
D5C
330
A02
100
AcDbEntity
  8
Sketch
100
AcDbCircle
 10
206.525
 20
-120.8
 30
0
 40
0.5
100
AcDbArc
 50
-90
 51
0
  0
LINE
  5
D5D
330
A02
100
AcDbEntity
  8
Sketch
100
AcDbLine
 10
193.525
 20
-121.3
 30
0
 11
206.525
 21
-121.3
 31
0
  0
ARC
  5
D5E
330
A02
100
AcDbEntity
  8
Sketch
100
AcDbCircle
 10
193.525
 20
-120.8
 30
0
 40
0.5
100
AcDbArc
 50
180
 51
-90
  0
LINE
  5
D5F
330
A02
100
AcDbEntity
  8
Sketch
100
AcDbLine
 10
193.025
 20
-107.8
 30
0
 11
193.025
 21
-120.8
 31
0
  0
ARC
  5
D60
330
A02
100
AcDbEntity
  8
Sketch
100
AcDbCircle
 10
219.719
 20
-107.8
 30
0
 40
0.5
100
AcDbArc
 50
90
 51
180
  0
LINE
  5
D61
330
A02
100
AcDbEntity
  8
Sketch
100
AcDbLine
 10
219.719
 20
-107.3
 30
0
 11
232.719
 21
-107.3
 31
0
  0
ARC
  5
D62
330
A02
100
AcDbEntity
  8
Sketch
100
AcDbCircle
 10
232.719
 20
-107.8
 30
0
 40
0.5
100
AcDbArc
 50
0
 51
90
  0
LINE
  5
D63
330
A02
100
AcDbEntity
  8
Sketch
100
AcDbLine
 10
233.219
 20
-107.8
 30
0
 11
233.219
 21
-120.8
 31
0
  0
ARC
  5
D64
330
A02
100
AcDbEntity
  8
Sketch
100
AcDbCircle
 10
232.719
 20
-120.8
 30
0
 40
0.5
100
AcDbArc
 50
-90
 51
0
  0
LINE
  5
D65
330
A02
100
AcDbEntity
  8
Sketch
100
AcDbLine
 10
219.719
 20
-121.3
 30
0
 11
232.719
 21
-121.3
 31
0
  0
ARC
  5
D66
330
A02
100
AcDbEntity
  8
Sketch
100
AcDbCircle
 10
219.719
 20
-120.8
 30
0
 40
0.5
100
AcDbArc
 50
180
 51
-90
  0
LINE
  5
D67
330
A02
100
AcDbEntity
  8
Sketch
100
AcDbLine
 10
219.219
 20
-107.8
 30
0
 11
219.219
 21
-120.8
 31
0
  0
ARC
  5
D68
330
A02
100
AcDbEntity
  8
Sketch
100
AcDbCircle
 10
243.531
 20
-107.8
 30
0
 40
0.5
100
AcDbArc
 50
90
 51
180
  0
LINE
  5
D69
330
A02
100
AcDbEntity
  8
Sketch
100
AcDbLine
 10
243.531
 20
-107.3
 30
0
 11
256.531
 21
-107.3
 31
0
  0
ARC
  5
D6A
330
A02
100
AcDbEntity
  8
Sketch
100
AcDbCircle
 10
256.531
 20
-107.8
 30
0
 40
0.5
100
AcDbArc
 50
0
 51
90
  0
LINE
  5
D6B
330
A02
100
AcDbEntity
  8
Sketch
100
AcDbLine
 10
257.031
 20
-107.8
 30
0
 11
257.031
 21
-120.8
 31
0
  0
ARC
  5
D6C
330
A02
100
AcDbEntity
  8
Sketch
100
AcDbCircle
 10
256.531
 20
-120.8
 30
0
 40
0.5
100
AcDbArc
 50
-90
 51
0
  0
LINE
  5
D6D
330
A02
100
AcDbEntity
  8
Sketch
100
AcDbLine
 10
243.531
 20
-121.3
 30
0
 11
256.531
 21
-121.3
 31
0
  0
ARC
  5
D6E
330
A02
100
AcDbEntity
  8
Sketch
100
AcDbCircle
 10
243.531
 20
-120.8
 30
0
 40
0.5
100
AcDbArc
 50
180
 51
-90
  0
LINE
  5
D6F
330
A02
100
AcDbEntity
  8
Sketch
100
AcDbLine
 10
243.031
 20
-107.8
 30
0
 11
243.031
 21
-120.8
 31
0
  0
ARC
  5
D70
330
A02
100
AcDbEntity
  8
Sketch
100
AcDbCircle
 10
267.344
 20
-107.8
 30
0
 40
0.5
100
AcDbArc
 50
90
 51
180
  0
LINE
  5
D71
330
A02
100
AcDbEntity
  8
Sketch
100
AcDbLine
 10
267.344
 20
-107.3
 30
0
 11
280.344
 21
-107.3
 31
0
  0
ARC
  5
D72
330
A02
100
AcDbEntity
  8
Sketch
100
AcDbCircle
 10
280.344
 20
-107.8
 30
0
 40
0.5
100
AcDbArc
 50
0
 51
90
  0
LINE
  5
D73
330
A02
100
AcDbEntity
  8
Sketch
100
AcDbLine
 10
280.844
 20
-107.8
 30
0
 11
280.844
 21
-120.8
 31
0
  0
ARC
  5
D74
330
A02
100
AcDbEntity
  8
Sketch
100
AcDbCircle
 10
280.344
 20
-120.8
 30
0
 40
0.5
100
AcDbArc
 50
-90
 51
0
  0
LINE
  5
D75
330
A02
100
AcDbEntity
  8
Sketch
100
AcDbLine
 10
267.344
 20
-121.3
 30
0
 11
280.344
 21
-121.3
 31
0
  0
ARC
  5
D76
330
A02
100
AcDbEntity
  8
Sketch
100
AcDbCircle
 10
267.344
 20
-120.8
 30
0
 40
0.5
100
AcDbArc
 50
180
 51
-90
  0
LINE
  5
D77
330
A02
100
AcDbEntity
  8
Sketch
100
AcDbLine
 10
266.844
 20
-107.8
 30
0
 11
266.844
 21
-120.8
 31
0
  0
ARC
  5
D78
330
A02
100
AcDbEntity
  8
Sketch
100
AcDbCircle
 10
293.538
 20
-107.8
 30
0
 40
0.5
100
AcDbArc
 50
90
 51
180
  0
LINE
  5
D79
330
A02
100
AcDbEntity
  8
Sketch
100
AcDbLine
 10
293.538
 20
-107.3
 30
0
 11
306.538
 21
-107.3
 31
0
  0
ARC
  5
D7A
330
A02
100
AcDbEntity
  8
Sketch
100
AcDbCircle
 10
306.538
 20
-107.8
 30
0
 40
0.5
100
AcDbArc
 50
0
 51
90
  0
LINE
  5
D7B
330
A02
100
AcDbEntity
  8
Sketch
100
AcDbLine
 10
307.038
 20
-107.8
 30
0
 11
307.038
 21
-120.8
 31
0
  0
ARC
  5
D7C
330
A02
100
AcDbEntity
  8
Sketch
100
AcDbCircle
 10
306.538
 20
-120.8
 30
0
 40
0.5
100
AcDbArc
 50
-90
 51
0
  0
LINE
  5
D7D
330
A02
100
AcDbEntity
  8
Sketch
100
AcDbLine
 10
293.538
 20
-121.3
 30
0
 11
306.538
 21
-121.3
 31
0
  0
ARC
  5
D7E
330
A02
100
AcDbEntity
  8
Sketch
100
AcDbCircle
 10
293.538
 20
-120.8
 30
0
 40
0.5
100
AcDbArc
 50
180
 51
-90
  0
LINE
  5
D7F
330
A02
100
AcDbEntity
  8
Sketch
100
AcDbLine
 10
293.038
 20
-107.8
 30
0
 11
293.038
 21
-120.8
 31
0
  0
ARC
  5
D80
330
A02
100
AcDbEntity
  8
Sketch
100
AcDbCircle
 10
326.875
 20
-107.8
 30
0
 40
0.5
100
AcDbArc
 50
90
 51
180
  0
LINE
  5
D81
330
A02
100
AcDbEntity
  8
Sketch
100
AcDbLine
 10
326.875
 20
-107.3
 30
0
 11
339.875
 21
-107.3
 31
0
  0
ARC
  5
D82
330
A02
100
AcDbEntity
  8
Sketch
100
AcDbCircle
 10
339.875
 20
-107.8
 30
0
 40
0.5
100
AcDbArc
 50
0
 51
90
  0
LINE
  5
D83
330
A02
100
AcDbEntity
  8
Sketch
100
AcDbLine
 10
340.375
 20
-107.8
 30
0
 11
340.375
 21
-120.8
 31
0
  0
ARC
  5
D84
330
A02
100
AcDbEntity
  8
Sketch
100
AcDbCircle
 10
339.875
 20
-120.8
 30
0
 40
0.5
100
AcDbArc
 50
-90
 51
0
  0
LINE
  5
D85
330
A02
100
AcDbEntity
  8
Sketch
100
AcDbLine
 10
326.875
 20
-121.3
 30
0
 11
339.875
 21
-121.3
 31
0
  0
ARC
  5
D86
330
A02
100
AcDbEntity
  8
Sketch
100
AcDbCircle
 10
326.875
 20
-120.8
 30
0
 40
0.5
100
AcDbArc
 50
180
 51
-90
  0
LINE
  5
D87
330
A02
100
AcDbEntity
  8
Sketch
100
AcDbLine
 10
326.375
 20
-107.8
 30
0
 11
326.375
 21
-120.8
 31
0
  0
ARC
  5
D88
330
A02
100
AcDbEntity
  8
Sketch
100
AcDbCircle
 10
318.437
 20
-108.8
 30
0
 40
0.5
100
AcDbArc
 50
90
 51
180
  0
LINE
  5
D89
330
A02
100
AcDbEntity
  8
Sketch
100
AcDbLine
 10
318.437
 20
-108.3
 30
0
 11
324.437
 21
-108.3
 31
0
  0
ARC
  5
D8A
330
A02
100
AcDbEntity
  8
Sketch
100
AcDbCircle
 10
324.437
 20
-108.8
 30
0
 40
0.5
100
AcDbArc
 50
0
 51
90
  0
LINE
  5
D8B
330
A02
100
AcDbEntity
  8
Sketch
100
AcDbLine
 10
324.937
 20
-108.8
 30
0
 11
324.937
 21
-122.8
 31
0
  0
ARC
  5
D8C
330
A02
100
AcDbEntity
  8
Sketch
100
AcDbCircle
 10
324.437
 20
-122.8
 30
0
 40
0.5
100
AcDbArc
 50
-90
 51
0
  0
LINE
  5
D8D
330
A02
100
AcDbEntity
  8
Sketch
100
AcDbLine
 10
318.437
 20
-123.3
 30
0
 11
324.437
 21
-123.3
 31
0
  0
ARC
  5
D8E
330
A02
100
AcDbEntity
  8
Sketch
100
AcDbCircle
 10
318.437
 20
-122.8
 30
0
 40
0.5
100
AcDbArc
 50
180
 51
-90
  0
LINE
  5
D8F
330
A02
100
AcDbEntity
  8
Sketch
100
AcDbLine
 10
317.937
 20
-108.8
 30
0
 11
317.937
 21
-122.8
 31
0
  0
ARC
  5
D90
330
A02
100
AcDbEntity
  8
Sketch
100
AcDbCircle
 10
342.313
 20
-108.8
 30
0
 40
0.5
100
AcDbArc
 50
90
 51
180
  0
LINE
  5
D91
330
A02
100
AcDbEntity
  8
Sketch
100
AcDbLine
 10
342.313
 20
-108.3
 30
0
 11
348.313
 21
-108.3
 31
0
  0
ARC
  5
D92
330
A02
100
AcDbEntity
  8
Sketch
100
AcDbCircle
 10
348.313
 20
-108.8
 30
0
 40
0.5
100
AcDbArc
 50
0
 51
90
  0
LINE
  5
D93
330
A02
100
AcDbEntity
  8
Sketch
100
AcDbLine
 10
348.813
 20
-108.8
 30
0
 11
348.813
 21
-122.8
 31
0
  0
ARC
  5
D94
330
A02
100
AcDbEntity
  8
Sketch
100
AcDbCircle
 10
348.313
 20
-122.8
 30
0
 40
0.5
100
AcDbArc
 50
-90
 51
0
  0
LINE
  5
D95
330
A02
100
AcDbEntity
  8
Sketch
100
AcDbLine
 10
342.313
 20
-123.3
 30
0
 11
348.313
 21
-123.3
 31
0
  0
ARC
  5
D96
330
A02
100
AcDbEntity
  8
Sketch
100
AcDbCircle
 10
342.313
 20
-122.8
 30
0
 40
0.5
100
AcDbArc
 50
180
 51
-90
  0
LINE
  5
D97
330
A02
100
AcDbEntity
  8
Sketch
100
AcDbLine
 10
341.813
 20
-108.8
 30
0
 11
341.813
 21
-122.8
 31
0
  0
ARC
  5
D98
330
A02
100
AcDbEntity
  8
Sketch
100
AcDbCircle
 10
355.45
 20
-107.8
 30
0
 40
0.5
100
AcDbArc
 50
90
 51
180
  0
LINE
  5
D99
330
A02
100
AcDbEntity
  8
Sketch
100
AcDbLine
 10
355.45
 20
-107.3
 30
0
 11
368.45
 21
-107.3
 31
0
  0
ARC
  5
D9A
330
A02
100
AcDbEntity
  8
Sketch
100
AcDbCircle
 10
368.45
 20
-107.8
 30
0
 40
0.5
100
AcDbArc
 50
0
 51
90
  0
LINE
  5
D9B
330
A02
100
AcDbEntity
  8
Sketch
100
AcDbLine
 10
368.95
 20
-107.8
 30
0
 11
368.95
 21
-120.8
 31
0
  0
ARC
  5
D9C
330
A02
100
AcDbEntity
  8
Sketch
100
AcDbCircle
 10
368.45
 20
-120.8
 30
0
 40
0.5
100
AcDbArc
 50
-90
 51
0
  0
LINE
  5
D9D
330
A02
100
AcDbEntity
  8
Sketch
100
AcDbLine
 10
355.45
 20
-121.3
 30
0
 11
368.45
 21
-121.3
 31
0
  0
ARC
  5
D9E
330
A02
100
AcDbEntity
  8
Sketch
100
AcDbCircle
 10
355.45
 20
-120.8
 30
0
 40
0.5
100
AcDbArc
 50
180
 51
-90
  0
LINE
  5
D9F
330
A02
100
AcDbEntity
  8
Sketch
100
AcDbLine
 10
354.95
 20
-107.8
 30
0
 11
354.95
 21
-120.8
 31
0
  0
CIRCLE
  5
DA0
330
A02
100
AcDbEntity
  8
Sketch
100
AcDbCircle
 10
-2.168
 20
2.2035
 40
2
  0
CIRCLE
  5
DA1
330
A02
100
AcDbEntity
  8
Sketch
100
AcDbCircle
 10
395.342
 20
2.2035
 40
2
  0
CIRCLE
  5
DA2
330
A02
100
AcDbEntity
  8
Sketch
100
AcDbCircle
 10
395.342
 20
-127.555
 40
2
  0
CIRCLE
  5
DA3
330
A02
100
AcDbEntity
  8
Sketch
100
AcDbCircle
 10
-2.168
 20
-127.555
 40
2
  0
CIRCLE
  5
DA4
330
A02
100
AcDbEntity
  8
Sketch
100
AcDbCircle
 10
204.837
 20
0.9285
 40
2
  0
CIRCLE
  5
DA5
330
A02
100
AcDbEntity
  8
Sketch
100
AcDbCircle
 10
201.022
 20
-128.745
 40
2
  0
LINE
  5
DA6
330
A02
100
AcDbEntity
  8
Sketch
100
AcDbLine
 10
400.432
 20
-132.606
 30
0
 11
400.432
 21
8.2935
 31
0
  0
LINE
  5
DA7
330
A02
100
AcDbEntity
  8
Sketch
100
AcDbLine
 10
400.432
 20
8.2935
 30
0
 11
-7.268
 21
8.2935
 31
0
  0
LINE
  5
DA8
330
A02
100
AcDbEntity
  8
Sketch
100
AcDbLine
 10
-7.268
 20
8.2935
 30
0
 11
-7.268
 21
-132.606
 31
0
  0
LINE
  5
DA9
330
A02
100
AcDbEntity
  8
Sketch
100
AcDbLine
 10
-7.268
 20
-132.606
 30
0
 11
400.432
 21
-132.606
 31
0
  0
LINE
  5
DAA
330
A02
100
AcDbEntity
  8
Sketch
100
AcDbLine
 10
293.038
 20
-4.7875
 30
0
 11
388
 21
-4.7875
 31
0
  0
LINE
  5
DAB
330
A02
100
AcDbEntity
  8
Sketch
100
AcDbLine
 10
388
 20
-4.7875
 30
0
 11
388
 21
-26.1
 31
0
  0
LINE
  5
DAC
330
A02
100
AcDbEntity
  8
Sketch
100
AcDbLine
 10
388
 20
-26.1
 30
0
 11
293.038
 21
-26.1
 31
0
  0
LINE
  5
DAD
330
A02
100
AcDbEntity
  8
Sketch
100
AcDbLine
 10
293.038
 20
-26.1
 30
0
 11
293.038
 21
-4.7875
 31
0
  0
ENDSEC
  0
SECTION
  2
OBJECTS
  0
DICTIONARY
  5
F000
330
0
100
AcDbDictionary
  3
ACAD_GROUP
350
F001
  0
DICTIONARY
  5
F001
330
F000
100
AcDbDictionary
  0
ENDSEC
  0
EOF