<?xml version="1.0" encoding="UTF-8" standalone="no"?>
<!-- Created with Inkscape (http://www.inkscape.org/) -->

<svg
   xmlns:dc="http://purl.org/dc/elements/1.1/"
   xmlns:cc="http://creativecommons.org/ns#"
   xmlns:rdf="http://www.w3.org/1999/02/22-rdf-syntax-ns#"
   xmlns:svg="http://www.w3.org/2000/svg"
   xmlns="http://www.w3.org/2000/svg"
   xmlns:sodipodi="http://sodipodi.sourceforge.net/DTD/sodipodi-0.dtd"
   xmlns:inkscape="http://www.inkscape.org/namespaces/inkscape"
   width="210mm"
   height="297mm"
   viewBox="0 0 210 297"
   version="1.1"
   id="svg8"
   inkscape:version="0.92.4 (unknown)"
   sodipodi:docname="logo.svg">
  <defs
     id="defs2" />
  <sodipodi:namedview
     id="base"
     pagecolor="#ffffff"
     bordercolor="#666666"
     borderopacity="1.0"
     inkscape:pageopacity="0.0"
     inkscape:pageshadow="2"
     inkscape:zoom="0.7"
     inkscape:cx="200.42166"
     inkscape:cy="646.96036"
     inkscape:document-units="mm"
     inkscape:current-layer="layer1"
     showgrid="false"
     inkscape:window-width="1916"
     inkscape:window-height="1041"
     inkscape:window-x="2560"
     inkscape:window-y="18"
     inkscape:window-maximized="0" />
  <metadata
     id="metadata5">
    <rdf:RDF>
      <cc:Work
         rdf:about="">
        <dc:format>image/svg+xml</dc:format>
        <dc:type
           rdf:resource="http://purl.org/dc/dcmitype/StillImage" />
        <dc:title></dc:title>
      </cc:Work>
    </rdf:RDF>
  </metadata>
  <g
     inkscape:label="Layer 1"
     inkscape:groupmode="layer"
     id="layer1">
    <g
       aria-label="Ze::Keyboard"
       style="font-style:normal;font-weight:normal;font-size:10.58333302px;line-height:1.25;font-family:sans-serif;letter-spacing:0px;word-spacing:0px;fill:#000000;fill-opacity:1;stroke:none;stroke-width:0.26458332"
       id="text12">
      <path
         d="m 23.81092,82.859163 h 11.134549 v 2.68993 L 27.31665,96.452131 h 7.783159 v 2.86632 H 23.568386 V 96.62852 L 30.965695,85.725482 H 23.81092 Z"
         style="font-style:normal;font-variant:normal;font-weight:bold;font-stretch:normal;font-size:22.57777786px;font-family:monospace;-inkscape-font-specification:'monospace Bold';stroke-width:0.26458332"
         id="path14" />
      <path
         d="m 48.03132,98.712114 q -1.124479,0.463021 -2.293056,0.694531 -1.168576,0.231511 -2.469444,0.231511 -3.09783,0 -4.740452,-1.653646 -1.631597,-1.66467 -1.631597,-4.784549 0,-3.020659 1.576476,-4.773524 1.576475,-1.752865 4.299479,-1.752865 2.745052,0 4.255382,1.631598 1.521354,1.620573 1.521354,4.575086 v 1.311893 h -8.367448 q 0.01102,1.455208 0.859896,2.171788 0.848872,0.71658 2.53559,0.71658 1.113455,0 2.193837,-0.319705 1.080382,-0.319705 2.259983,-1.014236 z m -2.734028,-6.945312 q -0.02205,-1.27882 -0.661458,-1.929254 -0.628386,-0.661458 -1.863108,-0.661458 -1.113455,0 -1.774913,0.683507 -0.661459,0.672482 -0.782726,1.918229 z"
         style="font-style:normal;font-variant:normal;font-weight:bold;font-stretch:normal;font-size:22.57777786px;font-family:monospace;-inkscape-font-specification:'monospace Bold';stroke-width:0.26458332"
         id="path16" />
      <path
         d="m 54.414393,87.599614 h 3.671093 v 4.023872 h -3.671093 z m 0,7.672917 h 3.671093 v 4.04592 h -3.671093 z"
         style="font-style:normal;font-variant:normal;font-weight:bold;font-stretch:normal;font-size:22.57777786px;font-family:monospace;-inkscape-font-specification:'monospace Bold';stroke-width:0.26458332"
         id="path18" />
      <path
         d="m 67.996338,87.599614 h 3.671094 v 4.023872 h -3.671094 z m 0,7.672917 h 3.671094 v 4.04592 h -3.671094 z"
         style="font-style:normal;font-variant:normal;font-weight:bold;font-stretch:normal;font-size:22.57777786px;font-family:monospace;-inkscape-font-specification:'monospace Bold';stroke-width:0.26458332"
         id="path20" />
      <path
         d="m 77.918212,82.859163 h 3.25217 v 6.50434 l 5.093229,-6.50434 h 3.682119 l -5.192448,6.482291 5.379861,9.976997 H 86.51717 l -3.902604,-7.408333 -1.444184,1.830034 v 5.578299 h -3.25217 z"
         style="font-style:normal;font-variant:normal;font-weight:bold;font-stretch:normal;font-size:22.57777786px;font-family:monospace;-inkscape-font-specification:'monospace Bold';stroke-width:0.26458332"
         id="path22" />
      <path
         d="m 102.3591,98.712114 q -1.12448,0.463021 -2.29306,0.694531 -1.168575,0.231511 -2.469443,0.231511 -3.09783,0 -4.740452,-1.653646 -1.631597,-1.66467 -1.631597,-4.784549 0,-3.020659 1.576476,-4.773524 1.576475,-1.752865 4.299479,-1.752865 2.745052,0 4.255377,1.631598 1.52136,1.620573 1.52136,4.575086 v 1.311893 h -8.367449 q 0.01102,1.455208 0.859896,2.171788 0.848871,0.71658 2.53559,0.71658 1.113455,0 2.193833,-0.319705 1.08039,-0.319705 2.25999,-1.014236 z m -2.734031,-6.945312 q -0.02205,-1.27882 -0.661458,-1.929254 -0.628386,-0.661458 -1.863108,-0.661458 -1.113455,0 -1.774913,0.683507 -0.661459,0.672482 -0.782726,1.918229 z"
         style="font-style:normal;font-variant:normal;font-weight:bold;font-stretch:normal;font-size:22.57777786px;font-family:monospace;-inkscape-font-specification:'monospace Bold';stroke-width:0.26458332"
         id="path24" />
      <path
         d="m 111.63054,100.65239 q -0.65043,1.74184 -1.56545,2.53559 -0.90399,0.80478 -2.20486,0.80478 h -2.66788 v -2.45842 h 1.31189 q 0.99219,0 1.45521,-0.34176 0.46302,-0.33073 0.93706,-1.554424 l 0.24254,-0.661459 -4.69636,-12.005468 h 3.39549 l 2.82222,8.01467 2.70096,-8.01467 h 3.39548 z"
         style="font-style:normal;font-variant:normal;font-weight:bold;font-stretch:normal;font-size:22.57777786px;font-family:monospace;-inkscape-font-specification:'monospace Bold';stroke-width:0.26458332"
         id="path26" />
      <path
         d="m 126.74486,93.177913 q 0,-1.785938 -0.59531,-2.800174 -0.59532,-1.014236 -1.64263,-1.014236 -1.0473,0 -1.65364,1.014236 -0.60634,1.014236 -0.60634,2.800174 0,1.785937 0.60634,2.800173 0.60634,1.014236 1.65364,1.014236 1.04731,0 1.64263,-1.014236 0.59531,-1.014236 0.59531,-2.800173 z m -4.49792,-4.45382 q 0.59531,-1.02526 1.37804,-1.532378 0.79375,-0.518143 1.78594,-0.518143 2.19383,0 3.37344,1.675695 1.19062,1.675694 1.19062,4.806597 0,3.086806 -1.16858,4.784549 -1.16857,1.697743 -3.28524,1.697743 -1.11345,0 -1.94028,-0.540191 -0.82682,-0.540191 -1.33394,-1.609549 v 1.830035 h -3.2191 v -17.15382 h 3.2191 z"
         style="font-style:normal;font-variant:normal;font-weight:bold;font-stretch:normal;font-size:22.57777786px;font-family:monospace;-inkscape-font-specification:'monospace Bold';stroke-width:0.26458332"
         id="path28" />
      <path
         d="m 137.74712,89.297357 q -1.15755,0 -1.81901,1.025261 -0.66146,1.014236 -0.66146,2.833246 0,1.819011 0.66146,2.844271 0.66146,1.014236 1.81901,1.014236 1.16857,0 1.83003,-1.014236 0.66146,-1.02526 0.66146,-2.844271 0,-1.81901 -0.66146,-2.833246 -0.66146,-1.025261 -1.83003,-1.025261 z m -5.71059,3.858507 q 0,-2.987587 1.5434,-4.729427 1.55443,-1.752865 4.16719,-1.752865 2.62378,0 4.16719,1.752865 1.55442,1.74184 1.55442,4.729427 0,2.987587 -1.55442,4.740452 -1.54341,1.74184 -4.16719,1.74184 -2.61276,0 -4.16719,-1.74184 -1.5434,-1.752865 -1.5434,-4.740452 z"
         style="font-style:normal;font-variant:normal;font-weight:bold;font-stretch:normal;font-size:22.57777786px;font-family:monospace;-inkscape-font-specification:'monospace Bold';stroke-width:0.26458332"
         id="path30" />
      <path
         d="m 152.25511,93.519666 q -1.80799,0 -2.52457,0.463021 -0.71658,0.463021 -0.71658,1.5875 0,0.837847 0.4961,1.333941 0.49609,0.496094 1.34496,0.496094 1.27882,0 1.98438,-0.959115 0.70555,-0.970139 0.70555,-2.700955 v -0.220486 z m 4.49791,-1.245746 v 7.044531 h -3.20807 v -1.378038 q -0.58429,0.815798 -1.4993,1.256771 -0.91502,0.440972 -2.01745,0.440972 -2.10564,0 -3.28525,-1.113455 -1.16857,-1.113455 -1.16857,-3.108854 0,-2.160764 1.40009,-3.186025 1.40008,-1.036284 4.33255,-1.036284 h 2.23793 v -0.540191 q 0,-0.782726 -0.57326,-1.179601 -0.56224,-0.407899 -1.66467,-0.407899 -1.15755,0 -2.24896,0.297656 -1.08038,0.286632 -2.25998,0.926042 v -2.756077 q 1.06935,-0.440972 2.17178,-0.650434 1.10243,-0.209462 2.33716,-0.209462 3.00963,0 4.22231,1.223698 1.22369,1.223698 1.22369,4.37665 z"
         style="font-style:normal;font-variant:normal;font-weight:bold;font-stretch:normal;font-size:22.57777786px;font-family:monospace;-inkscape-font-specification:'monospace Bold';stroke-width:0.26458332"
         id="path32" />
      <path
         d="m 170.80901,90.377739 q -0.52917,-0.485069 -1.24575,-0.727604 -0.70555,-0.242535 -1.55442,-0.242535 -1.02527,0 -1.79697,0.363802 -0.76067,0.352778 -1.1796,1.036285 -0.26458,0.418924 -0.37482,1.014236 -0.0992,0.595313 -0.0992,1.807986 v 5.688542 h -3.23012 V 86.971229 h 3.23012 v 1.918229 q 0.47404,-1.058334 1.45521,-1.631597 0.98116,-0.584289 2.29305,-0.584289 0.66146,0 1.28985,0.165365 0.63941,0.15434 1.21267,0.463021 z"
         style="font-style:normal;font-variant:normal;font-weight:bold;font-stretch:normal;font-size:22.57777786px;font-family:monospace;-inkscape-font-specification:'monospace Bold';stroke-width:0.26458332"
         id="path34" />
      <path
         d="m 180.4222,88.724093 v -6.559462 h 3.2191 v 17.15382 h -3.2191 v -1.830035 q -0.51814,1.069358 -1.34497,1.609549 -0.8158,0.540191 -1.92925,0.540191 -2.11667,0 -3.28524,-1.697743 -1.16858,-1.697743 -1.16858,-4.784549 0,-3.130903 1.1796,-4.806597 1.19063,-1.675695 3.38446,-1.675695 0.99219,0 1.77492,0.518143 0.79375,0.507118 1.38906,1.532378 z m -4.49792,4.45382 q 0,1.785937 0.59531,2.800173 0.59532,1.014236 1.64263,1.014236 1.04731,0 1.65364,-1.014236 0.60634,-1.014236 0.60634,-2.800173 0,-1.785938 -0.60634,-2.800174 -0.60633,-1.014236 -1.65364,-1.014236 -1.04731,0 -1.64263,1.014236 -0.59531,1.014236 -0.59531,2.800174 z"
         style="font-style:normal;font-variant:normal;font-weight:bold;font-stretch:normal;font-size:22.57777786px;font-family:monospace;-inkscape-font-specification:'monospace Bold';stroke-width:0.26458332"
         id="path36" />
    </g>
    <g
       aria-label="Malcolm
Vigren"
       style="font-style:normal;font-weight:normal;font-size:10.58333302px;line-height:1.25;font-family:sans-serif;letter-spacing:0px;word-spacing:0px;fill:#000000;fill-opacity:1;stroke:none;stroke-width:0.26458332"
       id="text41">
      <path
         d="m 66.373422,114.56625 h 2.910417 l 1.471744,5.41569 1.463477,-5.41569 h 2.926953 v 12.34446 h -2.10013 v -9.8888 l -1.306381,5.39915 h -1.943033 l -1.322917,-5.39915 v 9.8888 h -2.10013 z"
         style="font-style:normal;font-variant:normal;font-weight:bold;font-stretch:normal;font-size:16.93333244px;font-family:monospace;-inkscape-font-specification:'monospace Bold';text-align:center;text-anchor:middle;stroke-width:0.26458332"
         id="path45" />
      <path
         d="m 81.636572,122.56162 q -1.355989,0 -1.893424,0.34727 -0.537435,0.34727 -0.537435,1.19063 0,0.62838 0.37207,1.00045 0.37207,0.37207 1.008724,0.37207 0.959115,0 1.488281,-0.71933 0.529167,-0.72761 0.529167,-2.02572 v -0.16537 z m 3.373437,-0.9343 v 5.28339 h -2.406054 v -1.03353 q -0.438216,0.61185 -1.124479,0.94258 -0.686263,0.33073 -1.513086,0.33073 -1.579232,0 -2.463932,-0.83509 -0.876432,-0.83509 -0.876432,-2.33164 0,-1.62057 1.050065,-2.38952 1.050065,-0.77721 3.249413,-0.77721 h 1.678451 v -0.40514 q 0,-0.58705 -0.429948,-0.88471 -0.42168,-0.30592 -1.248503,-0.30592 -0.868164,0 -1.686718,0.22324 -0.810287,0.21498 -1.694987,0.69453 v -2.06705 q 0.802018,-0.33073 1.628841,-0.48783 0.826823,-0.1571 1.752864,-0.1571 2.257227,0 3.166732,0.91778 0.917773,0.91777 0.917773,3.28249 z"
         style="font-style:normal;font-variant:normal;font-weight:bold;font-stretch:normal;font-size:16.93333244px;font-family:monospace;-inkscape-font-specification:'monospace Bold';text-align:center;text-anchor:middle;stroke-width:0.26458332"
         id="path47" />
      <path
         d="M 89.235074,123.04945 V 115.9057 H 86.77941 v -1.86035 h 4.878255 v 9.0041 q 0,1.09141 0.338998,1.54616 0.338997,0.45475 1.149283,0.45475 h 1.934766 v 1.86035 h -2.61276 q -1.72806,0 -2.480469,-0.89297 -0.752409,-0.89296 -0.752409,-2.96829 z"
         style="font-style:normal;font-variant:normal;font-weight:bold;font-stretch:normal;font-size:16.93333244px;font-family:monospace;-inkscape-font-specification:'monospace Bold';text-align:center;text-anchor:middle;stroke-width:0.26458332"
         id="path49" />
      <path
         d="m 104.99432,126.43942 q -0.61185,0.35554 -1.31465,0.52917 -0.7028,0.1819 -1.51309,0.1819 -2.14147,0 -3.34863,-1.28984 -1.207161,-1.28985 -1.207161,-3.57188 0,-2.2903 1.215429,-3.58014 1.215432,-1.29811 3.356902,-1.29811 0.74414,0 1.4304,0.17363 0.69453,0.17363 1.3808,0.53744 v 2.21588 q -0.52917,-0.45475 -1.16582,-0.69453 -0.62839,-0.24805 -1.30638,-0.24805 -1.18236,0 -1.81901,0.75241 -0.63666,0.75241 -0.63666,2.14147 0,1.38907 0.63666,2.13321 0.63665,0.74414 1.81901,0.74414 0.7028,0 1.31464,-0.23151 0.61185,-0.23978 1.15756,-0.71934 z"
         style="font-style:normal;font-variant:normal;font-weight:bold;font-stretch:normal;font-size:16.93333244px;font-family:monospace;-inkscape-font-specification:'monospace Bold';text-align:center;text-anchor:middle;stroke-width:0.26458332"
         id="path51" />
      <path
         d="m 111.50141,119.39489 q -0.86816,0 -1.36425,0.76895 -0.4961,0.76068 -0.4961,2.12493 0,1.36426 0.4961,2.13321 0.49609,0.76067 1.36425,0.76067 0.87644,0 1.37253,-0.76067 0.49609,-0.76895 0.49609,-2.13321 0,-1.36425 -0.49609,-2.12493 -0.49609,-0.76895 -1.37253,-0.76895 z m -4.28294,2.89388 q 0,-2.24069 1.15755,-3.54707 1.16582,-1.31465 3.12539,-1.31465 1.96784,0 3.12539,1.31465 1.16582,1.30638 1.16582,3.54707 0,2.24069 -1.16582,3.55534 -1.15755,1.30638 -3.12539,1.30638 -1.95957,0 -3.12539,-1.30638 -1.15755,-1.31465 -1.15755,-3.55534 z"
         style="font-style:normal;font-variant:normal;font-weight:bold;font-stretch:normal;font-size:16.93333244px;font-family:monospace;-inkscape-font-specification:'monospace Bold';text-align:center;text-anchor:middle;stroke-width:0.26458332"
         id="path53" />
      <path
         d="m 119.79445,123.04945 v -7.14375 h -2.45567 v -1.86035 h 4.87826 v 9.0041 q 0,1.09141 0.339,1.54616 0.33899,0.45475 1.14928,0.45475 h 1.93477 v 1.86035 h -2.61276 q -1.72806,0 -2.48047,-0.89297 -0.75241,-0.89296 -0.75241,-2.96829 z"
         style="font-style:normal;font-variant:normal;font-weight:bold;font-stretch:normal;font-size:16.93333244px;font-family:monospace;-inkscape-font-specification:'monospace Bold';text-align:center;text-anchor:middle;stroke-width:0.26458332"
         id="path55" />
      <path
         d="m 132.48618,118.57634 q 0.27285,-0.58705 0.69453,-0.86817 0.42168,-0.28112 1.03353,-0.28112 1.19889,0 1.65364,0.82683 0.46302,0.82682 0.46302,3.43958 v 5.21725 h -1.98437 v -5.94485 q 0,-1.03353 -0.1571,-1.3808 -0.1571,-0.34726 -0.57051,-0.34726 -0.41341,0 -0.57877,0.35553 -0.16537,0.35553 -0.16537,1.37253 v 5.94485 h -1.95957 v -5.94485 q 0,-1.017 -0.16536,-1.37253 -0.16537,-0.35553 -0.57878,-0.35553 -0.41341,0 -0.57051,0.34726 -0.15709,0.34727 -0.15709,1.3808 v 5.94485 h -1.98438 v -9.26041 h 1.76114 v 0.95911 q 0.2067,-0.5457 0.66145,-0.85989 0.45476,-0.32247 1.017,-0.32247 0.56224,0 1.02526,0.339 0.46302,0.33073 0.56224,0.81029 z"
         style="font-style:normal;font-variant:normal;font-weight:bold;font-stretch:normal;font-size:16.93333244px;font-family:monospace;-inkscape-font-specification:'monospace Bold';text-align:center;text-anchor:middle;stroke-width:0.26458332"
         id="path57" />
      <path
         d="m 75.848812,146.04339 2.174544,-10.31048 h 2.455664 l -2.935221,12.34447 h -3.381705 l -2.935222,-12.34447 h 2.455664 z"
         style="font-style:normal;font-variant:normal;font-weight:bold;font-stretch:normal;font-size:16.93333244px;font-family:monospace;-inkscape-font-specification:'monospace Bold';text-align:center;text-anchor:middle;stroke-width:0.26458332"
         id="path59" />
      <path
         d="m 82.769319,138.81696 h 4.795573 v 7.40007 h 3.009635 v 1.86035 h -8.450129 v -1.86035 h 3.017903 v -5.53972 h -2.372982 z m 2.372982,-4.50618 h 2.422591 v 2.82773 h -2.422591 z"
         style="font-style:normal;font-variant:normal;font-weight:bold;font-stretch:normal;font-size:16.93333244px;font-family:monospace;-inkscape-font-specification:'monospace Bold';text-align:center;text-anchor:middle;stroke-width:0.26458332"
         id="path61" />
      <path
         d="m 97.767886,143.29834 q 0,-1.24023 -0.471289,-1.98437 -0.471289,-0.75241 -1.240234,-0.75241 -0.760677,0 -1.231966,0.74414 -0.463021,0.74414 -0.463021,1.99264 0,1.25677 0.463021,2.00091 0.471289,0.74414 1.231966,0.74414 0.768945,0 1.240234,-0.74414 0.471289,-0.7524 0.471289,-2.00091 z m 2.422594,4.08451 q 0,2.22415 -1.008727,3.20807 -1.000455,0.99219 -3.257682,0.99219 -0.760677,0 -1.504817,-0.11576 -0.744141,-0.10748 -1.513086,-0.33899 v -2.22416 q 0.686263,0.38034 1.39733,0.56224 0.711068,0.1819 1.463477,0.1819 1.02526,0 1.513086,-0.48782 0.487825,-0.47956 0.487825,-1.50482 v -1.00046 q -0.355534,0.66146 -0.942578,0.98392 -0.587044,0.32246 -1.430403,0.32246 -1.5875,0 -2.52181,-1.24023 -0.93431,-1.24024 -0.93431,-3.36517 0,-2.19935 0.93431,-3.48919 0.93431,-1.28985 2.505273,-1.28985 0.79375,0 1.413867,0.37207 0.620117,0.37207 0.975651,1.05007 v -1.18236 h 2.422594 z"
         style="font-style:normal;font-variant:normal;font-weight:bold;font-stretch:normal;font-size:16.93333244px;font-family:monospace;-inkscape-font-specification:'monospace Bold';text-align:center;text-anchor:middle;stroke-width:0.26458332"
         id="path63" />
      <path
         d="m 110.83169,141.37185 q -0.39688,-0.36381 -0.93431,-0.54571 -0.52917,-0.1819 -1.16582,-0.1819 -0.76895,0 -1.34772,0.27285 -0.57051,0.26459 -0.88471,0.77722 -0.19843,0.31419 -0.28112,0.76067 -0.0744,0.44649 -0.0744,1.35599 v 4.26641 h -2.42259 v -9.26042 h 2.42259 v 1.43867 q 0.35553,-0.79375 1.09141,-1.22369 0.73587,-0.43822 1.71979,-0.43822 0.49609,0 0.96738,0.12402 0.47956,0.11576 0.90951,0.34727 z"
         style="font-style:normal;font-variant:normal;font-weight:bold;font-stretch:normal;font-size:16.93333244px;font-family:monospace;-inkscape-font-specification:'monospace Bold';text-align:center;text-anchor:middle;stroke-width:0.26458332"
         id="path65" />
      <path
         d="m 120.613,147.62263 q -0.84336,0.34726 -1.71979,0.52089 -0.87643,0.17364 -1.85208,0.17364 -2.32338,0 -3.55534,-1.24024 -1.2237,-1.2485 -1.2237,-3.58841 0,-2.26549 1.18236,-3.58014 1.18235,-1.31465 3.22461,-1.31465 2.05879,0 3.19153,1.2237 1.14102,1.21543 1.14102,3.43131 v 0.98392 h -6.27559 q 0.008,1.09141 0.64492,1.62884 0.63666,0.53744 1.9017,0.53744 0.83509,0 1.64537,-0.23978 0.81029,-0.23978 1.69499,-0.76068 z m -2.05052,-5.20899 q -0.0165,-0.95911 -0.49609,-1.44694 -0.47129,-0.49609 -1.39733,-0.49609 -0.83509,0 -1.33119,0.51263 -0.49609,0.50436 -0.58704,1.43867 z"
         style="font-style:normal;font-variant:normal;font-weight:bold;font-stretch:normal;font-size:16.93333244px;font-family:monospace;-inkscape-font-specification:'monospace Bold';text-align:center;text-anchor:middle;stroke-width:0.26458332"
         id="path67" />
      <path
         d="m 130.54315,142.06638 v 6.011 h -2.40606 v -5.63893 q 0,-1.00873 -0.28939,-1.43868 -0.28112,-0.43821 -0.92604,-0.43821 -0.65319,0 -1.03353,0.58704 -0.37207,0.58705 -0.37207,1.62884 v 5.29994 h -2.40605 v -9.26042 h 2.40605 v 1.38906 q 0.25632,-0.76894 0.87643,-1.19062 0.62012,-0.42168 1.49655,-0.42168 1.31465,0 1.98438,0.87643 0.66973,0.86817 0.66973,2.59623 z"
         style="font-style:normal;font-variant:normal;font-weight:bold;font-stretch:normal;font-size:16.93333244px;font-family:monospace;-inkscape-font-specification:'monospace Bold';text-align:center;text-anchor:middle;stroke-width:0.26458332"
         id="path69" />
    </g>
  </g>
</svg>
