  0
SECTION
  2
HEADER
  9
$ANGBASE
  50
0.0
  9
$ANGDIR
  70
1
  9
$MEASUREMENT
  70
1
  0
ENDSEC
  0
SECTION
  2
TABLES
  0
TABLE
  2
LTYPE
  70
4
  0
LTYPE
  5
40F
  2
CONTINUOUS
  70
0
  3
Solid line
  72
65
  73
0
  40
0.0
  0
LTYPE
  5
410
  2
DASHDOT
 70
0
  3
Dash Dot ____ _ ____ _
 72
65
 73
4
 40
2.0
 49
1.25
 49
-0.25
 49
0.25
 49
-0.25
  0
LTYPE
  5
411
  2
DASHED
 70
0
  3
Dashed __ __ __ __ __
 72
65
 73
2
 40
0.75
 49
0.5
 49
-0.25
  0
LTYPE
  5
43B
  2
DOTTED
 70
0
  3
Dotted .  .  .  .
 72
65
 73
2
 40
0.2
 49
0.0
 49
-0.2
  0
ENDTAB
  0
TABLE
  2
STYLE
  70
4
  0
STYLE
  2
KICAD
  70
0
  40
0
  41
1
  42
1
  50
0
  71
0
  3
isocp.shx
  0
STYLE
  2
KICADB
  70
0
  40
0
  41
1
  42
1
  50
0
  71
0
  3
isocp.shx
  0
STYLE
  2
KICADI
  70
0
  40
0
  41
1
  42
1
  50
15
  71
0
  3
isocp.shx
  0
STYLE
  2
KICADBI
  70
0
  40
0
  41
1
  42
1
  50
15
  71
0
  3
isocp.shx
  0
ENDTAB
  0
TABLE
  2
LAYER
  70
1
  0
LAYER
  2
BLACK
  70
0
  62
7
  6
CONTINUOUS
  0
ENDTAB
  0
ENDSEC
  0
SECTION
  2
ENTITIES
0
LINE
8
BLACK
6
CONTINUOUS
10
400.028
20
-77.6273
11
400.028
21
-71.8786
0
LINE
8
BLACK
6
CONTINUOUS
10
400.528
20
-71.3786
11
413.528
21
-71.3773
0
LINE
8
BLACK
6
CONTINUOUS
10
414.028
20
-77.6273
11
414.028
21
-71.8773
0
LINE
8
BLACK
6
CONTINUOUS
10
400.528
20
-95.1898
11
413.528
21
-95.1898
0
LINE
8
BLACK
6
CONTINUOUS
10
400.028
20
-101.44
11
400.028
21
-95.6898
0
LINE
8
BLACK
6
CONTINUOUS
10
400.528
20
-78.1273
11
413.528
21
-78.1273
0
LINE
8
BLACK
6
CONTINUOUS
10
414.028
20
-101.44
11
414.028
21
-95.6898
0
LINE
8
BLACK
6
CONTINUOUS
10
400.528
20
-101.94
11
413.528
21
-101.94
0
ARC
8
BLACK
10
413.528
20
-71.8774
40
0.50005
50
0.00572957
51
89.9999
0
ARC
8
BLACK
10
413.528
20
-95.6899
40
0.500001
50
0.000114591
51
89.9999
0
ARC
8
BLACK
10
400.528
20
-71.8786
40
0.499999
50
89.9999
51
179.996
0
ARC
8
BLACK
10
400.528
20
-95.6899
40
0.500001
50
90.0001
51
180
0
ARC
8
BLACK
10
413.528
20
-101.44
40
0.500001
50
-89.9999
51
-0.000114591
0
ARC
8
BLACK
10
413.528
20
-77.6273
40
0.500001
50
-89.9999
51
-0.00572957
0
ARC
8
BLACK
10
400.528
20
-77.6274
40
0.49996
50
-180.005
51
-89.9953
0
ARC
8
BLACK
10
400.528
20
-101.44
40
0.500001
50
-180
51
-90.0001
0
LINE
8
BLACK
6
CONTINUOUS
10
179.329
20
-128.298
11
185.079
21
-128.298
0
LINE
8
BLACK
6
CONTINUOUS
10
202.641
20
-128.798
11
202.641
21
-141.798
0
LINE
8
BLACK
6
CONTINUOUS
10
203.141
20
-128.298
11
208.89
21
-128.298
0
LINE
8
BLACK
6
CONTINUOUS
10
203.141
20
-142.298
11
208.891
21
-142.298
0
LINE
8
BLACK
6
CONTINUOUS
10
185.579
20
-128.798
11
185.579
21
-141.798
0
LINE
8
BLACK
6
CONTINUOUS
10
179.329
20
-142.298
11
185.079
21
-142.298
0
LINE
8
BLACK
6
CONTINUOUS
10
178.829
20
-128.798
11
178.829
21
-141.798
0
LINE
8
BLACK
6
CONTINUOUS
10
209.39
20
-128.798
11
209.391
21
-141.798
0
ARC
8
BLACK
10
179.329
20
-141.798
40
0.500001
50
-180
51
-90.0001
0
ARC
8
BLACK
10
185.079
20
-128.798
40
0.500001
50
0.000114591
51
89.9999
0
ARC
8
BLACK
10
208.89
20
-128.798
40
0.500099
50
0.0113437
51
89.9955
0
ARC
8
BLACK
10
203.141
20
-141.798
40
0.500101
50
-179.988
51
-90.0057
0
ARC
8
BLACK
10
203.141
20
-128.798
40
0.49996
50
-270.005
51
-179.995
0
ARC
8
BLACK
10
179.329
20
-128.798
40
0.500001
50
90.0001
51
180
0
ARC
8
BLACK
10
185.079
20
-141.798
40
0.500001
50
-89.9999
51
-0.000114591
0
ARC
8
BLACK
10
208.891
20
-141.798
40
0.49995
50
-90.0057
51
-0.000114603
0
LINE
8
BLACK
6
CONTINUOUS
10
276.438
20
-52.5898
11
276.438
21
-65.5898
0
LINE
8
BLACK
6
CONTINUOUS
10
300.75
20
-52.0898
11
306.499
21
-52.0898
0
LINE
8
BLACK
6
CONTINUOUS
10
300.25
20
-52.5898
11
300.25
21
-65.5898
0
LINE
8
BLACK
6
CONTINUOUS
10
300.75
20
-66.0898
11
306.5
21
-66.0898
0
LINE
8
BLACK
6
CONTINUOUS
10
283.188
20
-52.5898
11
283.188
21
-65.5898
0
LINE
8
BLACK
6
CONTINUOUS
10
306.999
20
-52.5898
11
307
21
-65.5898
0
LINE
8
BLACK
6
CONTINUOUS
10
276.938
20
-52.0898
11
282.688
21
-52.0898
0
LINE
8
BLACK
6
CONTINUOUS
10
276.938
20
-66.0898
11
282.688
21
-66.0898
0
ARC
8
BLACK
10
282.688
20
-52.5898
40
0.500001
50
0.000114591
51
89.9999
0
ARC
8
BLACK
10
300.75
20
-65.5897
40
0.500101
50
-179.988
51
-90.0057
0
ARC
8
BLACK
10
282.688
20
-65.5898
40
0.500001
50
-89.9999
51
-0.000114591
0
ARC
8
BLACK
10
300.75
20
-52.5898
40
0.49996
50
-270.005
51
-179.995
0
ARC
8
BLACK
10
306.5
20
-65.5898
40
0.49995
50
-90.0057
51
-0.000114603
0
ARC
8
BLACK
10
276.938
20
-52.5898
40
0.500001
50
90.0001
51
180
0
ARC
8
BLACK
10
306.499
20
-52.5899
40
0.500099
50
0.0113437
51
89.9955
0
ARC
8
BLACK
10
276.938
20
-65.5898
40
0.500001
50
-180
51
-90.0001
0
LINE
8
BLACK
6
CONTINUOUS
10
367.435
20
-142.284
11
373.185
21
-142.284
0
LINE
8
BLACK
6
CONTINUOUS
10
366.935
20
-128.784
11
366.935
21
-141.784
0
LINE
8
BLACK
6
CONTINUOUS
10
367.435
20
-128.284
11
373.183
21
-128.284
0
LINE
8
BLACK
6
CONTINUOUS
10
373.683
20
-128.784
11
373.685
21
-141.784
0
LINE
8
BLACK
6
CONTINUOUS
10
343.622
20
-128.284
11
349.372
21
-128.284
0
LINE
8
BLACK
6
CONTINUOUS
10
343.122
20
-128.784
11
343.122
21
-141.784
0
LINE
8
BLACK
6
CONTINUOUS
10
349.872
20
-128.784
11
349.872
21
-141.784
0
LINE
8
BLACK
6
CONTINUOUS
10
343.622
20
-142.284
11
349.372
21
-142.284
0
ARC
8
BLACK
10
373.185
20
-141.784
40
0.50005
50
-89.9943
51
-0.00011458
0
ARC
8
BLACK
10
343.622
20
-141.784
40
0.500001
50
-180
51
-90.0001
0
ARC
8
BLACK
10
367.435
20
-128.784
40
0.49996
50
-270.005
51
-179.995
0
ARC
8
BLACK
10
367.435
20
-141.784
40
0.500001
50
-180
51
-90.0057
0
ARC
8
BLACK
10
349.372
20
-141.784
40
0.500001
50
-89.9999
51
-0.000114591
0
ARC
8
BLACK
10
349.372
20
-128.784
40
0.500001
50
0.000114591
51
89.9999
0
ARC
8
BLACK
10
343.622
20
-128.784
40
0.500001
50
90.0001
51
180
0
ARC
8
BLACK
10
373.183
20
-128.784
40
0.499999
50
-0.000114583
51
89.9955
0
LINE
8
BLACK
6
CONTINUOUS
10
103.119
20
-142.29
11
108.869
21
-142.29
0
LINE
8
BLACK
6
CONTINUOUS
10
126.431
20
-128.79
11
126.431
21
-141.79
0
LINE
8
BLACK
6
CONTINUOUS
10
126.931
20
-128.29
11
132.68
21
-128.29
0
LINE
8
BLACK
6
CONTINUOUS
10
126.931
20
-142.29
11
132.681
21
-142.29
0
LINE
8
BLACK
6
CONTINUOUS
10
102.619
20
-128.79
11
102.619
21
-141.79
0
LINE
8
BLACK
6
CONTINUOUS
10
109.369
20
-128.79
11
109.369
21
-141.79
0
LINE
8
BLACK
6
CONTINUOUS
10
103.119
20
-128.29
11
108.869
21
-128.29
0
LINE
8
BLACK
6
CONTINUOUS
10
133.18
20
-128.79
11
133.181
21
-141.79
0
ARC
8
BLACK
10
132.681
20
-141.79
40
0.50005
50
-89.9943
51
-0.00011458
0
ARC
8
BLACK
10
108.869
20
-128.79
40
0.500001
50
0.000114591
51
89.9999
0
ARC
8
BLACK
10
126.931
20
-141.79
40
0.500001
50
-180
51
-90.0057
0
ARC
8
BLACK
10
132.68
20
-128.79
40
0.499999
50
-0.000114583
51
89.9955
0
ARC
8
BLACK
10
108.869
20
-141.79
40
0.500001
50
-89.9999
51
-0.000114591
0
ARC
8
BLACK
10
103.119
20
-141.79
40
0.500001
50
-180
51
-90.0001
0
ARC
8
BLACK
10
126.931
20
-128.79
40
0.49996
50
-270.005
51
-179.995
0
ARC
8
BLACK
10
103.119
20
-128.79
40
0.500001
50
90.0001
51
180
0
LINE
8
BLACK
6
CONTINUOUS
10
400.028
20
-115.727
11
400.028
21
-109.979
0
LINE
8
BLACK
6
CONTINUOUS
10
400.528
20
-133.29
11
413.528
21
-133.29
0
LINE
8
BLACK
6
CONTINUOUS
10
400.528
20
-109.479
11
413.528
21
-109.477
0
LINE
8
BLACK
6
CONTINUOUS
10
400.028
20
-139.54
11
400.028
21
-133.79
0
LINE
8
BLACK
6
CONTINUOUS
10
414.028
20
-115.727
11
414.028
21
-109.977
0
LINE
8
BLACK
6
CONTINUOUS
10
414.028
20
-139.54
11
414.028
21
-133.79
0
LINE
8
BLACK
6
CONTINUOUS
10
400.528
20
-140.04
11
413.528
21
-140.04
0
LINE
8
BLACK
6
CONTINUOUS
10
400.528
20
-116.227
11
413.528
21
-116.227
0
ARC
8
BLACK
10
413.528
20
-115.727
40
0.500001
50
-89.9999
51
-0.00572957
0
ARC
8
BLACK
10
400.528
20
-115.727
40
0.49996
50
-180.005
51
-89.9953
0
ARC
8
BLACK
10
400.528
20
-133.79
40
0.500001
50
90.0001
51
180
0
ARC
8
BLACK
10
413.528
20
-109.977
40
0.50005
50
0.00572957
51
89.9999
0
ARC
8
BLACK
10
413.528
20
-133.79
40
0.500001
50
0.000114591
51
89.9999
0
ARC
8
BLACK
10
413.528
20
-139.54
40
0.500001
50
-89.9999
51
-0.000114591
0
ARC
8
BLACK
10
400.528
20
-139.54
40
0.500001
50
-180
51
-90.0001
0
ARC
8
BLACK
10
400.528
20
-109.979
40
0.499999
50
89.9999
51
179.996
0
LINE
8
BLACK
6
CONTINUOUS
10
298.363
20
-90.1898
11
304.111
21
-90.1898
0
LINE
8
BLACK
6
CONTINUOUS
10
297.863
20
-90.6898
11
297.863
21
-103.69
0
LINE
8
BLACK
6
CONTINUOUS
10
274.55
20
-90.1898
11
280.3
21
-90.1898
0
LINE
8
BLACK
6
CONTINUOUS
10
274.05
20
-90.6898
11
274.05
21
-103.69
0
LINE
8
BLACK
6
CONTINUOUS
10
274.55
20
-104.19
11
280.3
21
-104.19
0
LINE
8
BLACK
6
CONTINUOUS
10
304.611
20
-90.6898
11
304.613
21
-103.69
0
LINE
8
BLACK
6
CONTINUOUS
10
280.8
20
-90.6898
11
280.8
21
-103.69
0
LINE
8
BLACK
6
CONTINUOUS
10
298.363
20
-104.19
11
304.113
21
-104.19
0
ARC
8
BLACK
10
274.55
20
-103.69
40
0.500001
50
-180
51
-90.0001
0
ARC
8
BLACK
10
304.111
20
-90.6899
40
0.500099
50
0.0113437
51
89.9955
0
ARC
8
BLACK
10
274.55
20
-90.6898
40
0.500001
50
90.0001
51
180
0
ARC
8
BLACK
10
280.3
20
-103.69
40
0.500001
50
-89.9999
51
-0.000114591
0
ARC
8
BLACK
10
280.3
20
-90.6898
40
0.500001
50
0.000114591
51
89.9999
0
ARC
8
BLACK
10
304.113
20
-103.69
40
0.49995
50
-90.0057
51
-0.000114603
0
ARC
8
BLACK
10
298.363
20
-103.69
40
0.500101
50
-179.988
51
-90.0057
0
ARC
8
BLACK
10
298.363
20
-90.6898
40
0.49996
50
-270.005
51
-179.995
0
LINE
8
BLACK
6
CONTINUOUS
10
88.6784
20
-84.1336
11
75.6784
21
-84.1336
0
LINE
8
BLACK
6
CONTINUOUS
10
89.1784
20
-70.6336
11
89.1784
21
-83.6336
0
LINE
8
BLACK
6
CONTINUOUS
10
75.6784
20
-70.1336
11
88.6784
21
-70.1336
0
LINE
8
BLACK
6
CONTINUOUS
10
75.1784
20
-83.6336
11
75.1784
21
-70.6336
0
ARC
8
BLACK
10
75.6812
20
-70.6347
40
0.500001
50
90.0001
51
180
0
ARC
8
BLACK
10
88.6784
20
-70.6336
40
0.5
50
-0
51
90
0
ARC
8
BLACK
10
88.6784
20
-83.6336
40
0.5
50
-90
51
-0
0
ARC
8
BLACK
10
75.6784
20
-83.6336
40
0.500001
50
-180
51
-90.0001
0
LINE
8
BLACK
6
CONTINUOUS
10
74.8909
20
-89.6836
11
74.8909
21
-102.684
0
LINE
8
BLACK
6
CONTINUOUS
10
74.3909
20
-103.184
11
61.3909
21
-103.184
0
LINE
8
BLACK
6
CONTINUOUS
10
60.8909
20
-102.684
11
60.8909
21
-89.6836
0
LINE
8
BLACK
6
CONTINUOUS
10
61.3909
20
-89.1836
11
74.3909
21
-89.1836
0
ARC
8
BLACK
10
61.3909
20
-102.684
40
0.500001
50
-180
51
-90.0001
0
ARC
8
BLACK
10
74.3909
20
-89.6836
40
0.5
50
-0
51
90
0
ARC
8
BLACK
10
74.3909
20
-102.684
40
0.5
50
-90
51
-0
0
ARC
8
BLACK
10
61.3937
20
-89.6847
40
0.500001
50
90.0001
51
180
0
LINE
8
BLACK
6
CONTINUOUS
10
117.753
20
-51.5836
11
117.753
21
-64.5836
0
LINE
8
BLACK
6
CONTINUOUS
10
117.253
20
-65.0836
11
104.253
21
-65.0836
0
LINE
8
BLACK
6
CONTINUOUS
10
103.753
20
-64.5836
11
103.753
21
-51.5836
0
LINE
8
BLACK
6
CONTINUOUS
10
104.253
20
-51.0836
11
117.253
21
-51.0836
0
ARC
8
BLACK
10
104.256
20
-51.5847
40
0.500001
50
90.0001
51
180
0
ARC
8
BLACK
10
117.253
20
-64.5836
40
0.5
50
-90
51
-0
0
ARC
8
BLACK
10
117.253
20
-51.5836
40
0.5
50
-0
51
90
0
ARC
8
BLACK
10
104.253
20
-64.5836
40
0.500001
50
-180
51
-90.0001
0
LINE
8
BLACK
6
CONTINUOUS
10
184.428
20
-70.6336
11
184.428
21
-83.6336
0
LINE
8
BLACK
6
CONTINUOUS
10
183.928
20
-84.1336
11
170.928
21
-84.1336
0
LINE
8
BLACK
6
CONTINUOUS
10
170.928
20
-70.1336
11
183.928
21
-70.1336
0
LINE
8
BLACK
6
CONTINUOUS
10
170.428
20
-83.6336
11
170.428
21
-70.6336
0
ARC
8
BLACK
10
183.928
20
-70.6336
40
0.5
50
-0
51
90
0
ARC
8
BLACK
10
170.928
20
-83.6336
40
0.500001
50
-180
51
-90.0001
0
ARC
8
BLACK
10
183.928
20
-83.6336
40
0.5
50
-90
51
-0
0
ARC
8
BLACK
10
170.931
20
-70.6347
40
0.500001
50
90.0001
51
180
0
LINE
8
BLACK
6
CONTINUOUS
10
35.1972
20
-89.1836
11
48.1972
21
-89.1836
0
LINE
8
BLACK
6
CONTINUOUS
10
34.6972
20
-102.684
11
34.6972
21
-89.6836
0
LINE
8
BLACK
6
CONTINUOUS
10
48.1972
20
-103.184
11
35.1972
21
-103.184
0
LINE
8
BLACK
6
CONTINUOUS
10
48.6972
20
-89.6836
11
48.6972
21
-102.684
0
ARC
8
BLACK
10
35.1972
20
-102.684
40
0.500001
50
-180
51
-90.0001
0
ARC
8
BLACK
10
35.1999
20
-89.6847
40
0.500001
50
90.0001
51
180
0
ARC
8
BLACK
10
48.1972
20
-89.6836
40
0.5
50
-0
51
90
0
ARC
8
BLACK
10
48.1972
20
-102.684
40
0.5
50
-90
51
-0
0
LINE
8
BLACK
6
CONTINUOUS
10
379.978
20
-83.6336
11
379.978
21
-70.6336
0
LINE
8
BLACK
6
CONTINUOUS
10
393.978
20
-70.6336
11
393.978
21
-83.6336
0
LINE
8
BLACK
6
CONTINUOUS
10
393.478
20
-84.1336
11
380.478
21
-84.1336
0
LINE
8
BLACK
6
CONTINUOUS
10
380.478
20
-70.1336
11
393.478
21
-70.1336
0
ARC
8
BLACK
10
380.478
20
-83.6336
40
0.500001
50
-180
51
-90.0001
0
ARC
8
BLACK
10
393.478
20
-70.6336
40
0.5
50
-0
51
90
0
ARC
8
BLACK
10
393.478
20
-83.6336
40
0.5
50
-90
51
-0
0
ARC
8
BLACK
10
380.481
20
-70.6347
40
0.500001
50
90.0001
51
180
0
LINE
8
BLACK
6
CONTINUOUS
10
289.203
20
-27.7711
11
289.203
21
-40.7711
0
LINE
8
BLACK
6
CONTINUOUS
10
275.703
20
-27.2711
11
288.703
21
-27.2711
0
LINE
8
BLACK
6
CONTINUOUS
10
288.703
20
-41.2711
11
275.703
21
-41.2711
0
LINE
8
BLACK
6
CONTINUOUS
10
275.203
20
-40.7711
11
275.203
21
-27.7711
0
ARC
8
BLACK
10
275.706
20
-27.7722
40
0.500001
50
90.0001
51
180
0
ARC
8
BLACK
10
288.703
20
-40.7711
40
0.5
50
-90
51
-0
0
ARC
8
BLACK
10
288.703
20
-27.7711
40
0.5
50
-0
51
90
0
ARC
8
BLACK
10
275.703
20
-40.7711
40
0.500001
50
-180
51
-90.0001
0
LINE
8
BLACK
6
CONTINUOUS
10
202.978
20
-84.1336
11
189.978
21
-84.1336
0
LINE
8
BLACK
6
CONTINUOUS
10
189.978
20
-70.1336
11
202.978
21
-70.1336
0
LINE
8
BLACK
6
CONTINUOUS
10
189.478
20
-83.6336
11
189.478
21
-70.6336
0
LINE
8
BLACK
6
CONTINUOUS
10
203.478
20
-70.6336
11
203.478
21
-83.6336
0
ARC
8
BLACK
10
202.978
20
-83.6336
40
0.5
50
-90
51
-0
0
ARC
8
BLACK
10
202.978
20
-70.6336
40
0.5
50
-0
51
90
0
ARC
8
BLACK
10
189.981
20
-70.6347
40
0.500001
50
90.0001
51
180
0
ARC
8
BLACK
10
189.978
20
-83.6336
40
0.500001
50
-180
51
-90.0001
0
LINE
8
BLACK
6
CONTINUOUS
10
393.478
20
-65.0836
11
380.478
21
-65.0836
0
LINE
8
BLACK
6
CONTINUOUS
10
379.978
20
-64.5836
11
379.978
21
-51.5836
0
LINE
8
BLACK
6
CONTINUOUS
10
380.478
20
-51.0836
11
393.478
21
-51.0836
0
LINE
8
BLACK
6
CONTINUOUS
10
393.978
20
-51.5836
11
393.978
21
-64.5836
0
ARC
8
BLACK
10
393.478
20
-51.5836
40
0.5
50
-0
51
90
0
ARC
8
BLACK
10
393.478
20
-64.5836
40
0.5
50
-90
51
-0
0
ARC
8
BLACK
10
380.481
20
-51.5847
40
0.500001
50
90.0001
51
180
0
ARC
8
BLACK
10
380.478
20
-64.5836
40
0.500001
50
-180
51
-90.0001
0
LINE
8
BLACK
6
CONTINUOUS
10
251.391
20
-102.684
11
251.391
21
-89.6836
0
LINE
8
BLACK
6
CONTINUOUS
10
264.891
20
-103.184
11
251.891
21
-103.184
0
LINE
8
BLACK
6
CONTINUOUS
10
251.891
20
-89.1836
11
264.891
21
-89.1836
0
LINE
8
BLACK
6
CONTINUOUS
10
265.391
20
-89.6836
11
265.391
21
-102.684
0
ARC
8
BLACK
10
251.894
20
-89.6847
40
0.500001
50
90.0001
51
180
0
ARC
8
BLACK
10
264.891
20
-89.6836
40
0.5
50
-0
51
90
0
ARC
8
BLACK
10
264.891
20
-102.684
40
0.5
50
-90
51
-0
0
ARC
8
BLACK
10
251.891
20
-102.684
40
0.500001
50
-180
51
-90.0001
0
LINE
8
BLACK
6
CONTINUOUS
10
41.5534
20
-27.7711
11
41.5534
21
-40.7711
0
LINE
8
BLACK
6
CONTINUOUS
10
28.0534
20
-27.2711
11
41.0534
21
-27.2711
0
LINE
8
BLACK
6
CONTINUOUS
10
41.0534
20
-41.2711
11
28.0534
21
-41.2711
0
LINE
8
BLACK
6
CONTINUOUS
10
27.5534
20
-40.7711
11
27.5534
21
-27.7711
0
ARC
8
BLACK
10
28.0534
20
-40.7711
40
0.500001
50
-180
51
-90.0001
0
ARC
8
BLACK
10
41.0534
20
-27.7711
40
0.5
50
-0
51
90
0
ARC
8
BLACK
10
28.0562
20
-27.7722
40
0.500001
50
90.0001
51
180
0
ARC
8
BLACK
10
41.0534
20
-40.7711
40
0.5
50
-90
51
-0
0
LINE
8
BLACK
6
CONTINUOUS
10
241.078
20
-84.1336
11
228.078
21
-84.1336
0
LINE
8
BLACK
6
CONTINUOUS
10
228.078
20
-70.1336
11
241.078
21
-70.1336
0
LINE
8
BLACK
6
CONTINUOUS
10
241.578
20
-70.6336
11
241.578
21
-83.6336
0
LINE
8
BLACK
6
CONTINUOUS
10
227.578
20
-83.6336
11
227.578
21
-70.6336
0
ARC
8
BLACK
10
228.081
20
-70.6347
40
0.500001
50
90.0001
51
180
0
ARC
8
BLACK
10
228.078
20
-83.6336
40
0.500001
50
-180
51
-90.0001
0
ARC
8
BLACK
10
241.078
20
-70.6336
40
0.5
50
-0
51
90
0
ARC
8
BLACK
10
241.078
20
-83.6336
40
0.5
50
-90
51
-0
0
LINE
8
BLACK
6
CONTINUOUS
10
189.191
20
-89.6836
11
189.191
21
-102.684
0
LINE
8
BLACK
6
CONTINUOUS
10
188.691
20
-103.184
11
175.691
21
-103.184
0
LINE
8
BLACK
6
CONTINUOUS
10
175.191
20
-102.684
11
175.191
21
-89.6836
0
LINE
8
BLACK
6
CONTINUOUS
10
175.691
20
-89.1836
11
188.691
21
-89.1836
0
ARC
8
BLACK
10
175.694
20
-89.6847
40
0.500001
50
90.0001
51
180
0
ARC
8
BLACK
10
175.691
20
-102.684
40
0.500001
50
-180
51
-90.0001
0
ARC
8
BLACK
10
188.691
20
-102.684
40
0.5
50
-90
51
-0
0
ARC
8
BLACK
10
188.691
20
-89.6836
40
0.5
50
-0
51
90
0
LINE
8
BLACK
6
CONTINUOUS
10
184.716
20
-121.734
11
184.716
21
-108.734
0
LINE
8
BLACK
6
CONTINUOUS
10
198.216
20
-122.234
11
185.216
21
-122.234
0
LINE
8
BLACK
6
CONTINUOUS
10
198.716
20
-108.734
11
198.716
21
-121.734
0
LINE
8
BLACK
6
CONTINUOUS
10
185.216
20
-108.234
11
198.216
21
-108.234
0
ARC
8
BLACK
10
198.216
20
-108.734
40
0.5
50
-0
51
90
0
ARC
8
BLACK
10
198.216
20
-121.734
40
0.5
50
-90
51
-0
0
ARC
8
BLACK
10
185.216
20
-121.734
40
0.500001
50
-180
51
-90.0001
0
ARC
8
BLACK
10
185.219
20
-108.735
40
0.500001
50
90.0001
51
180
0
LINE
8
BLACK
6
CONTINUOUS
10
220.42
20
-140.79
11
220.42
21
-127.79
0
LINE
8
BLACK
6
CONTINUOUS
10
220.92
20
-127.29
11
233.92
21
-127.29
0
LINE
8
BLACK
6
CONTINUOUS
10
234.42
20
-127.79
11
234.42
21
-140.79
0
LINE
8
BLACK
6
CONTINUOUS
10
233.92
20
-141.29
11
220.92
21
-141.29
0
ARC
8
BLACK
10
233.92
20
-140.79
40
0.5
50
-90
51
-0
0
ARC
8
BLACK
10
233.92
20
-127.79
40
0.5
50
-0
51
90
0
ARC
8
BLACK
10
220.923
20
-127.791
40
0.500001
50
90.0001
51
180
0
ARC
8
BLACK
10
220.92
20
-140.79
40
0.500001
50
-180
51
-90.0001
0
LINE
8
BLACK
6
CONTINUOUS
10
151.091
20
-89.6836
11
151.091
21
-102.684
0
LINE
8
BLACK
6
CONTINUOUS
10
150.591
20
-103.184
11
137.591
21
-103.184
0
LINE
8
BLACK
6
CONTINUOUS
10
137.091
20
-102.684
11
137.091
21
-89.6836
0
LINE
8
BLACK
6
CONTINUOUS
10
137.591
20
-89.1836
11
150.591
21
-89.1836
0
ARC
8
BLACK
10
150.591
20
-89.6836
40
0.5
50
-0
51
90
0
ARC
8
BLACK
10
150.591
20
-102.684
40
0.5
50
-90
51
-0
0
ARC
8
BLACK
10
137.594
20
-89.6847
40
0.500001
50
90.0001
51
180
0
ARC
8
BLACK
10
137.591
20
-102.684
40
0.500001
50
-180
51
-90.0001
0
LINE
8
BLACK
6
CONTINUOUS
10
412.528
20
-93.6586
11
399.528
21
-93.6586
0
LINE
8
BLACK
6
CONTINUOUS
10
399.528
20
-79.6586
11
412.528
21
-79.6586
0
LINE
8
BLACK
6
CONTINUOUS
10
413.028
20
-80.1586
11
413.028
21
-93.1586
0
LINE
8
BLACK
6
CONTINUOUS
10
399.028
20
-93.1586
11
399.028
21
-80.1586
0
ARC
8
BLACK
10
399.531
20
-80.1597
40
0.500001
50
90.0001
51
180
0
ARC
8
BLACK
10
412.528
20
-80.1586
40
0.5
50
-0
51
90
0
ARC
8
BLACK
10
412.528
20
-93.1586
40
0.5
50
-90
51
-0
0
ARC
8
BLACK
10
399.528
20
-93.1586
40
0.500001
50
-180
51
-90.0001
0
LINE
8
BLACK
6
CONTINUOUS
10
218.053
20
-64.5836
11
218.053
21
-51.5836
0
LINE
8
BLACK
6
CONTINUOUS
10
232.053
20
-51.5836
11
232.053
21
-64.5836
0
LINE
8
BLACK
6
CONTINUOUS
10
231.553
20
-65.0836
11
218.553
21
-65.0836
0
LINE
8
BLACK
6
CONTINUOUS
10
218.553
20
-51.0836
11
231.553
21
-51.0836
0
ARC
8
BLACK
10
218.556
20
-51.5847
40
0.500001
50
90.0001
51
180
0
ARC
8
BLACK
10
231.553
20
-51.5836
40
0.5
50
-0
51
90
0
ARC
8
BLACK
10
231.553
20
-64.5836
40
0.5
50
-90
51
-0
0
ARC
8
BLACK
10
218.553
20
-64.5836
40
0.500001
50
-180
51
-90.0001
0
LINE
8
BLACK
6
CONTINUOUS
10
208.528
20
-40.7711
11
208.528
21
-27.7711
0
LINE
8
BLACK
6
CONTINUOUS
10
222.028
20
-41.2711
11
209.028
21
-41.2711
0
LINE
8
BLACK
6
CONTINUOUS
10
209.028
20
-27.2711
11
222.028
21
-27.2711
0
LINE
8
BLACK
6
CONTINUOUS
10
222.528
20
-27.7711
11
222.528
21
-40.7711
0
ARC
8
BLACK
10
209.028
20
-40.7711
40
0.500001
50
-180
51
-90.0001
0
ARC
8
BLACK
10
222.028
20
-27.7711
40
0.5
50
-0
51
90
0
ARC
8
BLACK
10
209.031
20
-27.7722
40
0.500001
50
90.0001
51
180
0
ARC
8
BLACK
10
222.028
20
-40.7711
40
0.5
50
-90
51
-0
0
LINE
8
BLACK
6
CONTINUOUS
10
302.991
20
-84.1336
11
289.991
21
-84.1336
0
LINE
8
BLACK
6
CONTINUOUS
10
289.491
20
-83.6336
11
289.491
21
-70.6336
0
LINE
8
BLACK
6
CONTINUOUS
10
289.991
20
-70.1336
11
302.991
21
-70.1336
0
LINE
8
BLACK
6
CONTINUOUS
10
303.491
20
-70.6336
11
303.491
21
-83.6336
0
ARC
8
BLACK
10
302.991
20
-70.6336
40
0.5
50
-0
51
90
0
ARC
8
BLACK
10
289.994
20
-70.6347
40
0.500001
50
90.0001
51
180
0
ARC
8
BLACK
10
289.991
20
-83.6336
40
0.500001
50
-180
51
-90.0001
0
ARC
8
BLACK
10
302.991
20
-83.6336
40
0.5
50
-90
51
-0
0
LINE
8
BLACK
6
CONTINUOUS
10
318.566
20
-89.1836
11
331.566
21
-89.1836
0
LINE
8
BLACK
6
CONTINUOUS
10
332.066
20
-89.6836
11
332.066
21
-102.684
0
LINE
8
BLACK
6
CONTINUOUS
10
318.066
20
-102.684
11
318.066
21
-89.6836
0
LINE
8
BLACK
6
CONTINUOUS
10
331.566
20
-103.184
11
318.566
21
-103.184
0
ARC
8
BLACK
10
331.566
20
-102.684
40
0.5
50
-90
51
-0
0
ARC
8
BLACK
10
331.566
20
-89.6836
40
0.5
50
-0
51
90
0
ARC
8
BLACK
10
318.566
20
-102.684
40
0.500001
50
-180
51
-90.0001
0
ARC
8
BLACK
10
318.569
20
-89.6847
40
0.500001
50
90.0001
51
180
0
LINE
8
BLACK
6
CONTINUOUS
10
282.06
20
-108.734
11
282.06
21
-121.734
0
LINE
8
BLACK
6
CONTINUOUS
10
268.06
20
-121.734
11
268.06
21
-108.734
0
LINE
8
BLACK
6
CONTINUOUS
10
268.56
20
-108.234
11
281.56
21
-108.234
0
LINE
8
BLACK
6
CONTINUOUS
10
281.56
20
-122.234
11
268.56
21
-122.234
0
ARC
8
BLACK
10
281.56
20
-121.734
40
0.5
50
-90
51
-0
0
ARC
8
BLACK
10
268.562
20
-108.735
40
0.500001
50
90.0001
51
180
0
ARC
8
BLACK
10
268.56
20
-121.734
40
0.500001
50
-180
51
-90.0001
0
ARC
8
BLACK
10
281.56
20
-108.734
40
0.5
50
-0
51
90
0
LINE
8
BLACK
6
CONTINUOUS
10
393.978
20
-127.784
11
393.978
21
-140.784
0
LINE
8
BLACK
6
CONTINUOUS
10
393.478
20
-141.284
11
380.478
21
-141.284
0
LINE
8
BLACK
6
CONTINUOUS
10
380.478
20
-127.284
11
393.478
21
-127.284
0
LINE
8
BLACK
6
CONTINUOUS
10
379.978
20
-140.784
11
379.978
21
-127.784
0
ARC
8
BLACK
10
380.478
20
-140.784
40
0.500001
50
-180
51
-90.0001
0
ARC
8
BLACK
10
393.478
20
-140.784
40
0.5
50
-90
51
-0
0
ARC
8
BLACK
10
393.478
20
-127.784
40
0.5
50
-0
51
90
0
ARC
8
BLACK
10
380.481
20
-127.785
40
0.500001
50
90.0001
51
180
0
LINE
8
BLACK
6
CONTINUOUS
10
242.366
20
-108.234
11
255.366
21
-108.234
0
LINE
8
BLACK
6
CONTINUOUS
10
255.866
20
-108.734
11
255.866
21
-121.734
0
LINE
8
BLACK
6
CONTINUOUS
10
255.366
20
-122.234
11
242.366
21
-122.234
0
LINE
8
BLACK
6
CONTINUOUS
10
241.866
20
-121.734
11
241.866
21
-108.734
0
ARC
8
BLACK
10
255.366
20
-108.734
40
0.5
50
-0
51
90
0
ARC
8
BLACK
10
242.366
20
-121.734
40
0.500001
50
-180
51
-90.0001
0
ARC
8
BLACK
10
255.366
20
-121.734
40
0.5
50
-90
51
-0
0
ARC
8
BLACK
10
242.369
20
-108.735
40
0.500001
50
90.0001
51
180
0
LINE
8
BLACK
6
CONTINUOUS
10
98.2034
20
-65.0836
11
85.2034
21
-65.0836
0
LINE
8
BLACK
6
CONTINUOUS
10
84.7034
20
-64.5836
11
84.7034
21
-51.5836
0
LINE
8
BLACK
6
CONTINUOUS
10
85.2034
20
-51.0836
11
98.2034
21
-51.0836
0
LINE
8
BLACK
6
CONTINUOUS
10
98.7034
20
-51.5836
11
98.7034
21
-64.5836
0
ARC
8
BLACK
10
85.2034
20
-64.5836
40
0.500001
50
-180
51
-90.0001
0
ARC
8
BLACK
10
85.2062
20
-51.5847
40
0.500001
50
90.0001
51
180
0
ARC
8
BLACK
10
98.2034
20
-51.5836
40
0.5
50
-0
51
90
0
ARC
8
BLACK
10
98.2034
20
-64.5836
40
0.5
50
-90
51
-0
0
LINE
8
BLACK
6
CONTINUOUS
10
318.066
20
-121.734
11
318.066
21
-108.734
0
LINE
8
BLACK
6
CONTINUOUS
10
318.566
20
-108.234
11
331.566
21
-108.234
0
LINE
8
BLACK
6
CONTINUOUS
10
331.566
20
-122.234
11
318.566
21
-122.234
0
LINE
8
BLACK
6
CONTINUOUS
10
332.066
20
-108.734
11
332.066
21
-121.734
0
ARC
8
BLACK
10
318.566
20
-121.734
40
0.500001
50
-180
51
-90.0001
0
ARC
8
BLACK
10
331.566
20
-108.734
40
0.5
50
-0
51
90
0
ARC
8
BLACK
10
318.569
20
-108.735
40
0.500001
50
90.0001
51
180
0
ARC
8
BLACK
10
331.566
20
-121.734
40
0.5
50
-90
51
-0
0
LINE
8
BLACK
6
CONTINUOUS
10
70.1284
20
-70.6336
11
70.1284
21
-83.6336
0
LINE
8
BLACK
6
CONTINUOUS
10
69.6284
20
-84.1336
11
56.6284
21
-84.1336
0
LINE
8
BLACK
6
CONTINUOUS
10
56.1284
20
-83.6336
11
56.1284
21
-70.6336
0
LINE
8
BLACK
6
CONTINUOUS
10
56.6284
20
-70.1336
11
69.6284
21
-70.1336
0
ARC
8
BLACK
10
69.6284
20
-83.6336
40
0.5
50
-90
51
-0
0
ARC
8
BLACK
10
69.6284
20
-70.6336
40
0.5
50
-0
51
90
0
ARC
8
BLACK
10
56.6284
20
-83.6336
40
0.500001
50
-180
51
-90.0001
0
ARC
8
BLACK
10
56.6312
20
-70.6347
40
0.500001
50
90.0001
51
180
0
LINE
8
BLACK
6
CONTINUOUS
10
300.607
20
-141.282
11
287.607
21
-141.282
0
LINE
8
BLACK
6
CONTINUOUS
10
287.107
20
-140.782
11
287.107
21
-127.782
0
LINE
8
BLACK
6
CONTINUOUS
10
301.107
20
-127.782
11
301.107
21
-140.782
0
LINE
8
BLACK
6
CONTINUOUS
10
287.607
20
-127.282
11
300.607
21
-127.282
0
ARC
8
BLACK
10
300.607
20
-127.782
40
0.5
50
-0
51
90
0
ARC
8
BLACK
10
287.607
20
-140.782
40
0.500001
50
-180
51
-90.0001
0
ARC
8
BLACK
10
287.609
20
-127.783
40
0.500001
50
90.0001
51
180
0
ARC
8
BLACK
10
300.607
20
-140.782
40
0.5
50
-90
51
-0
0
LINE
8
BLACK
6
CONTINUOUS
10
103.466
20
-108.734
11
103.466
21
-121.734
0
LINE
8
BLACK
6
CONTINUOUS
10
89.9659
20
-108.234
11
102.966
21
-108.234
0
LINE
8
BLACK
6
CONTINUOUS
10
89.4659
20
-121.734
11
89.4659
21
-108.734
0
LINE
8
BLACK
6
CONTINUOUS
10
102.966
20
-122.234
11
89.9659
21
-122.234
0
ARC
8
BLACK
10
89.9659
20
-121.734
40
0.500001
50
-180
51
-90.0001
0
ARC
8
BLACK
10
89.9687
20
-108.735
40
0.500001
50
90.0001
51
180
0
ARC
8
BLACK
10
102.966
20
-108.734
40
0.5
50
-0
51
90
0
ARC
8
BLACK
10
102.966
20
-121.734
40
0.5
50
-90
51
-0
0
LINE
8
BLACK
6
CONTINUOUS
10
179.953
20
-64.5836
11
179.953
21
-51.5836
0
LINE
8
BLACK
6
CONTINUOUS
10
180.453
20
-51.0836
11
193.453
21
-51.0836
0
LINE
8
BLACK
6
CONTINUOUS
10
193.953
20
-51.5836
11
193.953
21
-64.5836
0
LINE
8
BLACK
6
CONTINUOUS
10
193.453
20
-65.0836
11
180.453
21
-65.0836
0
ARC
8
BLACK
10
193.453
20
-51.5836
40
0.5
50
-0
51
90
0
ARC
8
BLACK
10
180.453
20
-64.5836
40
0.500001
50
-180
51
-90.0001
0
ARC
8
BLACK
10
180.456
20
-51.5847
40
0.500001
50
90.0001
51
180
0
ARC
8
BLACK
10
193.453
20
-64.5836
40
0.5
50
-90
51
-0
0
LINE
8
BLACK
6
CONTINUOUS
10
355.878
20
-108.734
11
355.878
21
-121.734
0
LINE
8
BLACK
6
CONTINUOUS
10
341.878
20
-121.734
11
341.878
21
-108.734
0
LINE
8
BLACK
6
CONTINUOUS
10
342.378
20
-108.234
11
355.378
21
-108.234
0
LINE
8
BLACK
6
CONTINUOUS
10
355.378
20
-122.234
11
342.378
21
-122.234
0
ARC
8
BLACK
10
342.381
20
-108.735
40
0.500001
50
90.0001
51
180
0
ARC
8
BLACK
10
342.378
20
-121.734
40
0.500001
50
-180
51
-90.0001
0
ARC
8
BLACK
10
355.378
20
-121.734
40
0.5
50
-90
51
-0
0
ARC
8
BLACK
10
355.378
20
-108.734
40
0.5
50
-0
51
90
0
LINE
8
BLACK
6
CONTINUOUS
10
98.2034
20
-41.2711
11
85.2034
21
-41.2711
0
LINE
8
BLACK
6
CONTINUOUS
10
84.7034
20
-40.7711
11
84.7034
21
-27.7711
0
LINE
8
BLACK
6
CONTINUOUS
10
98.7034
20
-27.7711
11
98.7034
21
-40.7711
0
LINE
8
BLACK
6
CONTINUOUS
10
85.2034
20
-27.2711
11
98.2034
21
-27.2711
0
ARC
8
BLACK
10
85.2062
20
-27.7722
40
0.500001
50
90.0001
51
180
0
ARC
8
BLACK
10
98.2034
20
-27.7711
40
0.5
50
-0
51
90
0
ARC
8
BLACK
10
98.2034
20
-40.7711
40
0.5
50
-90
51
-0
0
ARC
8
BLACK
10
85.2034
20
-40.7711
40
0.500001
50
-180
51
-90.0001
0
LINE
8
BLACK
6
CONTINUOUS
10
355.878
20
-89.6836
11
355.878
21
-102.684
0
LINE
8
BLACK
6
CONTINUOUS
10
342.378
20
-89.1836
11
355.378
21
-89.1836
0
LINE
8
BLACK
6
CONTINUOUS
10
355.378
20
-103.184
11
342.378
21
-103.184
0
LINE
8
BLACK
6
CONTINUOUS
10
341.878
20
-102.684
11
341.878
21
-89.6836
0
ARC
8
BLACK
10
355.378
20
-89.6836
40
0.5
50
-0
51
90
0
ARC
8
BLACK
10
342.378
20
-102.684
40
0.500001
50
-180
51
-90.0001
0
ARC
8
BLACK
10
355.378
20
-102.684
40
0.5
50
-90
51
-0
0
ARC
8
BLACK
10
342.381
20
-89.6847
40
0.500001
50
90.0001
51
180
0
LINE
8
BLACK
6
CONTINUOUS
10
165.378
20
-27.7711
11
165.378
21
-40.7711
0
LINE
8
BLACK
6
CONTINUOUS
10
164.878
20
-41.2711
11
151.878
21
-41.2711
0
LINE
8
BLACK
6
CONTINUOUS
10
151.378
20
-40.7711
11
151.378
21
-27.7711
0
LINE
8
BLACK
6
CONTINUOUS
10
151.878
20
-27.2711
11
164.878
21
-27.2711
0
ARC
8
BLACK
10
151.878
20
-40.7711
40
0.500001
50
-180
51
-90.0001
0
ARC
8
BLACK
10
151.881
20
-27.7722
40
0.500001
50
90.0001
51
180
0
ARC
8
BLACK
10
164.878
20
-27.7711
40
0.5
50
-0
51
90
0
ARC
8
BLACK
10
164.878
20
-40.7711
40
0.5
50
-90
51
-0
0
LINE
8
BLACK
6
CONTINUOUS
10
222.816
20
-121.734
11
222.816
21
-108.734
0
LINE
8
BLACK
6
CONTINUOUS
10
236.816
20
-108.734
11
236.816
21
-121.734
0
LINE
8
BLACK
6
CONTINUOUS
10
223.316
20
-108.234
11
236.316
21
-108.234
0
LINE
8
BLACK
6
CONTINUOUS
10
236.316
20
-122.234
11
223.316
21
-122.234
0
ARC
8
BLACK
10
223.319
20
-108.735
40
0.500001
50
90.0001
51
180
0
ARC
8
BLACK
10
223.316
20
-121.734
40
0.500001
50
-180
51
-90.0001
0
ARC
8
BLACK
10
236.316
20
-108.734
40
0.5
50
-0
51
90
0
ARC
8
BLACK
10
236.316
20
-121.734
40
0.5
50
-90
51
-0
0
LINE
8
BLACK
6
CONTINUOUS
10
194.741
20
-89.1836
11
207.741
21
-89.1836
0
LINE
8
BLACK
6
CONTINUOUS
10
208.241
20
-89.6836
11
208.241
21
-102.684
0
LINE
8
BLACK
6
CONTINUOUS
10
194.241
20
-102.684
11
194.241
21
-89.6836
0
LINE
8
BLACK
6
CONTINUOUS
10
207.741
20
-103.184
11
194.741
21
-103.184
0
ARC
8
BLACK
10
194.741
20
-102.684
40
0.500001
50
-180
51
-90.0001
0
ARC
8
BLACK
10
207.741
20
-102.684
40
0.5
50
-90
51
-0
0
ARC
8
BLACK
10
207.741
20
-89.6836
40
0.5
50
-0
51
90
0
ARC
8
BLACK
10
194.744
20
-89.6847
40
0.500001
50
90.0001
51
180
0
LINE
8
BLACK
6
CONTINUOUS
10
111.39
20
-127.27
11
124.39
21
-127.27
0
LINE
8
BLACK
6
CONTINUOUS
10
124.39
20
-141.27
11
111.39
21
-141.27
0
LINE
8
BLACK
6
CONTINUOUS
10
110.89
20
-140.77
11
110.89
21
-127.77
0
LINE
8
BLACK
6
CONTINUOUS
10
124.89
20
-127.77
11
124.89
21
-140.77
0
ARC
8
BLACK
10
124.39
20
-127.77
40
0.5
50
-0
51
90
0
ARC
8
BLACK
10
111.39
20
-140.77
40
0.500001
50
-180
51
-90.0001
0
ARC
8
BLACK
10
111.393
20
-127.771
40
0.500001
50
90.0001
51
180
0
ARC
8
BLACK
10
124.39
20
-140.77
40
0.5
50
-90
51
-0
0
LINE
8
BLACK
6
CONTINUOUS
10
145.828
20
-84.1336
11
132.828
21
-84.1336
0
LINE
8
BLACK
6
CONTINUOUS
10
146.328
20
-70.6336
11
146.328
21
-83.6336
0
LINE
8
BLACK
6
CONTINUOUS
10
132.828
20
-70.1336
11
145.828
21
-70.1336
0
LINE
8
BLACK
6
CONTINUOUS
10
132.328
20
-83.6336
11
132.328
21
-70.6336
0
ARC
8
BLACK
10
145.828
20
-70.6336
40
0.5
50
-0
51
90
0
ARC
8
BLACK
10
145.828
20
-83.6336
40
0.5
50
-90
51
-0
0
ARC
8
BLACK
10
132.831
20
-70.6347
40
0.500001
50
90.0001
51
180
0
ARC
8
BLACK
10
132.828
20
-83.6336
40
0.500001
50
-180
51
-90.0001
0
LINE
8
BLACK
6
CONTINUOUS
10
66.1534
20
-51.0836
11
79.1534
21
-51.0836
0
LINE
8
BLACK
6
CONTINUOUS
10
65.6534
20
-64.5836
11
65.6534
21
-51.5836
0
LINE
8
BLACK
6
CONTINUOUS
10
79.1534
20
-65.0836
11
66.1534
21
-65.0836
0
LINE
8
BLACK
6
CONTINUOUS
10
79.6534
20
-51.5836
11
79.6534
21
-64.5836
0
ARC
8
BLACK
10
66.1534
20
-64.5836
40
0.500001
50
-180
51
-90.0001
0
ARC
8
BLACK
10
66.1562
20
-51.5847
40
0.500001
50
90.0001
51
180
0
ARC
8
BLACK
10
79.1534
20
-51.5836
40
0.5
50
-0
51
90
0
ARC
8
BLACK
10
79.1534
20
-64.5836
40
0.5
50
-90
51
-0
0
LINE
8
BLACK
6
CONTINUOUS
10
151.878
20
-70.1336
11
164.878
21
-70.1336
0
LINE
8
BLACK
6
CONTINUOUS
10
151.378
20
-83.6336
11
151.378
21
-70.6336
0
LINE
8
BLACK
6
CONTINUOUS
10
165.378
20
-70.6336
11
165.378
21
-83.6336
0
LINE
8
BLACK
6
CONTINUOUS
10
164.878
20
-84.1336
11
151.878
21
-84.1336
0
ARC
8
BLACK
10
164.878
20
-70.6336
40
0.5
50
-0
51
90
0
ARC
8
BLACK
10
151.878
20
-83.6336
40
0.500001
50
-180
51
-90.0001
0
ARC
8
BLACK
10
151.881
20
-70.6347
40
0.500001
50
90.0001
51
180
0
ARC
8
BLACK
10
164.878
20
-83.6336
40
0.5
50
-90
51
-0
0
LINE
8
BLACK
6
CONTINUOUS
10
80.4409
20
-89.1836
11
93.4409
21
-89.1836
0
LINE
8
BLACK
6
CONTINUOUS
10
93.9409
20
-89.6836
11
93.9409
21
-102.684
0
LINE
8
BLACK
6
CONTINUOUS
10
93.4409
20
-103.184
11
80.4409
21
-103.184
0
LINE
8
BLACK
6
CONTINUOUS
10
79.9409
20
-102.684
11
79.9409
21
-89.6836
0
ARC
8
BLACK
10
93.4409
20
-102.684
40
0.5
50
-90
51
-0
0
ARC
8
BLACK
10
80.4437
20
-89.6847
40
0.500001
50
90.0001
51
180
0
ARC
8
BLACK
10
80.4409
20
-102.684
40
0.500001
50
-180
51
-90.0001
0
ARC
8
BLACK
10
93.4409
20
-89.6836
40
0.5
50
-0
51
90
0
LINE
8
BLACK
6
CONTINUOUS
10
212.503
20
-65.0836
11
199.503
21
-65.0836
0
LINE
8
BLACK
6
CONTINUOUS
10
199.503
20
-51.0836
11
212.503
21
-51.0836
0
LINE
8
BLACK
6
CONTINUOUS
10
199.003
20
-64.5836
11
199.003
21
-51.5836
0
LINE
8
BLACK
6
CONTINUOUS
10
213.003
20
-51.5836
11
213.003
21
-64.5836
0
ARC
8
BLACK
10
199.506
20
-51.5847
40
0.500001
50
90.0001
51
180
0
ARC
8
BLACK
10
212.503
20
-64.5836
40
0.5
50
-90
51
-0
0
ARC
8
BLACK
10
212.503
20
-51.5836
40
0.5
50
-0
51
90
0
ARC
8
BLACK
10
199.503
20
-64.5836
40
0.500001
50
-180
51
-90.0001
0
LINE
8
BLACK
6
CONTINUOUS
10
91.0596
20
-141.284
11
78.0596
21
-141.284
0
LINE
8
BLACK
6
CONTINUOUS
10
78.0596
20
-127.284
11
91.0596
21
-127.284
0
LINE
8
BLACK
6
CONTINUOUS
10
77.5596
20
-140.784
11
77.5596
21
-127.784
0
LINE
8
BLACK
6
CONTINUOUS
10
91.5596
20
-127.784
11
91.5596
21
-140.784
0
ARC
8
BLACK
10
78.0597
20
-140.784
40
0.500001
50
-180
51
-90.0001
0
ARC
8
BLACK
10
91.0596
20
-127.784
40
0.5
50
-0
51
90
0
ARC
8
BLACK
10
91.0596
20
-140.784
40
0.5
50
-90
51
-0
0
ARC
8
BLACK
10
78.0624
20
-127.785
40
0.500001
50
90.0001
51
180
0
LINE
8
BLACK
6
CONTINUOUS
10
222.528
20
-70.6336
11
222.528
21
-83.6336
0
LINE
8
BLACK
6
CONTINUOUS
10
208.528
20
-83.6336
11
208.528
21
-70.6336
0
LINE
8
BLACK
6
CONTINUOUS
10
209.028
20
-70.1336
11
222.028
21
-70.1336
0
LINE
8
BLACK
6
CONTINUOUS
10
222.028
20
-84.1336
11
209.028
21
-84.1336
0
ARC
8
BLACK
10
222.028
20
-70.6336
40
0.5
50
-0
51
90
0
ARC
8
BLACK
10
222.028
20
-83.6336
40
0.5
50
-90
51
-0
0
ARC
8
BLACK
10
209.031
20
-70.6347
40
0.500001
50
90.0001
51
180
0
ARC
8
BLACK
10
209.028
20
-83.6336
40
0.500001
50
-180
51
-90.0001
0
LINE
8
BLACK
6
CONTINUOUS
10
237.103
20
-40.7711
11
237.103
21
-27.7711
0
LINE
8
BLACK
6
CONTINUOUS
10
250.603
20
-41.2711
11
237.603
21
-41.2711
0
LINE
8
BLACK
6
CONTINUOUS
10
237.603
20
-27.2711
11
250.603
21
-27.2711
0
LINE
8
BLACK
6
CONTINUOUS
10
251.103
20
-27.7711
11
251.103
21
-40.7711
0
ARC
8
BLACK
10
250.603
20
-27.7711
40
0.5
50
-0
51
90
0
ARC
8
BLACK
10
237.603
20
-40.7711
40
0.500001
50
-180
51
-90.0001
0
ARC
8
BLACK
10
250.603
20
-40.7711
40
0.5
50
-90
51
-0
0
ARC
8
BLACK
10
237.606
20
-27.7722
40
0.500001
50
90.0001
51
180
0
LINE
8
BLACK
6
CONTINUOUS
10
318.566
20
-51.0836
11
331.566
21
-51.0836
0
LINE
8
BLACK
6
CONTINUOUS
10
332.066
20
-51.5836
11
332.066
21
-64.5836
0
LINE
8
BLACK
6
CONTINUOUS
10
331.566
20
-65.0836
11
318.566
21
-65.0836
0
LINE
8
BLACK
6
CONTINUOUS
10
318.066
20
-64.5836
11
318.066
21
-51.5836
0
ARC
8
BLACK
10
318.569
20
-51.5847
40
0.500001
50
90.0001
51
180
0
ARC
8
BLACK
10
318.566
20
-64.5836
40
0.500001
50
-180
51
-90.0001
0
ARC
8
BLACK
10
331.566
20
-64.5836
40
0.5
50
-90
51
-0
0
ARC
8
BLACK
10
331.566
20
-51.5836
40
0.5
50
-0
51
90
0
LINE
8
BLACK
6
CONTINUOUS
10
318.066
20
-140.784
11
318.066
21
-127.784
0
LINE
8
BLACK
6
CONTINUOUS
10
332.066
20
-127.784
11
332.066
21
-140.784
0
LINE
8
BLACK
6
CONTINUOUS
10
331.566
20
-141.284
11
318.566
21
-141.284
0
LINE
8
BLACK
6
CONTINUOUS
10
318.566
20
-127.284
11
331.566
21
-127.284
0
ARC
8
BLACK
10
318.569
20
-127.785
40
0.500001
50
90.0001
51
180
0
ARC
8
BLACK
10
331.566
20
-127.784
40
0.5
50
-0
51
90
0
ARC
8
BLACK
10
331.566
20
-140.784
40
0.5
50
-90
51
-0
0
ARC
8
BLACK
10
318.566
20
-140.784
40
0.500001
50
-180
51
-90.0001
0
LINE
8
BLACK
6
CONTINUOUS
10
281.56
20
-141.284
11
268.56
21
-141.284
0
LINE
8
BLACK
6
CONTINUOUS
10
282.06
20
-127.784
11
282.06
21
-140.784
0
LINE
8
BLACK
6
CONTINUOUS
10
268.56
20
-127.284
11
281.56
21
-127.284
0
LINE
8
BLACK
6
CONTINUOUS
10
268.06
20
-140.784
11
268.06
21
-127.784
0
ARC
8
BLACK
10
281.56
20
-140.784
40
0.5
50
-90
51
-0
0
ARC
8
BLACK
10
281.56
20
-127.784
40
0.5
50
-0
51
90
0
ARC
8
BLACK
10
268.562
20
-127.785
40
0.500001
50
90.0001
51
180
0
ARC
8
BLACK
10
268.56
20
-140.784
40
0.500001
50
-180
51
-90.0001
0
LINE
8
BLACK
6
CONTINUOUS
10
70.9159
20
-108.234
11
83.9159
21
-108.234
0
LINE
8
BLACK
6
CONTINUOUS
10
83.9159
20
-122.234
11
70.9159
21
-122.234
0
LINE
8
BLACK
6
CONTINUOUS
10
84.4159
20
-108.734
11
84.4159
21
-121.734
0
LINE
8
BLACK
6
CONTINUOUS
10
70.4159
20
-121.734
11
70.4159
21
-108.734
0
ARC
8
BLACK
10
83.9159
20
-121.734
40
0.5
50
-90
51
-0
0
ARC
8
BLACK
10
70.9187
20
-108.735
40
0.500001
50
90.0001
51
180
0
ARC
8
BLACK
10
70.9159
20
-121.734
40
0.500001
50
-180
51
-90.0001
0
ARC
8
BLACK
10
83.9159
20
-108.734
40
0.5
50
-0
51
90
0
LINE
8
BLACK
6
CONTINUOUS
10
355.878
20
-51.5836
11
355.878
21
-64.5836
0
LINE
8
BLACK
6
CONTINUOUS
10
355.378
20
-65.0836
11
342.378
21
-65.0836
0
LINE
8
BLACK
6
CONTINUOUS
10
341.878
20
-64.5836
11
341.878
21
-51.5836
0
LINE
8
BLACK
6
CONTINUOUS
10
342.378
20
-51.0836
11
355.378
21
-51.0836
0
ARC
8
BLACK
10
355.378
20
-51.5836
40
0.5
50
-0
51
90
0
ARC
8
BLACK
10
342.378
20
-64.5836
40
0.500001
50
-180
51
-90.0001
0
ARC
8
BLACK
10
342.381
20
-51.5847
40
0.500001
50
90.0001
51
180
0
ARC
8
BLACK
10
355.378
20
-64.5836
40
0.5
50
-90
51
-0
0
LINE
8
BLACK
6
CONTINUOUS
10
237.103
20
-64.5836
11
237.103
21
-51.5836
0
LINE
8
BLACK
6
CONTINUOUS
10
251.103
20
-51.5836
11
251.103
21
-64.5836
0
LINE
8
BLACK
6
CONTINUOUS
10
250.603
20
-65.0836
11
237.603
21
-65.0836
0
LINE
8
BLACK
6
CONTINUOUS
10
237.603
20
-51.0836
11
250.603
21
-51.0836
0
ARC
8
BLACK
10
250.603
20
-51.5836
40
0.5
50
-0
51
90
0
ARC
8
BLACK
10
237.603
20
-64.5836
40
0.500001
50
-180
51
-90.0001
0
ARC
8
BLACK
10
237.606
20
-51.5847
40
0.500001
50
90.0001
51
180
0
ARC
8
BLACK
10
250.603
20
-64.5836
40
0.5
50
-90
51
-0
0
LINE
8
BLACK
6
CONTINUOUS
10
203.478
20
-27.7711
11
203.478
21
-40.7711
0
LINE
8
BLACK
6
CONTINUOUS
10
202.978
20
-41.2711
11
189.978
21
-41.2711
0
LINE
8
BLACK
6
CONTINUOUS
10
189.478
20
-40.7711
11
189.478
21
-27.7711
0
LINE
8
BLACK
6
CONTINUOUS
10
189.978
20
-27.2711
11
202.978
21
-27.2711
0
ARC
8
BLACK
10
189.981
20
-27.7722
40
0.500001
50
90.0001
51
180
0
ARC
8
BLACK
10
189.978
20
-40.7711
40
0.500001
50
-180
51
-90.0001
0
ARC
8
BLACK
10
202.978
20
-40.7711
40
0.5
50
-90
51
-0
0
ARC
8
BLACK
10
202.978
20
-27.7711
40
0.5
50
-0
51
90
0
LINE
8
BLACK
6
CONTINUOUS
10
109.016
20
-108.234
11
122.016
21
-108.234
0
LINE
8
BLACK
6
CONTINUOUS
10
122.516
20
-108.734
11
122.516
21
-121.734
0
LINE
8
BLACK
6
CONTINUOUS
10
122.016
20
-122.234
11
109.016
21
-122.234
0
LINE
8
BLACK
6
CONTINUOUS
10
108.516
20
-121.734
11
108.516
21
-108.734
0
ARC
8
BLACK
10
109.019
20
-108.735
40
0.500001
50
90.0001
51
180
0
ARC
8
BLACK
10
109.016
20
-121.734
40
0.500001
50
-180
51
-90.0001
0
ARC
8
BLACK
10
122.016
20
-121.734
40
0.5
50
-90
51
-0
0
ARC
8
BLACK
10
122.016
20
-108.734
40
0.5
50
-0
51
90
0
LINE
8
BLACK
6
CONTINUOUS
10
141.566
20
-108.734
11
141.566
21
-121.734
0
LINE
8
BLACK
6
CONTINUOUS
10
127.566
20
-121.734
11
127.566
21
-108.734
0
LINE
8
BLACK
6
CONTINUOUS
10
141.066
20
-122.234
11
128.066
21
-122.234
0
LINE
8
BLACK
6
CONTINUOUS
10
128.066
20
-108.234
11
141.066
21
-108.234
0
ARC
8
BLACK
10
141.066
20
-108.734
40
0.5
50
-0
51
90
0
ARC
8
BLACK
10
141.066
20
-121.734
40
0.5
50
-90
51
-0
0
ARC
8
BLACK
10
128.069
20
-108.735
40
0.500001
50
90.0001
51
180
0
ARC
8
BLACK
10
128.066
20
-121.734
40
0.500001
50
-180
51
-90.0001
0
LINE
8
BLACK
6
CONTINUOUS
10
136.803
20
-51.5836
11
136.803
21
-64.5836
0
LINE
8
BLACK
6
CONTINUOUS
10
123.303
20
-51.0836
11
136.303
21
-51.0836
0
LINE
8
BLACK
6
CONTINUOUS
10
122.803
20
-64.5836
11
122.803
21
-51.5836
0
LINE
8
BLACK
6
CONTINUOUS
10
136.303
20
-65.0836
11
123.303
21
-65.0836
0
ARC
8
BLACK
10
123.303
20
-64.5836
40
0.500001
50
-180
51
-90.0001
0
ARC
8
BLACK
10
136.303
20
-64.5836
40
0.5
50
-90
51
-0
0
ARC
8
BLACK
10
136.303
20
-51.5836
40
0.5
50
-0
51
90
0
ARC
8
BLACK
10
123.306
20
-51.5847
40
0.500001
50
90.0001
51
180
0
LINE
8
BLACK
6
CONTINUOUS
10
364.903
20
-141.284
11
351.903
21
-141.284
0
LINE
8
BLACK
6
CONTINUOUS
10
351.403
20
-140.784
11
351.403
21
-127.784
0
LINE
8
BLACK
6
CONTINUOUS
10
351.903
20
-127.284
11
364.903
21
-127.284
0
LINE
8
BLACK
6
CONTINUOUS
10
365.403
20
-127.784
11
365.403
21
-140.784
0
ARC
8
BLACK
10
351.906
20
-127.785
40
0.500001
50
90.0001
51
180
0
ARC
8
BLACK
10
364.903
20
-127.784
40
0.5
50
-0
51
90
0
ARC
8
BLACK
10
364.903
20
-140.784
40
0.5
50
-90
51
-0
0
ARC
8
BLACK
10
351.903
20
-140.784
40
0.500001
50
-180
51
-90.0001
0
LINE
8
BLACK
6
CONTINUOUS
10
361.428
20
-70.1336
11
374.428
21
-70.1336
0
LINE
8
BLACK
6
CONTINUOUS
10
360.928
20
-83.6336
11
360.928
21
-70.6336
0
LINE
8
BLACK
6
CONTINUOUS
10
374.928
20
-70.6336
11
374.928
21
-83.6336
0
LINE
8
BLACK
6
CONTINUOUS
10
374.428
20
-84.1336
11
361.428
21
-84.1336
0
ARC
8
BLACK
10
361.431
20
-70.6347
40
0.500001
50
90.0001
51
180
0
ARC
8
BLACK
10
361.428
20
-83.6336
40
0.500001
50
-180
51
-90.0001
0
ARC
8
BLACK
10
374.428
20
-83.6336
40
0.5
50
-90
51
-0
0
ARC
8
BLACK
10
374.428
20
-70.6336
40
0.5
50
-0
51
90
0
LINE
8
BLACK
6
CONTINUOUS
10
126.778
20
-84.1336
11
113.778
21
-84.1336
0
LINE
8
BLACK
6
CONTINUOUS
10
113.778
20
-70.1336
11
126.778
21
-70.1336
0
LINE
8
BLACK
6
CONTINUOUS
10
127.278
20
-70.6336
11
127.278
21
-83.6336
0
LINE
8
BLACK
6
CONTINUOUS
10
113.278
20
-83.6336
11
113.278
21
-70.6336
0
ARC
8
BLACK
10
113.781
20
-70.6347
40
0.500001
50
90.0001
51
180
0
ARC
8
BLACK
10
126.778
20
-83.6336
40
0.5
50
-90
51
-0
0
ARC
8
BLACK
10
113.778
20
-83.6336
40
0.500001
50
-180
51
-90.0001
0
ARC
8
BLACK
10
126.778
20
-70.6336
40
0.5
50
-0
51
90
0
LINE
8
BLACK
6
CONTINUOUS
10
79.6534
20
-27.7711
11
79.6534
21
-40.7711
0
LINE
8
BLACK
6
CONTINUOUS
10
65.6534
20
-40.7711
11
65.6534
21
-27.7711
0
LINE
8
BLACK
6
CONTINUOUS
10
79.1534
20
-41.2711
11
66.1534
21
-41.2711
0
LINE
8
BLACK
6
CONTINUOUS
10
66.1534
20
-27.2711
11
79.1534
21
-27.2711
0
ARC
8
BLACK
10
79.1534
20
-27.7711
40
0.5
50
-0
51
90
0
ARC
8
BLACK
10
66.1562
20
-27.7722
40
0.500001
50
90.0001
51
180
0
ARC
8
BLACK
10
79.1534
20
-40.7711
40
0.5
50
-90
51
-0
0
ARC
8
BLACK
10
66.1534
20
-40.7711
40
0.500001
50
-180
51
-90.0001
0
LINE
8
BLACK
6
CONTINUOUS
10
308.246
20
-108.727
11
308.246
21
-121.727
0
LINE
8
BLACK
6
CONTINUOUS
10
294.746
20
-108.227
11
307.746
21
-108.227
0
LINE
8
BLACK
6
CONTINUOUS
10
294.246
20
-121.727
11
294.246
21
-108.727
0
LINE
8
BLACK
6
CONTINUOUS
10
307.746
20
-122.227
11
294.746
21
-122.227
0
ARC
8
BLACK
10
307.746
20
-121.727
40
0.5
50
-90
51
-0
0
ARC
8
BLACK
10
307.746
20
-108.727
40
0.5
50
-0
51
90
0
ARC
8
BLACK
10
294.748
20
-108.728
40
0.500001
50
90.0001
51
180
0
ARC
8
BLACK
10
294.746
20
-121.727
40
0.500001
50
-180
51
-90.0001
0
LINE
8
BLACK
6
CONTINUOUS
10
374.428
20
-122.234
11
361.428
21
-122.234
0
LINE
8
BLACK
6
CONTINUOUS
10
374.928
20
-108.734
11
374.928
21
-121.734
0
LINE
8
BLACK
6
CONTINUOUS
10
361.428
20
-108.234
11
374.428
21
-108.234
0
LINE
8
BLACK
6
CONTINUOUS
10
360.928
20
-121.734
11
360.928
21
-108.734
0
ARC
8
BLACK
10
374.428
20
-121.734
40
0.5
50
-90
51
-0
0
ARC
8
BLACK
10
374.428
20
-108.734
40
0.5
50
-0
51
90
0
ARC
8
BLACK
10
361.431
20
-108.735
40
0.500001
50
90.0001
51
180
0
ARC
8
BLACK
10
361.428
20
-121.734
40
0.500001
50
-180
51
-90.0001
0
LINE
8
BLACK
6
CONTINUOUS
10
393.478
20
-122.234
11
380.478
21
-122.234
0
LINE
8
BLACK
6
CONTINUOUS
10
379.978
20
-121.734
11
379.978
21
-108.734
0
LINE
8
BLACK
6
CONTINUOUS
10
393.978
20
-108.734
11
393.978
21
-121.734
0
LINE
8
BLACK
6
CONTINUOUS
10
380.478
20
-108.234
11
393.478
21
-108.234
0
ARC
8
BLACK
10
380.478
20
-121.734
40
0.500001
50
-180
51
-90.0001
0
ARC
8
BLACK
10
393.478
20
-121.734
40
0.5
50
-90
51
-0
0
ARC
8
BLACK
10
393.478
20
-108.734
40
0.5
50
-0
51
90
0
ARC
8
BLACK
10
380.481
20
-108.735
40
0.500001
50
90.0001
51
180
0
LINE
8
BLACK
6
CONTINUOUS
10
179.666
20
-108.734
11
179.666
21
-121.734
0
LINE
8
BLACK
6
CONTINUOUS
10
179.166
20
-122.234
11
166.166
21
-122.234
0
LINE
8
BLACK
6
CONTINUOUS
10
166.166
20
-108.234
11
179.166
21
-108.234
0
LINE
8
BLACK
6
CONTINUOUS
10
165.666
20
-121.734
11
165.666
21
-108.734
0
ARC
8
BLACK
10
179.166
20
-108.734
40
0.5
50
-0
51
90
0
ARC
8
BLACK
10
179.166
20
-121.734
40
0.5
50
-90
51
-0
0
ARC
8
BLACK
10
166.169
20
-108.735
40
0.500001
50
90.0001
51
180
0
ARC
8
BLACK
10
166.166
20
-121.734
40
0.500001
50
-180
51
-90.0001
0
LINE
8
BLACK
6
CONTINUOUS
10
156.641
20
-89.1836
11
169.641
21
-89.1836
0
LINE
8
BLACK
6
CONTINUOUS
10
169.641
20
-103.184
11
156.641
21
-103.184
0
LINE
8
BLACK
6
CONTINUOUS
10
170.141
20
-89.6836
11
170.141
21
-102.684
0
LINE
8
BLACK
6
CONTINUOUS
10
156.141
20
-102.684
11
156.141
21
-89.6836
0
ARC
8
BLACK
10
169.641
20
-102.684
40
0.5
50
-90
51
-0
0
ARC
8
BLACK
10
156.641
20
-102.684
40
0.500001
50
-180
51
-90.0001
0
ARC
8
BLACK
10
156.644
20
-89.6847
40
0.500001
50
90.0001
51
180
0
ARC
8
BLACK
10
169.641
20
-89.6836
40
0.5
50
-0
51
90
0
LINE
8
BLACK
6
CONTINUOUS
10
46.6034
20
-64.5836
11
46.6034
21
-51.5836
0
LINE
8
BLACK
6
CONTINUOUS
10
60.6034
20
-51.5836
11
60.6034
21
-64.5836
0
LINE
8
BLACK
6
CONTINUOUS
10
60.1034
20
-65.0836
11
47.1034
21
-65.0836
0
LINE
8
BLACK
6
CONTINUOUS
10
47.1034
20
-51.0836
11
60.1034
21
-51.0836
0
ARC
8
BLACK
10
60.1034
20
-51.5836
40
0.5
50
-0
51
90
0
ARC
8
BLACK
10
60.1034
20
-64.5836
40
0.5
50
-90
51
-0
0
ARC
8
BLACK
10
47.1034
20
-64.5836
40
0.500001
50
-180
51
-90.0001
0
ARC
8
BLACK
10
47.1062
20
-51.5847
40
0.500001
50
90.0001
51
180
0
LINE
8
BLACK
6
CONTINUOUS
10
99.4909
20
-89.1836
11
112.491
21
-89.1836
0
LINE
8
BLACK
6
CONTINUOUS
10
98.9909
20
-102.684
11
98.9909
21
-89.6836
0
LINE
8
BLACK
6
CONTINUOUS
10
112.991
20
-89.6836
11
112.991
21
-102.684
0
LINE
8
BLACK
6
CONTINUOUS
10
112.491
20
-103.184
11
99.4909
21
-103.184
0
ARC
8
BLACK
10
112.491
20
-89.6836
40
0.5
50
-0
51
90
0
ARC
8
BLACK
10
99.4937
20
-89.6847
40
0.500001
50
90.0001
51
180
0
ARC
8
BLACK
10
99.4909
20
-102.684
40
0.500001
50
-180
51
-90.0001
0
ARC
8
BLACK
10
112.491
20
-102.684
40
0.5
50
-90
51
-0
0
LINE
8
BLACK
6
CONTINUOUS
10
360.928
20
-64.5836
11
360.928
21
-51.5836
0
LINE
8
BLACK
6
CONTINUOUS
10
374.428
20
-65.0836
11
361.428
21
-65.0836
0
LINE
8
BLACK
6
CONTINUOUS
10
361.428
20
-51.0836
11
374.428
21
-51.0836
0
LINE
8
BLACK
6
CONTINUOUS
10
374.928
20
-51.5836
11
374.928
21
-64.5836
0
ARC
8
BLACK
10
374.428
20
-51.5836
40
0.5
50
-0
51
90
0
ARC
8
BLACK
10
374.428
20
-64.5836
40
0.5
50
-90
51
-0
0
ARC
8
BLACK
10
361.431
20
-51.5847
40
0.500001
50
90.0001
51
180
0
ARC
8
BLACK
10
361.428
20
-64.5836
40
0.500001
50
-180
51
-90.0001
0
LINE
8
BLACK
6
CONTINUOUS
10
201.11
20
-127.798
11
201.11
21
-140.798
0
LINE
8
BLACK
6
CONTINUOUS
10
200.61
20
-141.298
11
187.61
21
-141.298
0
LINE
8
BLACK
6
CONTINUOUS
10
187.11
20
-140.798
11
187.11
21
-127.798
0
LINE
8
BLACK
6
CONTINUOUS
10
187.61
20
-127.298
11
200.61
21
-127.298
0
ARC
8
BLACK
10
187.61
20
-140.798
40
0.500001
50
-180
51
-90.0001
0
ARC
8
BLACK
10
200.61
20
-127.798
40
0.5
50
-0
51
90
0
ARC
8
BLACK
10
200.61
20
-140.798
40
0.5
50
-90
51
-0
0
ARC
8
BLACK
10
187.613
20
-127.799
40
0.500001
50
90.0001
51
180
0
LINE
8
BLACK
6
CONTINUOUS
10
30.4334
20
-108.234
11
43.4334
21
-108.234
0
LINE
8
BLACK
6
CONTINUOUS
10
43.4334
20
-122.234
11
30.4334
21
-122.234
0
LINE
8
BLACK
6
CONTINUOUS
10
29.9334
20
-121.734
11
29.9334
21
-108.734
0
LINE
8
BLACK
6
CONTINUOUS
10
43.9334
20
-108.734
11
43.9334
21
-121.734
0
ARC
8
BLACK
10
43.4334
20
-121.734
40
0.5
50
-90
51
-0
0
ARC
8
BLACK
10
30.4362
20
-108.735
40
0.500001
50
90.0001
51
180
0
ARC
8
BLACK
10
30.4334
20
-121.734
40
0.500001
50
-180
51
-90.0001
0
ARC
8
BLACK
10
43.4334
20
-108.734
40
0.5
50
-0
51
90
0
LINE
8
BLACK
6
CONTINUOUS
10
295.847
20
-103.184
11
282.847
21
-103.184
0
LINE
8
BLACK
6
CONTINUOUS
10
282.847
20
-89.1836
11
295.847
21
-89.1836
0
LINE
8
BLACK
6
CONTINUOUS
10
282.347
20
-102.684
11
282.347
21
-89.6836
0
LINE
8
BLACK
6
CONTINUOUS
10
296.347
20
-89.6836
11
296.347
21
-102.684
0
ARC
8
BLACK
10
295.847
20
-102.684
40
0.5
50
-90
51
-0
0
ARC
8
BLACK
10
282.847
20
-102.684
40
0.500001
50
-180
51
-90.0001
0
ARC
8
BLACK
10
282.85
20
-89.6847
40
0.500001
50
90.0001
51
180
0
ARC
8
BLACK
10
295.847
20
-89.6836
40
0.5
50
-0
51
90
0
LINE
8
BLACK
6
CONTINUOUS
10
43.94
20
-127.77
11
43.94
21
-140.77
0
LINE
8
BLACK
6
CONTINUOUS
10
30.44
20
-127.27
11
43.44
21
-127.27
0
LINE
8
BLACK
6
CONTINUOUS
10
29.94
20
-140.77
11
29.94
21
-127.77
0
LINE
8
BLACK
6
CONTINUOUS
10
43.44
20
-141.27
11
30.44
21
-141.27
0
ARC
8
BLACK
10
30.4428
20
-127.771
40
0.500001
50
90.0001
51
180
0
ARC
8
BLACK
10
43.44
20
-140.77
40
0.5
50
-90
51
-0
0
ARC
8
BLACK
10
43.44
20
-127.77
40
0.5
50
-0
51
90
0
ARC
8
BLACK
10
30.44
20
-140.77
40
0.500001
50
-180
51
-90.0001
0
LINE
8
BLACK
6
CONTINUOUS
10
103.753
20
-40.7711
11
103.753
21
-27.7711
0
LINE
8
BLACK
6
CONTINUOUS
10
117.753
20
-27.7711
11
117.753
21
-40.7711
0
LINE
8
BLACK
6
CONTINUOUS
10
117.253
20
-41.2711
11
104.253
21
-41.2711
0
LINE
8
BLACK
6
CONTINUOUS
10
104.253
20
-27.2711
11
117.253
21
-27.2711
0
ARC
8
BLACK
10
104.256
20
-27.7722
40
0.500001
50
90.0001
51
180
0
ARC
8
BLACK
10
117.253
20
-40.7711
40
0.5
50
-90
51
-0
0
ARC
8
BLACK
10
104.253
20
-40.7711
40
0.500001
50
-180
51
-90.0001
0
ARC
8
BLACK
10
117.253
20
-27.7711
40
0.5
50
-0
51
90
0
LINE
8
BLACK
6
CONTINUOUS
10
41.0534
20
-65.0836
11
28.0534
21
-65.0836
0
LINE
8
BLACK
6
CONTINUOUS
10
27.5534
20
-64.5836
11
27.5534
21
-51.5836
0
LINE
8
BLACK
6
CONTINUOUS
10
28.0534
20
-51.0836
11
41.0534
21
-51.0836
0
LINE
8
BLACK
6
CONTINUOUS
10
41.5534
20
-51.5836
11
41.5534
21
-64.5836
0
ARC
8
BLACK
10
41.0534
20
-51.5836
40
0.5
50
-0
51
90
0
ARC
8
BLACK
10
28.0534
20
-64.5836
40
0.500001
50
-180
51
-90.0001
0
ARC
8
BLACK
10
41.0534
20
-64.5836
40
0.5
50
-90
51
-0
0
ARC
8
BLACK
10
28.0562
20
-51.5847
40
0.500001
50
90.0001
51
180
0
LINE
8
BLACK
6
CONTINUOUS
10
270.153
20
-27.7711
11
270.153
21
-40.7711
0
LINE
8
BLACK
6
CONTINUOUS
10
256.153
20
-40.7711
11
256.153
21
-27.7711
0
LINE
8
BLACK
6
CONTINUOUS
10
256.653
20
-27.2711
11
269.653
21
-27.2711
0
LINE
8
BLACK
6
CONTINUOUS
10
269.653
20
-41.2711
11
256.653
21
-41.2711
0
ARC
8
BLACK
10
269.653
20
-40.7711
40
0.5
50
-90
51
-0
0
ARC
8
BLACK
10
269.653
20
-27.7711
40
0.5
50
-0
51
90
0
ARC
8
BLACK
10
256.656
20
-27.7722
40
0.500001
50
90.0001
51
180
0
ARC
8
BLACK
10
256.653
20
-40.7711
40
0.500001
50
-180
51
-90.0001
0
LINE
8
BLACK
6
CONTINUOUS
10
256.153
20
-64.5836
11
256.153
21
-51.5836
0
LINE
8
BLACK
6
CONTINUOUS
10
256.653
20
-51.0836
11
269.653
21
-51.0836
0
LINE
8
BLACK
6
CONTINUOUS
10
269.653
20
-65.0836
11
256.653
21
-65.0836
0
LINE
8
BLACK
6
CONTINUOUS
10
270.153
20
-51.5836
11
270.153
21
-64.5836
0
ARC
8
BLACK
10
269.653
20
-51.5836
40
0.5
50
-0
51
90
0
ARC
8
BLACK
10
256.656
20
-51.5847
40
0.500001
50
90.0001
51
180
0
ARC
8
BLACK
10
256.653
20
-64.5836
40
0.500001
50
-180
51
-90.0001
0
ARC
8
BLACK
10
269.653
20
-64.5836
40
0.5
50
-90
51
-0
0
LINE
8
BLACK
6
CONTINUOUS
10
204.266
20
-108.234
11
217.266
21
-108.234
0
LINE
8
BLACK
6
CONTINUOUS
10
217.266
20
-122.234
11
204.266
21
-122.234
0
LINE
8
BLACK
6
CONTINUOUS
10
217.766
20
-108.734
11
217.766
21
-121.734
0
LINE
8
BLACK
6
CONTINUOUS
10
203.766
20
-121.734
11
203.766
21
-108.734
0
ARC
8
BLACK
10
217.266
20
-108.734
40
0.5
50
-0
51
90
0
ARC
8
BLACK
10
204.269
20
-108.735
40
0.500001
50
90.0001
51
180
0
ARC
8
BLACK
10
204.266
20
-121.734
40
0.500001
50
-180
51
-90.0001
0
ARC
8
BLACK
10
217.266
20
-121.734
40
0.5
50
-90
51
-0
0
LINE
8
BLACK
6
CONTINUOUS
10
361.428
20
-89.1836
11
374.428
21
-89.1836
0
LINE
8
BLACK
6
CONTINUOUS
10
374.928
20
-89.6836
11
374.928
21
-102.684
0
LINE
8
BLACK
6
CONTINUOUS
10
360.928
20
-102.684
11
360.928
21
-89.6836
0
LINE
8
BLACK
6
CONTINUOUS
10
374.428
20
-103.184
11
361.428
21
-103.184
0
ARC
8
BLACK
10
361.431
20
-89.6847
40
0.500001
50
90.0001
51
180
0
ARC
8
BLACK
10
374.428
20
-102.684
40
0.5
50
-90
51
-0
0
ARC
8
BLACK
10
374.428
20
-89.6836
40
0.5
50
-0
51
90
0
ARC
8
BLACK
10
361.428
20
-102.684
40
0.500001
50
-180
51
-90.0001
0
LINE
8
BLACK
6
CONTINUOUS
10
163
20
-127.79
11
163
21
-140.79
0
LINE
8
BLACK
6
CONTINUOUS
10
162.5
20
-141.29
11
149.5
21
-141.29
0
LINE
8
BLACK
6
CONTINUOUS
10
149
20
-140.79
11
149
21
-127.79
0
LINE
8
BLACK
6
CONTINUOUS
10
149.5
20
-127.29
11
162.5
21
-127.29
0
ARC
8
BLACK
10
149.5
20
-140.79
40
0.500001
50
-180
51
-90.0001
0
ARC
8
BLACK
10
149.503
20
-127.791
40
0.500001
50
90.0001
51
180
0
ARC
8
BLACK
10
162.5
20
-127.79
40
0.5
50
-0
51
90
0
ARC
8
BLACK
10
162.5
20
-140.79
40
0.5
50
-90
51
-0
0
LINE
8
BLACK
6
CONTINUOUS
10
141.853
20
-64.5836
11
141.853
21
-51.5836
0
LINE
8
BLACK
6
CONTINUOUS
10
155.353
20
-65.0836
11
142.353
21
-65.0836
0
LINE
8
BLACK
6
CONTINUOUS
10
142.353
20
-51.0836
11
155.353
21
-51.0836
0
LINE
8
BLACK
6
CONTINUOUS
10
155.853
20
-51.5836
11
155.853
21
-64.5836
0
ARC
8
BLACK
10
142.353
20
-64.5836
40
0.500001
50
-180
51
-90.0001
0
ARC
8
BLACK
10
155.353
20
-51.5836
40
0.5
50
-0
51
90
0
ARC
8
BLACK
10
155.353
20
-64.5836
40
0.5
50
-90
51
-0
0
ARC
8
BLACK
10
142.356
20
-51.5847
40
0.500001
50
90.0001
51
180
0
LINE
8
BLACK
6
CONTINUOUS
10
399.028
20
-131.259
11
399.028
21
-118.259
0
LINE
8
BLACK
6
CONTINUOUS
10
413.028
20
-118.259
11
413.028
21
-131.259
0
LINE
8
BLACK
6
CONTINUOUS
10
399.528
20
-117.759
11
412.528
21
-117.759
0
LINE
8
BLACK
6
CONTINUOUS
10
412.528
20
-131.759
11
399.528
21
-131.759
0
ARC
8
BLACK
10
399.531
20
-118.26
40
0.500001
50
90.0001
51
180
0
ARC
8
BLACK
10
399.528
20
-131.259
40
0.500001
50
-180
51
-90.0001
0
ARC
8
BLACK
10
412.528
20
-118.259
40
0.5
50
-0
51
90
0
ARC
8
BLACK
10
412.528
20
-131.259
40
0.5
50
-90
51
-0
0
LINE
8
BLACK
6
CONTINUOUS
10
118.541
20
-89.1836
11
131.541
21
-89.1836
0
LINE
8
BLACK
6
CONTINUOUS
10
131.541
20
-103.184
11
118.541
21
-103.184
0
LINE
8
BLACK
6
CONTINUOUS
10
132.041
20
-89.6836
11
132.041
21
-102.684
0
LINE
8
BLACK
6
CONTINUOUS
10
118.041
20
-102.684
11
118.041
21
-89.6836
0
ARC
8
BLACK
10
131.541
20
-89.6836
40
0.5
50
-0
51
90
0
ARC
8
BLACK
10
131.541
20
-102.684
40
0.5
50
-90
51
-0
0
ARC
8
BLACK
10
118.541
20
-102.684
40
0.500001
50
-180
51
-90.0001
0
ARC
8
BLACK
10
118.544
20
-89.6847
40
0.500001
50
90.0001
51
180
0
LINE
8
BLACK
6
CONTINUOUS
10
308.253
20
-27.7711
11
308.253
21
-40.7711
0
LINE
8
BLACK
6
CONTINUOUS
10
294.753
20
-27.2711
11
307.753
21
-27.2711
0
LINE
8
BLACK
6
CONTINUOUS
10
294.253
20
-40.7711
11
294.253
21
-27.7711
0
LINE
8
BLACK
6
CONTINUOUS
10
307.753
20
-41.2711
11
294.753
21
-41.2711
0
ARC
8
BLACK
10
294.756
20
-27.7722
40
0.500001
50
90.0001
51
180
0
ARC
8
BLACK
10
294.753
20
-40.7711
40
0.500001
50
-180
51
-90.0001
0
ARC
8
BLACK
10
307.753
20
-40.7711
40
0.5
50
-90
51
-0
0
ARC
8
BLACK
10
307.753
20
-27.7711
40
0.5
50
-0
51
90
0
LINE
8
BLACK
6
CONTINUOUS
10
393.978
20
-89.6836
11
393.978
21
-102.684
0
LINE
8
BLACK
6
CONTINUOUS
10
380.478
20
-89.1836
11
393.478
21
-89.1836
0
LINE
8
BLACK
6
CONTINUOUS
10
379.978
20
-102.684
11
379.978
21
-89.6836
0
LINE
8
BLACK
6
CONTINUOUS
10
393.478
20
-103.184
11
380.478
21
-103.184
0
ARC
8
BLACK
10
393.478
20
-102.684
40
0.5
50
-90
51
-0
0
ARC
8
BLACK
10
393.478
20
-89.6836
40
0.5
50
-0
51
90
0
ARC
8
BLACK
10
380.478
20
-102.684
40
0.500001
50
-180
51
-90.0001
0
ARC
8
BLACK
10
380.481
20
-89.6847
40
0.500001
50
90.0001
51
180
0
LINE
8
BLACK
6
CONTINUOUS
10
213.791
20
-89.1836
11
226.791
21
-89.1836
0
LINE
8
BLACK
6
CONTINUOUS
10
213.291
20
-102.684
11
213.291
21
-89.6836
0
LINE
8
BLACK
6
CONTINUOUS
10
227.291
20
-89.6836
11
227.291
21
-102.684
0
LINE
8
BLACK
6
CONTINUOUS
10
226.791
20
-103.184
11
213.791
21
-103.184
0
ARC
8
BLACK
10
213.791
20
-102.684
40
0.500001
50
-180
51
-90.0001
0
ARC
8
BLACK
10
226.791
20
-102.684
40
0.5
50
-90
51
-0
0
ARC
8
BLACK
10
226.791
20
-89.6836
40
0.5
50
-0
51
90
0
ARC
8
BLACK
10
213.794
20
-89.6847
40
0.500001
50
90.0001
51
180
0
LINE
8
BLACK
6
CONTINUOUS
10
413.028
20
-51.5836
11
413.028
21
-64.5836
0
LINE
8
BLACK
6
CONTINUOUS
10
399.028
20
-64.5836
11
399.028
21
-51.5836
0
LINE
8
BLACK
6
CONTINUOUS
10
412.528
20
-65.0836
11
399.528
21
-65.0836
0
LINE
8
BLACK
6
CONTINUOUS
10
399.528
20
-51.0836
11
412.528
21
-51.0836
0
ARC
8
BLACK
10
412.528
20
-51.5836
40
0.5
50
-0
51
90
0
ARC
8
BLACK
10
412.528
20
-64.5836
40
0.5
50
-90
51
-0
0
ARC
8
BLACK
10
399.531
20
-51.5847
40
0.500001
50
90.0001
51
180
0
ARC
8
BLACK
10
399.528
20
-64.5836
40
0.500001
50
-180
51
-90.0001
0
LINE
8
BLACK
6
CONTINUOUS
10
232.341
20
-102.684
11
232.341
21
-89.6836
0
LINE
8
BLACK
6
CONTINUOUS
10
246.341
20
-89.6836
11
246.341
21
-102.684
0
LINE
8
BLACK
6
CONTINUOUS
10
232.841
20
-89.1836
11
245.841
21
-89.1836
0
LINE
8
BLACK
6
CONTINUOUS
10
245.841
20
-103.184
11
232.841
21
-103.184
0
ARC
8
BLACK
10
232.844
20
-89.6847
40
0.500001
50
90.0001
51
180
0
ARC
8
BLACK
10
245.841
20
-89.6836
40
0.5
50
-0
51
90
0
ARC
8
BLACK
10
245.841
20
-102.684
40
0.5
50
-90
51
-0
0
ARC
8
BLACK
10
232.841
20
-102.684
40
0.500001
50
-180
51
-90.0001
0
LINE
8
BLACK
6
CONTINUOUS
10
161.403
20
-51.0836
11
174.403
21
-51.0836
0
LINE
8
BLACK
6
CONTINUOUS
10
160.903
20
-64.5836
11
160.903
21
-51.5836
0
LINE
8
BLACK
6
CONTINUOUS
10
174.403
20
-65.0836
11
161.403
21
-65.0836
0
LINE
8
BLACK
6
CONTINUOUS
10
174.903
20
-51.5836
11
174.903
21
-64.5836
0
ARC
8
BLACK
10
174.403
20
-51.5836
40
0.5
50
-0
51
90
0
ARC
8
BLACK
10
161.406
20
-51.5847
40
0.500001
50
90.0001
51
180
0
ARC
8
BLACK
10
174.403
20
-64.5836
40
0.5
50
-90
51
-0
0
ARC
8
BLACK
10
161.403
20
-64.5836
40
0.500001
50
-180
51
-90.0001
0
LINE
8
BLACK
6
CONTINUOUS
10
146.616
20
-121.734
11
146.616
21
-108.734
0
LINE
8
BLACK
6
CONTINUOUS
10
160.116
20
-122.234
11
147.116
21
-122.234
0
LINE
8
BLACK
6
CONTINUOUS
10
147.116
20
-108.234
11
160.116
21
-108.234
0
LINE
8
BLACK
6
CONTINUOUS
10
160.616
20
-108.734
11
160.616
21
-121.734
0
ARC
8
BLACK
10
147.119
20
-108.735
40
0.500001
50
90.0001
51
180
0
ARC
8
BLACK
10
160.116
20
-121.734
40
0.5
50
-90
51
-0
0
ARC
8
BLACK
10
160.116
20
-108.734
40
0.5
50
-0
51
90
0
ARC
8
BLACK
10
147.116
20
-121.734
40
0.500001
50
-180
51
-90.0001
0
LINE
8
BLACK
6
CONTINUOUS
10
262.516
20
-141.277
11
249.516
21
-141.277
0
LINE
8
BLACK
6
CONTINUOUS
10
263.016
20
-127.777
11
263.016
21
-140.777
0
LINE
8
BLACK
6
CONTINUOUS
10
249.516
20
-127.277
11
262.516
21
-127.277
0
LINE
8
BLACK
6
CONTINUOUS
10
249.016
20
-140.777
11
249.016
21
-127.777
0
ARC
8
BLACK
10
262.516
20
-127.777
40
0.5
50
-0
51
90
0
ARC
8
BLACK
10
249.516
20
-140.777
40
0.500001
50
-180
51
-90.0001
0
ARC
8
BLACK
10
249.519
20
-127.778
40
0.500001
50
90.0001
51
180
0
ARC
8
BLACK
10
262.516
20
-140.777
40
0.5
50
-90
51
-0
0
LINE
8
BLACK
6
CONTINUOUS
10
32.3159
20
-83.6336
11
32.3159
21
-70.6336
0
LINE
8
BLACK
6
CONTINUOUS
10
32.8159
20
-70.1336
11
45.8159
21
-70.1336
0
LINE
8
BLACK
6
CONTINUOUS
10
46.3159
20
-70.6336
11
46.3159
21
-83.6336
0
LINE
8
BLACK
6
CONTINUOUS
10
45.8159
20
-84.1336
11
32.8159
21
-84.1336
0
ARC
8
BLACK
10
45.8159
20
-83.6336
40
0.5
50
-90
51
-0
0
ARC
8
BLACK
10
32.8159
20
-83.6336
40
0.500001
50
-180
51
-90.0001
0
ARC
8
BLACK
10
32.8187
20
-70.6347
40
0.500001
50
90.0001
51
180
0
ARC
8
BLACK
10
45.8159
20
-70.6336
40
0.5
50
-0
51
90
0
LINE
8
BLACK
6
CONTINUOUS
10
279.678
20
-70.6336
11
279.678
21
-83.6336
0
LINE
8
BLACK
6
CONTINUOUS
10
266.178
20
-70.1336
11
279.178
21
-70.1336
0
LINE
8
BLACK
6
CONTINUOUS
10
279.178
20
-84.1336
11
266.178
21
-84.1336
0
LINE
8
BLACK
6
CONTINUOUS
10
265.678
20
-83.6336
11
265.678
21
-70.6336
0
ARC
8
BLACK
10
279.178
20
-70.6336
40
0.5
50
-0
51
90
0
ARC
8
BLACK
10
279.178
20
-83.6336
40
0.5
50
-90
51
-0
0
ARC
8
BLACK
10
266.181
20
-70.6347
40
0.500001
50
90.0001
51
180
0
ARC
8
BLACK
10
266.178
20
-83.6336
40
0.500001
50
-180
51
-90.0001
0
LINE
8
BLACK
6
CONTINUOUS
10
51.3692
20
-121.73
11
51.3692
21
-108.73
0
LINE
8
BLACK
6
CONTINUOUS
10
65.3692
20
-108.73
11
65.3692
21
-121.73
0
LINE
8
BLACK
6
CONTINUOUS
10
64.8692
20
-122.23
11
51.8692
21
-122.23
0
LINE
8
BLACK
6
CONTINUOUS
10
51.8692
20
-108.23
11
64.8692
21
-108.23
0
ARC
8
BLACK
10
64.8692
20
-121.73
40
0.5
50
-90
51
-0
0
ARC
8
BLACK
10
64.8692
20
-108.73
40
0.5
50
-0
51
90
0
ARC
8
BLACK
10
51.872
20
-108.731
40
0.500001
50
90.0001
51
180
0
ARC
8
BLACK
10
51.8692
20
-121.73
40
0.500001
50
-180
51
-90.0001
0
LINE
8
BLACK
6
CONTINUOUS
10
136.803
20
-27.7711
11
136.803
21
-40.7711
0
LINE
8
BLACK
6
CONTINUOUS
10
122.803
20
-40.7711
11
122.803
21
-27.7711
0
LINE
8
BLACK
6
CONTINUOUS
10
136.303
20
-41.2711
11
123.303
21
-41.2711
0
LINE
8
BLACK
6
CONTINUOUS
10
123.303
20
-27.2711
11
136.303
21
-27.2711
0
ARC
8
BLACK
10
136.303
20
-40.7711
40
0.5
50
-90
51
-0
0
ARC
8
BLACK
10
123.303
20
-40.7711
40
0.500001
50
-180
51
-90.0001
0
ARC
8
BLACK
10
136.303
20
-27.7711
40
0.5
50
-0
51
90
0
ARC
8
BLACK
10
123.306
20
-27.7722
40
0.500001
50
90.0001
51
180
0
LINE
8
BLACK
6
CONTINUOUS
10
260.128
20
-84.1336
11
247.128
21
-84.1336
0
LINE
8
BLACK
6
CONTINUOUS
10
260.628
20
-70.6336
11
260.628
21
-83.6336
0
LINE
8
BLACK
6
CONTINUOUS
10
246.628
20
-83.6336
11
246.628
21
-70.6336
0
LINE
8
BLACK
6
CONTINUOUS
10
247.128
20
-70.1336
11
260.128
21
-70.1336
0
ARC
8
BLACK
10
247.131
20
-70.6347
40
0.500001
50
90.0001
51
180
0
ARC
8
BLACK
10
260.128
20
-70.6336
40
0.5
50
-0
51
90
0
ARC
8
BLACK
10
247.128
20
-83.6336
40
0.500001
50
-180
51
-90.0001
0
ARC
8
BLACK
10
260.128
20
-83.6336
40
0.5
50
-90
51
-0
0
LINE
8
BLACK
6
CONTINUOUS
10
318.566
20
-70.1336
11
331.566
21
-70.1336
0
LINE
8
BLACK
6
CONTINUOUS
10
332.066
20
-70.6336
11
332.066
21
-83.6336
0
LINE
8
BLACK
6
CONTINUOUS
10
331.566
20
-84.1336
11
318.566
21
-84.1336
0
LINE
8
BLACK
6
CONTINUOUS
10
318.066
20
-83.6336
11
318.066
21
-70.6336
0
ARC
8
BLACK
10
318.566
20
-83.6336
40
0.500001
50
-180
51
-90.0001
0
ARC
8
BLACK
10
331.566
20
-70.6336
40
0.5
50
-0
51
90
0
ARC
8
BLACK
10
318.569
20
-70.6347
40
0.500001
50
90.0001
51
180
0
ARC
8
BLACK
10
331.566
20
-83.6336
40
0.5
50
-90
51
-0
0
LINE
8
BLACK
6
CONTINUOUS
10
67.7471
20
-127.784
11
67.7471
21
-140.784
0
LINE
8
BLACK
6
CONTINUOUS
10
67.2471
20
-141.284
11
54.2471
21
-141.284
0
LINE
8
BLACK
6
CONTINUOUS
10
53.7471
20
-140.784
11
53.7471
21
-127.784
0
LINE
8
BLACK
6
CONTINUOUS
10
54.2471
20
-127.284
11
67.2471
21
-127.284
0
ARC
8
BLACK
10
67.2471
20
-140.784
40
0.5
50
-90
51
-0
0
ARC
8
BLACK
10
67.2471
20
-127.784
40
0.5
50
-0
51
90
0
ARC
8
BLACK
10
54.2472
20
-140.784
40
0.500001
50
-180
51
-90.0001
0
ARC
8
BLACK
10
54.2499
20
-127.785
40
0.500001
50
90.0001
51
180
0
LINE
8
BLACK
6
CONTINUOUS
10
341.878
20
-83.6336
11
341.878
21
-70.6336
0
LINE
8
BLACK
6
CONTINUOUS
10
355.878
20
-70.6336
11
355.878
21
-83.6336
0
LINE
8
BLACK
6
CONTINUOUS
10
342.378
20
-70.1336
11
355.378
21
-70.1336
0
LINE
8
BLACK
6
CONTINUOUS
10
355.378
20
-84.1336
11
342.378
21
-84.1336
0
ARC
8
BLACK
10
355.378
20
-70.6336
40
0.5
50
-0
51
90
0
ARC
8
BLACK
10
355.378
20
-83.6336
40
0.5
50
-90
51
-0
0
ARC
8
BLACK
10
342.378
20
-83.6336
40
0.500001
50
-180
51
-90.0001
0
ARC
8
BLACK
10
342.381
20
-70.6347
40
0.500001
50
90.0001
51
180
0
LINE
8
BLACK
6
CONTINUOUS
10
285.228
20
-51.0836
11
298.228
21
-51.0836
0
LINE
8
BLACK
6
CONTINUOUS
10
284.728
20
-64.5836
11
284.728
21
-51.5836
0
LINE
8
BLACK
6
CONTINUOUS
10
298.728
20
-51.5836
11
298.728
21
-64.5836
0
LINE
8
BLACK
6
CONTINUOUS
10
298.228
20
-65.0836
11
285.228
21
-65.0836
0
ARC
8
BLACK
10
298.228
20
-51.5836
40
0.5
50
-0
51
90
0
ARC
8
BLACK
10
285.228
20
-64.5836
40
0.500001
50
-180
51
-90.0001
0
ARC
8
BLACK
10
298.228
20
-64.5836
40
0.5
50
-90
51
-0
0
ARC
8
BLACK
10
285.231
20
-51.5847
40
0.500001
50
90.0001
51
180
0
LINE
8
BLACK
6
CONTINUOUS
10
94.7284
20
-70.1336
11
107.728
21
-70.1336
0
LINE
8
BLACK
6
CONTINUOUS
10
108.228
20
-70.6336
11
108.228
21
-83.6336
0
LINE
8
BLACK
6
CONTINUOUS
10
94.2284
20
-83.6336
11
94.2284
21
-70.6336
0
LINE
8
BLACK
6
CONTINUOUS
10
107.728
20
-84.1336
11
94.7284
21
-84.1336
0
ARC
8
BLACK
10
94.7312
20
-70.6347
40
0.500001
50
90.0001
51
180
0
ARC
8
BLACK
10
107.728
20
-70.6336
40
0.5
50
-0
51
90
0
ARC
8
BLACK
10
94.7284
20
-83.6336
40
0.500001
50
-180
51
-90.0001
0
ARC
8
BLACK
10
107.728
20
-83.6336
40
0.5
50
-90
51
-0
0
LINE
8
BLACK
6
CONTINUOUS
10
170.428
20
-40.7711
11
170.428
21
-27.7711
0
LINE
8
BLACK
6
CONTINUOUS
10
170.928
20
-27.2711
11
183.928
21
-27.2711
0
LINE
8
BLACK
6
CONTINUOUS
10
184.428
20
-27.7711
11
184.428
21
-40.7711
0
LINE
8
BLACK
6
CONTINUOUS
10
183.928
20
-41.2711
11
170.928
21
-41.2711
0
ARC
8
BLACK
10
183.928
20
-27.7711
40
0.5
50
-0
51
90
0
ARC
8
BLACK
10
170.931
20
-27.7722
40
0.500001
50
90.0001
51
180
0
ARC
8
BLACK
10
170.928
20
-40.7711
40
0.500001
50
-180
51
-90.0001
0
ARC
8
BLACK
10
183.928
20
-40.7711
40
0.5
50
-90
51
-0
  0
ENDSEC
  0
EOF
